<svg xmlns="http://www.w3.org/2000/svg" viewBox="0 0 1795.93 1720.91">
    <defs>
        <style>.cls-1 {
            isolation: isolate;
        }

        .cls-2 {
            mix-blend-mode: overlay;
        }

        .cls-3 {
            fill: #fff;
        }

        .cls-4 {
            fill: #e1e1e1;
        }

        .cls-5 {
            fill: #fafafa;
        }

        .cls-6 {
            fill: #ececec;
        }

        .cls-7 {
            fill: #f5f5f5;
        }

        .cls-8 {
            fill: #292929;
        }

        .cls-9 {
            fill: #858585;
        }

        .cls-10 {
            opacity: 0.24;
        }

        .cls-11 {
            opacity: 0.3;
        }

        .cls-12 {
            fill: #505050;
        }

        .cls-13 {
            fill: #cfcfcf;
        }

        .cls-14 {
            fill: #b4b4b4;
        }

        .cls-15 {
            fill: #faa61a;
        }</style>
    </defs>
    <g class="cls-1">
        <g id="Layer_2" data-name="Layer 2">
            <g id="Layer_1-2" data-name="Layer 1">
                <g class="cls-2">
                    <path id="Path_367" data-name="Path 367" class="cls-3"
                          d="M565.77,1578.15c-38.78-93.06-74.55-178.9-109.88-265a154.17,154.17,0,0,0-25.45-40.66c-155.1-185.78-201.68-395.89-120.3-624.18,104.94-294.84,411-467.34,717.58-404.42,21.76,4.07,24.48,12,16.77,32.18q-50.31,131.84-97.33,265a29.51,29.51,0,0,1-34.75,23.07c-161.54-8-299,116.51-306.94,278q-.62,12.63-.15,25.28a287.67,287.67,0,0,0,117.29,225.13c11.34,8.87,16.24,15.51,10.76,30.34C677.87,1272.46,623.06,1422.28,565.77,1578.15Z"/>
                    <path id="Path_368" data-name="Path 368" class="cls-3"
                          d="M1235,142.76c36.69,88.4,72.12,173.37,107.16,258.53a142.74,142.74,0,0,0,25.31,40.86c229.5,258.58,205.92,654.25-52.66,883.75a626,626,0,0,1-258,137.67,640.17,640.17,0,0,1-286,7.76c-21.47-4-25-11-17.06-31.9,33.63-87.87,65.82-176.37,97.42-265a29.85,29.85,0,0,1,34.94-23.17c161.24,8.16,298.56-115.94,306.71-277.17a291.06,291.06,0,0,0,0-29.54,286.51,286.51,0,0,0-117.29-222.27c-9.69-7.76-16.67-13.09-11.29-27.53q82.4-221.94,163.92-444.27C1228.86,149,1230.37,147.94,1235,142.76Z"/>
                </g>
                <rect class="cls-4" x="342.2" y="1413.8" width="31.24" height="233.83"
                      transform="translate(-1172.9 1888.53) rotate(-90)"/>
                <path class="cls-5"
                      d="M272.76,1516.39c.81,0,1.47,6.55,1.47,14.63s-.66,14.64-1.47,14.64-1.47-6.55-1.47-14.64S272,1516.39,272.76,1516.39Z"/>
                <path class="cls-5"
                      d="M267.67,1515.75c.81,0,1.47,6.56,1.47,14.64s-.66,14.63-1.47,14.63-1.47-6.55-1.47-14.63S266.86,1515.75,267.67,1515.75Z"/>
                <path class="cls-5"
                      d="M456.65,1516.39c.81,0,1.47,6.55,1.47,14.63s-.66,14.64-1.47,14.64-1.47-6.55-1.47-14.64S455.84,1516.39,456.65,1516.39Z"/>
                <path class="cls-5"
                      d="M451.56,1515.75c.81,0,1.47,6.56,1.47,14.64s-.66,14.63-1.47,14.63-1.47-6.55-1.47-14.63S450.75,1515.75,451.56,1515.75Z"/>
                <path class="cls-5"
                      d="M421,1531.66c0,.81-26.78,1.47-59.81,1.47s-59.82-.66-59.82-1.47,26.78-1.47,59.82-1.47S421,1530.85,421,1531.66Z"/>
                <rect class="cls-4" x="325.57" y="1570.06" width="62.47" height="233.83"
                      transform="translate(-1330.17 2043.78) rotate(-90)"/>
                <path class="cls-5"
                      d="M476.72,1700.64a5.44,5.44,0,0,1-1.27.73c-.86.44-2.16,1.05-3.9,1.78a68,68,0,0,1-15.85,4.54c-7,1-16.42,1.28-25.73-3.66A34.21,34.21,0,0,1,417.76,1693a25.71,25.71,0,0,1-4.26-18,19,19,0,0,1,4.3-9.31,12.31,12.31,0,0,1,9.86-4.48,14.2,14.2,0,0,1,9.91,5.35,19.38,19.38,0,0,1,4.53,10.65c.92,7.92-2.41,16.14-8.06,22.14-5.57,6.23-13.88,10-22.48,11a59.78,59.78,0,0,1-26.08-3.24c-8.49-2.93-16.87-7.69-22.79-15.32a25.09,25.09,0,0,1-5.31-13.48,17.46,17.46,0,0,1,5-14,11.39,11.39,0,0,1,7.31-3.21,13.48,13.48,0,0,1,7.65,2.15,20.31,20.31,0,0,1,8.6,12.61c2.2,10.21-1.85,20.86-9.22,27.52S359.62,1713,350.37,1714a64.72,64.72,0,0,1-27.29-2.68c-8.58-2.86-16.31-8.51-20.76-16.14-4.52-7.46-6-16.9-2.6-24.82,1.6-3.92,5.22-7.41,9.54-8.07a15.06,15.06,0,0,1,11.78,2.84c6.6,5.24,7.7,14.22,5.57,21-2.17,7-6.89,12.41-11.79,16.6a53.09,53.09,0,0,1-32.06,12.46,51.75,51.75,0,0,1-38.66-15.59,40.88,40.88,0,0,1-2.8-3.25,5.53,5.53,0,0,1-.82-1.21c.3-.41,4.68,6.82,17.38,13.25a50.91,50.91,0,0,0,24.82,5.16,51.64,51.64,0,0,0,30.79-12.4c4.67-4.07,9.07-9.26,11-15.66,1.91-6.2.67-14.21-4.86-18.46a12.63,12.63,0,0,0-9.83-2.32,10.45,10.45,0,0,0-7.65,6.64c-2.95,6.94-1.66,15.53,2.56,22.38,4.13,7,11.21,12.19,19.34,14.88a62.18,62.18,0,0,0,26.07,2.48c8.85-1,17.93-3.86,24.67-10,6.65-6,10.28-15.76,8.32-24.7a17.39,17.39,0,0,0-7.29-10.77c-3.65-2.42-8.42-2.35-11.4.69a14.63,14.63,0,0,0-4.08,11.71,22.18,22.18,0,0,0,4.71,12c5.36,7,13.32,11.6,21.39,14.39a57.09,57.09,0,0,0,24.86,3.21c8.12-.91,15.72-4.34,20.9-10.06,5.27-5.53,8.32-13,7.53-20.11-.57-6.88-5.81-13.58-12.12-14a10.06,10.06,0,0,0-8.12,3.65,16.94,16.94,0,0,0-3.88,8.21,23.84,23.84,0,0,0,3.77,16.63,32.61,32.61,0,0,0,11.45,10.65c8.72,4.82,17.89,4.78,24.77,4a74.71,74.71,0,0,0,15.8-4C474.85,1701.32,476.67,1700.53,476.72,1700.64Z"/>
                <rect class="cls-6" x="313.05" y="1494.96" width="108.39" height="212.94"
                      transform="translate(-1234.19 1968.68) rotate(-90)"/>
                <path class="cls-4"
                      d="M296.16,1551c.81,0,1.47,23.49,1.47,52.45s-.66,52.47-1.47,52.47-1.47-23.49-1.47-52.47S295.34,1551,296.16,1551Z"/>
                <path class="cls-4"
                      d="M312.3,1549.61c.81,0,1.47,23.19,1.47,51.79s-.66,51.79-1.47,51.79-1.47-23.19-1.47-51.79S311.49,1549.61,312.3,1549.61Z"/>
                <path class="cls-4"
                      d="M449.65,1546.13c.81,0,1.47,24.42,1.47,54.54s-.66,54.54-1.47,54.54-1.47-24.42-1.47-54.54S448.84,1546.13,449.65,1546.13Z"/>
                <path class="cls-4"
                      d="M430.67,1547.59c.81,0,1.47,23.79,1.47,53.13s-.66,53.14-1.47,53.14-1.47-23.79-1.47-53.14S429.86,1547.59,430.67,1547.59Z"/>
                <path class="cls-6"
                      d="M1576.91,1310.61c22.08-11.39,48.07-12.87,72.58-8.82,13.16,2.18,26.89,6.12,35.85,16s10.65,27.29.37,35.79c-6.13,5.06-14.67,5.82-22.61,5.73-19.18-.22-40.47-3.6-55.8,8-8.74,6.58-14.56,17.53-25,20.77-10.23,3.17-21.77-2.87-27.19-12.1s-5.61-20.77-3.08-31.18C1552,1344.76,1554.67,1322.08,1576.91,1310.61Z"/>
                <path class="cls-6"
                      d="M1526.34,1213c13.49,19.28,39.73,12.9,51.89,1.13s17.31-28.82,22-45.09c10.69-37.16,21.47-76.14,13.52-114-2.38-11.32-6.61-22.6-14.56-31s-20.17-13.39-31.35-10.44c-13.23,3.5-21.45,16.45-27.39,28.78a271.83,271.83,0,0,0-26.85,116.6c-.06,18.79,2.15,38.48,12.75,54"/>
                <path class="cls-6"
                      d="M1489.27,1240.64c14.65-17.39,17.43-42.76,10.91-64.55s-21.25-40.33-38.23-55.46a205.82,205.82,0,0,0-68.47-40.4c-9.9-3.48-20.34-6.23-30.79-5.23s-21,6.34-25.84,15.63c-7.21,13.74-.3,30.41,7.18,44a521.49,521.49,0,0,0,45,68.48c13.48,17.38,28.92,34.52,49.47,42.37s41.88,6.93,52.76-7.31"/>
                <path class="cls-4"
                      d="M1525.42,1503.8c.25,0,.66-3.11,1.22-8.76.62-6.38,1.4-14.38,2.33-23.91a343,343,0,0,1,5.38-35.07,270.39,270.39,0,0,1,12.74-41.39c5.8-14.2,12.87-27.12,21.14-37.45S1586,1339.34,1595,1335a75.06,75.06,0,0,1,22.5-7c5.59-.57,8.72-1,8.72-1.26s-3.13-.29-8.87-.13a68.32,68.32,0,0,0-23.47,6.1c-9.45,4.19-19.58,11.82-28.18,22.41s-16,23.74-21.91,38.2a253.34,253.34,0,0,0-12.66,42.07,297.89,297.89,0,0,0-4.66,35.51c-.76,10.15-1,18.37-1.18,24S1525.18,1503.78,1525.42,1503.8Z"/>
                <path class="cls-4"
                      d="M1527.07,1485.4c.12,0,.2-1.4.23-4.06,0-3.06,0-6.91,0-11.63,0-10.09,0-24.68.52-42.71.89-36,4-74.85,10-129.56,5.68-51.44,13.3-111.3,21.34-150.22,1.73-8.85,3.47-16.82,5.1-23.79s2.89-13,4.18-17.9l2.71-11.3c.59-2.59.83-4,.71-4s-.6,1.28-1.41,3.81c-.89,2.93-2,6.61-3.37,11.14-1.5,4.83-3,10.82-4.79,17.78s-3.74,14.9-5.63,23.73c-7.95,35.27-16.38,84.56-22.43,139.4s-8.72,104.73-9,140.87c-.22,18.07.16,32.7.63,42.8.28,4.72.52,8.56.71,11.62C1526.78,1484,1526.94,1485.41,1527.07,1485.4Z"/>
                <path class="cls-4"
                      d="M1527.31,1389.13c.25,0,.21-4.32-.08-12.14-.45-7.8-1.52-19.08-3.72-32.9a435.3,435.3,0,0,0-10.7-47.93c-2.22-8.13-7.43-27.61-20-56.71-16.63-39.44-39.22-71.68-58.87-91.66-4.6-5.3-9.74-9.12-13.84-12.87-2.13-1.79-4-3.58-5.92-5l-5.37-3.71c-6.47-4.42-10.09-6.75-10.22-6.54-.58.79,14.48,9.65,33.51,29.89s40.9,52.22,57.39,91.32a449.4,449.4,0,0,1,20.15,56.2,487.66,487.66,0,0,1,11.39,47.45c2.5,13.68,4,24.84,4.83,32.58S1527.06,1389.14,1527.31,1389.13Z"/>
                <polygon class="cls-6"
                         points="1427.82 1544.33 1437.46 1676.48 1607.24 1676.48 1616.89 1544.33 1427.82 1544.33"/>
                <rect class="cls-6" x="1411.42" y="1492.24" width="225.73" height="52.09"/>
                <polygon class="cls-4"
                         points="1411.42 1671.43 1411.42 1685.87 1422.03 1685.87 1633.42 1685.87 1633.42 1671.43 1411.42 1671.43"/>
                <polygon class="cls-4"
                         points="1432.42 1709.68 1422.03 1684.27 1625.33 1684.27 1613.2 1709.68 1432.42 1709.68"/>
                <path class="cls-7"
                      d="M1613.74,1587.52a5.42,5.42,0,0,1-.79,1.21l-2.54,3.37-9.89,12.65-.44.57-.43-.59c-6.21-8.6-14.52-20.08-24.3-33.61h1.4L1552.83,1605l-.75,1.06-.84-1-28.37-33.76,1.63,0-1.56,2-25.37,31.81-.84,1.06L1496,1605,1472,1571.14l1.4.06-29.48,33.59-.52.6-.4-.68c-3.89-6.52-7-11.73-9.23-15.5-1-1.68-1.75-3-2.37-4.13a6.33,6.33,0,0,1-.72-1.47,6.62,6.62,0,0,1,1,1.31c.69,1,1.56,2.35,2.62,4,2.36,3.7,5.62,8.81,9.69,15.22l-.92-.07,29-34,.73-.85.66.92,24.15,33.71-1.63,0,25.31-31.85,1.56-2,.81-1,.83,1,28.29,33.82-1.59.06,24.16-33.7.71-1,.69,1,23.79,34-.87,0c4.34-5.19,7.78-9.33,10.29-12.33l2.76-3.19C1613.35,1587.84,1613.7,1587.49,1613.74,1587.52Z"/>
                <path class="cls-7"
                      d="M1619.25,1543.45c0,.59-42.54,1.06-95,1.06s-95-.47-95-1.06,42.53-1,95-1S1619.25,1542.87,1619.25,1543.45Z"/>
                <path class="cls-4"
                      d="M651.32,166.78a3,3,0,0,1-1-.29l-2.75-1.09L637.12,161l-38.39-16.43-126.28-55-4.38-1.92H469L345.24,140.59,307.8,156.32l-10.21,4.16a23.15,23.15,0,0,1-3.61,1.31,24.81,24.81,0,0,1,3.43-1.72l10-4.56,37.16-16.39L468.08,85.58l.45-.2.46.2,4.38,1.92,126,55.63,38.1,17.1L647.79,165l2.65,1.29A3.65,3.65,0,0,1,651.32,166.78Z"/>
                <rect class="cls-4" x="37.23" y="148.65" width="811.09" height="607.3"/>
                <rect class="cls-5" x="65.58" y="176.89" width="757.42" height="554.11"/>
                <path class="cls-4" d="M232.88,419s.79,93,5.52,121.4l116.67-5.52S344.82,443.42,348.76,419Z"/>
                <path class="cls-3"
                      d="M290.35,432.13a1.69,1.69,0,0,1,.42,0l1.26,0a28.54,28.54,0,0,1,4.86.24,26.64,26.64,0,0,1,7.42,2.21,24.42,24.42,0,0,1,8.07,6.38A28,28,0,0,1,318,452.11a27.08,27.08,0,0,1-1.22,14.41,42.56,42.56,0,0,1-3.28,7.21,75.19,75.19,0,0,0-3.73,7.27A62.22,62.22,0,0,0,305,497.56l0,.39h-.38l-11.52.19-12.08.19h-.43v-.43c-.2-5.87-2.84-11.21-5.61-15.95-1.4-2.39-2.93-4.63-4.37-6.9a67.16,67.16,0,0,1-4.09-6.68,22.45,22.45,0,0,1-1.83-14.21,30.18,30.18,0,0,1,4.5-11.62,22.45,22.45,0,0,1,7.59-6.84,28.51,28.51,0,0,1,7.17-2.77,31.24,31.24,0,0,1,4.76-.78c.55,0,1,0,1.25,0a1.44,1.44,0,0,1,.43,0,1.65,1.65,0,0,1-.42.06l-1.24.13a34.63,34.63,0,0,0-4.7.92,28.56,28.56,0,0,0-7,2.86,22,22,0,0,0-7.34,6.77,29.7,29.7,0,0,0-4.3,11.41A21.83,21.83,0,0,0,267.17,468a67.93,67.93,0,0,0,4.09,6.59c1.42,2.24,3,4.5,4.4,6.9,2.81,4.79,5.54,10.2,5.76,16.36l-.45-.42,12.09-.2,11.52-.18-.43.39a62.72,62.72,0,0,1,4.82-16.8,75.47,75.47,0,0,1,3.79-7.34,41.38,41.38,0,0,0,3.25-7.06,26.54,26.54,0,0,0,1.29-14,27.74,27.74,0,0,0-5.37-11,24.15,24.15,0,0,0-7.83-6.34,26.85,26.85,0,0,0-7.26-2.3,33.21,33.21,0,0,0-4.81-.4l-1.25,0A1.28,1.28,0,0,1,290.35,432.13Z"/>
                <path class="cls-3"
                      d="M296.33,496.94s0-.13-.07-.37-.1-.62-.18-1.08c-.15-1-.36-2.37-.63-4.17-.53-3.62-1.3-8.86-1.83-15.39-.12-1.63-.24-3.34-.3-5.12s-.13-3.65,0-5.58a15.69,15.69,0,0,1,1.31-5.84,8.85,8.85,0,0,1,4.45-4.45,5.93,5.93,0,0,1,6.35,1.21,4.41,4.41,0,0,1,1.36,3.19,5.64,5.64,0,0,1-1.19,3.34,7.64,7.64,0,0,1-2.8,2.27,15.2,15.2,0,0,1-3.47,1.15,42.65,42.65,0,0,1-7.36.86,43.36,43.36,0,0,1-7.41-.36,13.81,13.81,0,0,1-3.52-1,9,9,0,0,1-2.94-2.09,6.87,6.87,0,0,1-1.69-3.12,5.25,5.25,0,0,1,.42-3.45,4.69,4.69,0,0,1,2.44-2.38,4.21,4.21,0,0,1,3.32.16,6.34,6.34,0,0,1,2.48,2.1,8.46,8.46,0,0,1,1.23,2.91,34.45,34.45,0,0,1,.59,6c.2,3.84.39,7.42.56,10.69.33,6.52.6,11.8.78,15.47.09,1.81.15,3.23.2,4.2,0,.47,0,.84,0,1.1v.37s0-.12,0-.37,0-.62-.08-1.09c-.06-1-.15-2.39-.26-4.2-.21-3.67-.52-8.95-.89-15.47-.19-3.27-.39-6.84-.61-10.68a34.32,34.32,0,0,0-.6-5.9,8.29,8.29,0,0,0-1.19-2.79,6,6,0,0,0-2.35-2,3.88,3.88,0,0,0-3.06-.14,4.37,4.37,0,0,0-2.25,2.21,4.92,4.92,0,0,0-.38,3.23,6.36,6.36,0,0,0,1.61,2.95,10.5,10.5,0,0,0,6.24,3,42.55,42.55,0,0,0,7.34.35,41.73,41.73,0,0,0,7.3-.84,15,15,0,0,0,3.39-1.12,7.37,7.37,0,0,0,2.68-2.16,5.34,5.34,0,0,0,1.12-3.13,4.08,4.08,0,0,0-1.25-2.95,5.61,5.61,0,0,0-6-1.14,8.52,8.52,0,0,0-4.29,4.28,15.25,15.25,0,0,0-1.3,5.72c-.11,1.9,0,3.76,0,5.54s.16,3.5.28,5.13c.49,6.51,1.23,11.76,1.71,15.38l.56,4.18q.09.69.15,1.08Z"/>
                <path class="cls-3"
                      d="M281,497.55a38.47,38.47,0,0,1,.3,3.88q.23,4.21.52,10.11l-.09-.25,7.85,9.05-.4-.17,9.08-.51-.38.19,4.52-5.52c.76-.93,1.52-1.86,2.27-2.76l-.13.35c-.12-5.32-.23-10.36-.34-14.95l.5.47-17,.18h-4.9a12.28,12.28,0,0,1-1.83-.07,7.67,7.67,0,0,1,1.62-.15l4.78-.25,17.27-.68.48,0,0,.49c.14,4.59.29,9.63.45,14.95v.2l-.12.16L303.2,515l-4.53,5.51-.15.18-.24,0-9.08.44H289l-.15-.18-7.71-9.18-.09-.11v-.14c0-4-.08-7.48-.1-10.37A30.65,30.65,0,0,1,281,497.55Z"/>
                <path class="cls-3"
                      d="M304.41,510.69a4.69,4.69,0,0,1-.86-.36c-.55-.25-1.35-.59-2.36-.94a23.07,23.07,0,0,0-16.31.5c-1,.41-1.77.8-2.3,1.08a4.58,4.58,0,0,1-.83.41,3.56,3.56,0,0,1,.76-.54,18.63,18.63,0,0,1,2.27-1.18,21.77,21.77,0,0,1,16.5-.51,18.56,18.56,0,0,1,2.33,1.05A4.37,4.37,0,0,1,304.41,510.69Z"/>
                <path class="cls-3"
                      d="M304.4,507.06a6.48,6.48,0,0,1-.86-.37c-.54-.24-1.34-.58-2.35-.93a22.93,22.93,0,0,0-16.31.5c-1,.41-1.77.79-2.3,1.07a5.69,5.69,0,0,1-.84.42,4.32,4.32,0,0,1,.77-.54,20.53,20.53,0,0,1,2.26-1.19,21.83,21.83,0,0,1,16.5-.5,18.56,18.56,0,0,1,2.33,1.05A3.45,3.45,0,0,1,304.4,507.06Z"/>
                <path class="cls-3"
                      d="M304.19,503.6a4.17,4.17,0,0,1-.86-.36,24.81,24.81,0,0,0-2.36-.93,23,23,0,0,0-16.31.49c-1,.41-1.76.8-2.29,1.08a4.43,4.43,0,0,1-.84.41,4.91,4.91,0,0,1,.77-.53,18.17,18.17,0,0,1,2.26-1.19,21.83,21.83,0,0,1,16.5-.5,18.78,18.78,0,0,1,2.33,1A4.37,4.37,0,0,1,304.19,503.6Z"/>
                <path class="cls-6" d="M103,266.92s.79,93,5.52,121.39l116.66-5.52s-10.24-91.44-6.3-115.87Z"/>
                <path class="cls-3"
                      d="M201.24,306c0,.63-17.45,2.19-39.07,3.49S123,311.33,123,310.7s17.46-2.2,39.08-3.5S201.21,305.36,201.24,306Z"/>
                <path class="cls-3"
                      d="M201.27,325.69c0,.63-17.45,2.2-39.07,3.5S123,331,123,330.4s17.45-2.2,39.07-3.5S201.24,325.06,201.27,325.69Z"/>
                <path class="cls-3"
                      d="M181.44,345c0,.64-9.91,1.75-22.23,2.49s-22.33.83-22.37.2,9.91-1.74,22.23-2.49S181.41,344.4,181.44,345Z"/>
                <path class="cls-6" d="M97.43,540.58s.78,93,5.51,121.4l116.67-5.52S209.36,565,213.3,540.58Z"/>
                <path class="cls-3"
                      d="M195.72,579.65c0,.63-17.46,2.2-39.07,3.5s-39.18,1.84-39.22,1.21,17.46-2.19,39.08-3.49S195.68,579,195.72,579.65Z"/>
                <path class="cls-3"
                      d="M195.75,599.35c0,.64-17.46,2.2-39.07,3.5s-39.18,1.84-39.22,1.21,17.46-2.19,39.08-3.49S195.71,598.72,195.75,599.35Z"/>
                <path class="cls-3"
                      d="M175.92,618.7c0,.63-9.92,1.74-22.23,2.48s-22.34.83-22.37.2,9.91-1.74,22.23-2.48S175.88,618.07,175.92,618.7Z"/>
                <polygon class="cls-6" points="416.26 291.57 427.81 559.86 762.74 563.9 747.7 295.12 416.26 291.57"/>
                <rect class="cls-7" x="412.38" y="289.65" width="332.7" height="251.22"/>
                <path class="cls-4"
                      d="M745.07,540.87s-.07-1.62-.1-4.66-.06-7.59-.11-13.41c-.05-11.78-.14-28.94-.24-50.83-.12-43.81-.28-106.49-.49-182.32l.94.94-332.67.2h0l1.14-1.14c0,90.35-.08,175.9-.11,251.22l-1-1,240,.52,68.25.27,18.14.13,4.69.06c1.06,0,1.63.06,1.63.06s-.49,0-1.51.06L739,541l-17.94.12-68,.27-240.65.52h-1v-1c0-75.32-.07-160.87-.11-251.22V288.5h1.17l332.67.21H746v.94c-.2,76.08-.37,139-.49,182.91-.1,21.8-.18,38.89-.24,50.62,0,5.74-.08,10.16-.11,13.23S745.07,540.87,745.07,540.87Z"/>
                <rect class="cls-7" x="452.51" y="342.87" width="134.87" height="169.73"/>
                <path class="cls-4"
                      d="M587.38,512.6a5.31,5.31,0,0,1-.06-.86c0-.64,0-1.42-.06-2.41q0-3.36-.12-9.28c-.07-8.2-.16-20-.28-34.82-.12-29.88-.3-72.16-.51-122.36l1,1L452.52,344c-.27.24,2.16-2.15,1.13-1.11v23.31q0,11.57,0,22.87c0,15.07,0,29.78,0,44-.05,28.51-.1,55.23-.14,79.48l-.95-1,97.65.49,27.39.25,7.27.11c1.65,0,2.56.1,2.56.1a18.18,18.18,0,0,1-2.36.11l-7.08.1-27.19.25-98.24.49h-.95v-1c0-24.25-.09-51-.14-79.48,0-14.26,0-29,0-44q0-11.31,0-22.87V342.9c-1,1,1.38-1.43,1.15-1.18l134.86.12h1v1c-.21,50.47-.39,93-.51,123-.12,14.76-.21,26.44-.27,34.59,0,3.87-.1,6.89-.12,9.08,0,.94,0,1.69-.06,2.3A3.08,3.08,0,0,1,587.38,512.6Z"/>
                <rect class="cls-7" x="457.68" y="304.03" width="258.47" height="24.46"/>
                <path class="cls-4"
                      d="M716.14,328.49a13.14,13.14,0,0,1-.09-1.68c0-1.19-.06-2.76-.11-4.74-.06-4.25-.15-10.29-.26-18l.46.46c-43.59.4-142.94.68-258.45.68h0c2.28-2.28.63-.63,1.14-1.13h0v24.45l-1.14-1.14,183.2.48,55,.34,15,.16,3.92.08a8.44,8.44,0,0,1,1.39.08,7.39,7.39,0,0,1-1.23.07l-3.77.08-14.71.16-54.72.34-184,.49h-1.14v-1.14c0-3.9,0-7.92,0-12V304h0l1.15-1.15h0c115.51,0,214.86.28,258.45.68h.47V304c-.11,7.87-.2,14-.26,18.31-.05,1.94-.08,3.47-.11,4.64A8.79,8.79,0,0,1,716.14,328.49Z"/>
                <rect class="cls-7" x="603.89" y="342.87" width="112.25" height="102.3"/>
                <path class="cls-4"
                      d="M716.14,445.17a15.09,15.09,0,0,1-.11-2c0-1.42-.06-3.25-.11-5.55-.06-5-.15-12-.25-20.86-.12-18-.3-43.41-.5-73.91l1,1L603.9,344c-.26.25,2.15-2.16,1.13-1.12v13.83q0,6.88,0,13.63,0,13.48,0,26.39c0,17.15-.08,33.41-.11,48.43l-1-1,81,.51,23,.26,6.13.12a16.65,16.65,0,0,1,2.18.12,14,14,0,0,1-2,.11l-5.93.12-22.75.26-81.61.51h-1v-1c0-15-.06-31.28-.1-48.43q0-12.89,0-26.39V356.72q0-3.44,0-6.9v-6.93c-1,1,1.39-1.42,1.16-1.17l112.24.17h1v1c-.2,30.76-.37,56.38-.5,74.53-.1,8.75-.19,15.69-.25,20.63,0,2.23-.08,4-.11,5.37A10.06,10.06,0,0,1,716.14,445.17Z"/>
                <rect class="cls-7" x="603.89" y="461.2" width="112.25" height="51.4"/>
                <path class="cls-4"
                      d="M716.14,512.6a35.53,35.53,0,0,1-.18-3.73c-.05-2.58-.12-6-.2-10.32-.11-9.06-.26-21.76-.45-37.35l.83.83-112.24.32c-1,1,1.38-1.4,1.13-1.14h0v13.39q0,6.63,0,13.09c0,8.59,0,16.93,0,24.9l-1.08-1.08,80.27.51,23.39.3,6.32.14a16.79,16.79,0,0,1,2.27.13,9.64,9.64,0,0,1-2,.13l-6.1.14-23.14.3-81,.52H602.8V512.6c0-8,0-16.31,0-24.9q0-6.45,0-13.09V461.22h0c-.25.24,2.17-2.17,1.16-1.15l112.24.31H717v.83c-.18,15.8-.34,28.67-.44,37.86q-.13,6.33-.21,10.14A22.83,22.83,0,0,1,716.14,512.6Z"/>
                <path class="cls-3" d="M584,343.16c-41.75,57.67-89.78,111.77-131.53,169.44"/>
                <path class="cls-4"
                      d="M452.51,512.6a8.56,8.56,0,0,1,1.1-1.89l3.53-5.17c3.08-4.47,7.7-10.83,13.5-18.62,11.59-15.59,28.17-36.68,46.74-59.75s35.34-44,47.25-59.31c5.77-7.46,10.53-13.6,14.07-18.16,1.54-2,2.82-3.58,3.86-4.92a8.74,8.74,0,0,1,1.48-1.62,8.21,8.21,0,0,1-1.1,1.9c-1,1.39-2.12,3.1-3.53,5.16-3.08,4.47-7.7,10.83-13.5,18.62-11.58,15.59-28.17,36.69-46.75,59.76s-35.33,44-47.24,59.3l-14.07,18.17L454,511C453.08,512.09,452.57,512.65,452.51,512.6Z"/>
                <line class="cls-3" x1="452.51" y1="342.87" x2="587.38" y2="512.6"/>
                <path class="cls-4"
                      d="M587.38,512.6c-.5.39-31.09-37.29-68.33-84.15s-67-85.19-66.54-85.58,31.08,37.28,68.33,84.16S587.87,512.21,587.38,512.6Z"/>
                <path class="cls-4" d="M427.81,343.23a21.1,21.1,0,1,1-21.1-21.1A21.1,21.1,0,0,1,427.81,343.23Z"/>
                <path class="cls-4" d="M772.89,292a21.1,21.1,0,1,1-21.1-21.1A21.1,21.1,0,0,1,772.89,292Z"/>
                <rect class="cls-4" x="1355.08" y="438.97" width="243.14" height="352.42"/>
                <rect class="cls-7" x="1342.9" y="438.97" width="243.14" height="352.42"/>
                <rect class="cls-3" x="1373.11" y="477.14" width="182.72" height="276.08"/>
                <path class="cls-4"
                      d="M1555.83,753.22s0-.46,0-1.35,0-2.21,0-3.91c0-3.47,0-8.55-.07-15.14,0-13.24-.1-32.52-.17-56.88-.07-48.68-.17-117.62-.29-198.8l.6.61-182.7.05h0l.66-.66c0,104.15-.1,200.18-.13,276.08l-.53-.52,133,.27,36.74.14,9.65.06c2.18,0,3.33.05,3.33.05s-1.07,0-3.22.06l-9.55.06-36.62.13-133.33.28h-.53v-.53c0-75.9-.08-171.93-.13-276.08v-.66h.68l182.7.06h.61v.6c-.12,81.35-.23,150.42-.3,199.2-.07,24.3-.12,43.54-.16,56.74,0,6.54-.06,11.58-.08,15q0,2.5,0,3.84C1555.86,752.8,1555.83,753.22,1555.83,753.22Z"/>
                <path class="cls-4"
                      d="M1586.72,439c.15.11-1.51,2.52-4.33,6.3s-6.83,8.92-11.41,14.47-8.85,10.48-12,14-5.21,5.58-5.35,5.46,1.66-2.42,4.65-6.07l11.7-14.2,11.7-14.21C1584.67,441.07,1586.58,438.86,1586.72,439Z"/>
                <path class="cls-3" d="M1556.76,752.33a226.33,226.33,0,0,0,31.87,39.86"/>
                <path class="cls-4"
                      d="M1588.63,792.19c-.12.12-2.29-1.76-5.55-5.05a179,179,0,0,1-22.61-28.27c-2.49-3.92-3.85-6.45-3.71-6.54s1.8,2.25,4.49,6,6.44,8.91,10.84,14.41,8.59,10.3,11.67,13.75S1588.77,792.05,1588.63,792.19Z"/>
                <path class="cls-3" d="M1342.87,791.11l31.84-39.29"/>
                <path class="cls-4"
                      d="M1374.71,751.82c.29.23-6.61,9.21-15.4,20.06s-16.16,19.46-16.44,19.23,6.61-9.21,15.41-20.06S1374.43,751.59,1374.71,751.82Z"/>
                <path class="cls-4"
                      d="M1342.9,439c.29-.22,7.21,8,15.46,18.48s14.71,19.08,14.42,19.3-7.2-8-15.46-18.48S1342.62,439.2,1342.9,439Z"/>
                <rect class="cls-4" x="1437.72" y="533.2" width="61.18" height="173.72"/>
                <rect class="cls-4" x="1507.83" y="64.67" width="34.8" height="173.18"
                      transform="translate(-0.79 8.17) rotate(-0.31)"/>
                <rect class="cls-6" x="1206.1" y="65.27" width="90.13" height="95.61"
                      transform="translate(-0.59 6.7) rotate(-0.31)"/>
                <rect class="cls-7" x="1295.8" y="64.79" width="90.13" height="95.61"
                      transform="translate(-0.58 7.18) rotate(-0.31)"/>
                <path class="cls-4"
                      d="M1206,91.92c59.9.49,120,.14,179.84-.83a1,1,0,0,0,0-1.91c-59.9-.33-120,0-179.83,1.1a.82.82,0,0,0,0,1.64Z"/>
                <rect class="cls-6" x="1149.86" y="159.48" width="163.75" height="77.91"
                      transform="translate(-1.05 6.6) rotate(-0.31)"/>
                <rect class="cls-7" x="1312.83" y="158.61" width="163.75" height="77.91"
                      transform="translate(-1.04 7.47) rotate(-0.31)"/>
                <path class="cls-4"
                      d="M1149.77,181.59c108.78,1.23,217.94.13,326.72-1.61a1,1,0,0,0,0-1.92c-108.79-.57-218-.51-326.72,1.89a.82.82,0,0,0,0,1.64Z"/>
                <rect class="cls-4" x="1088.53" y="237.84" width="634.42" height="27.91"/>
                <rect class="cls-4" x="1192.4" y="251.26" width="25.75" height="95.25"/>
                <rect class="cls-4" x="1576.86" y="251.26" width="25.75" height="95.25"/>
                <rect class="cls-6" x="1541.96" y="0.09" width="34.8" height="238.19"
                      transform="translate(-0.62 8.36) rotate(-0.31)"/>
                <rect class="cls-7" x="1576.95" y="44.48" width="54.08" height="193.03"
                      transform="translate(-0.73 8.6) rotate(-0.31)"/>
                <path class="cls-4"
                      d="M1630.15,81.53c0,.51-12.11.93-27,.93s-27-.42-27-.93,12.1-.94,27-.94S1630.15,81,1630.15,81.53Z"/>
                <path class="cls-4"
                      d="M1630.15,73.42c0,.51-12.11.93-27,.93s-27-.42-27-.93,12.1-.94,27-.94S1630.15,72.9,1630.15,73.42Z"/>
                <path class="cls-4"
                      d="M1630.15,208.32c0,.52-12.11.94-27,.94s-27-.42-27-.94,12.1-.94,27-.94S1630.15,207.8,1630.15,208.32Z"/>
                <path class="cls-4"
                      d="M1630.15,200.21c0,.52-12.11.94-27,.94s-27-.42-27-.94,12.1-.94,27-.94S1630.15,199.69,1630.15,200.21Z"/>
                <path class="cls-4"
                      d="M1604,182.52c-.52,0-.94-19.47-.94-43.49s.42-43.5.94-43.5.94,19.47.94,43.5S1604.5,182.52,1604,182.52Z"/>
                <rect class="cls-6" x="1630.73" y="91.74" width="58.87" height="145.69"/>
                <path class="cls-5"
                      d="M1661.83,199.65c-7.74,0-13.15-5.51-13.15-13.1,0-4.12,1.58-7.7,4.76-9.83l1.34,1.83a9.47,9.47,0,0,0-3.87,8c0,6.1,4.37,10.57,10.92,10.57s10.92-4.47,10.92-10.57a9.47,9.47,0,0,0-3.87-8l1.34-1.83a11.47,11.47,0,0,1,4.76,9.83C1675,194.14,1669.52,199.65,1661.83,199.65Z"/>
                <path class="cls-5"
                      d="M1671.66,173.1l-2-1.14a15.07,15.07,0,0,0,3.13-9.33c0-5.46-1.94-7.65-4.87-7.65-7.54,0-2,17.18-12.16,17.18-3.92,0-7.09-3.28-7.09-9.83a15.92,15.92,0,0,1,2.53-8.89l2,1.15a13.32,13.32,0,0,0-2.33,7.79c0,5.06,2.08,7.3,4.86,7.3,7.8,0,2.29-17.18,12.16-17.18,4.23,0,7.1,3.62,7.1,10.22C1675,167,1673.54,171.06,1671.66,173.1Z"/>
                <path class="cls-5"
                      d="M1671.66,149.38l-2-1.14a15.1,15.1,0,0,0,3.13-9.34c0-5.46-1.94-7.64-4.87-7.64-7.54,0-2,17.17-12.16,17.17-3.92,0-7.09-3.27-7.09-9.82a15.9,15.9,0,0,1,2.53-8.89l2,1.14a13.37,13.37,0,0,0-2.33,7.8c0,5.06,2.08,7.29,4.86,7.29,7.8,0,2.29-17.17,12.16-17.17,4.23,0,7.1,3.62,7.1,10.22C1675,143.27,1673.54,147.34,1671.66,149.38Z"/>
                <circle class="cls-4" cx="1558.22" cy="40.67" r="10"/>
                <rect class="cls-4" x="1555.12" y="68.18" width="6.18" height="141.69"/>
                <path class="cls-8"
                      d="M1795.93,1716.64c0,.6-401.15,1.08-895.87,1.08-494.89,0-895.95-.48-895.95-1.08s401.06-1.08,896-1.08C1394.78,1715.56,1795.93,1716,1795.93,1716.64Z"/>
                <path class="cls-5"
                      d="M489.24,288.87C422.59,393.7,427,539,499.78,639.69,548.32,706.79,621.14,751.76,679,811s101.74,146.65,71.23,223.64c-31.07,78.37-122.06,110.26-190.2,159.9-74.22,54.07-126.35,137.6-142.32,228s4.4,186.75,55.61,263h707.79s124.33-237-35.52-417.54S899.84,1084.51,905.76,966.1s88.81-156.9,136.18-201.3,278.27-148,142.09-475.93Z"/>
                <path class="cls-8"
                      d="M489.24,288.87s4.11-.07,12.19-.1l35.88-.1,138.11-.2L1184,288.1h.52l.19.47c9.67,24.56,19.45,49.85,26.37,76.64,7.13,26.68,13,54.48,15,83.29s1.24,58.43-4.49,87.91a282.36,282.36,0,0,1-32,85.46A312,312,0,0,1,1163,660.56a360.54,360.54,0,0,1-32.6,34.88,484,484,0,0,1-37,31.33c-12.88,10-26.33,19.38-39.45,29.32-6.58,5-12.58,10.52-18.85,16.1s-12.78,10.74-19.32,16c-13.08,10.46-26.29,20.92-38.76,32.37-25.17,22.52-46.43,50.65-58.13,83.38a202.66,202.66,0,0,0-11.07,51c-.35,4.38-.94,8.74-1.1,13.14s-.34,8.81-.13,13.22a150.49,150.49,0,0,0,2.66,26.33A120.13,120.13,0,0,0,930.49,1056c10.47,14.58,23.36,27.41,36.71,39.75,26.88,24.57,55.38,48,82.68,73.34s54.08,51.77,79.74,79.71c12.73,14,25.68,28.12,36.81,43.76,11.51,15.35,21.17,32.13,29.67,49.48a324.75,324.75,0,0,1,30.48,112.24c3.65,39.12.86,79-6.89,118a486.07,486.07,0,0,1-15.19,57.88,421.88,421.88,0,0,1-22.47,55.91l-.29.58h-18.89l-689.57-.05h-.55l-.31-.46a364.92,364.92,0,0,1-59.26-167.07,352.29,352.29,0,0,1,24.48-168.64,367.31,367.31,0,0,1,93.56-133.64c19.77-18.09,41.8-32.89,63.88-46.59s44.38-26.4,65.45-40.29,41.2-28.73,57.61-46.86c16.47-18,29.06-39.1,35.65-61.8s6.69-46.55,2.82-69-11.85-43.8-21.88-63.42a309.68,309.68,0,0,0-35.63-54.11c-13.34-16.51-28.17-31.16-43.11-45-30-27.59-60.62-51.71-88.22-76.5-13.82-12.37-26.92-24.85-39-37.68a351.13,351.13,0,0,1-32.31-39.83A303.8,303.8,0,0,1,456,551.83a313.33,313.33,0,0,1-13.79-79.5c-.58-6.18-.35-12.24-.34-18.16s-.1-11.7.51-17.31q.66-8.43,1.27-16.44c.64-5.31,1.52-10.44,2.23-15.45,6.23-40.1,18.33-69.39,27.76-88.15a120.36,120.36,0,0,1,6.4-12.34l5.08-8.66c2.73-4.64,4.13-6.95,4.13-6.95l-4,7.08-5,8.68A123.7,123.7,0,0,0,474,317c-9.32,18.78-21.28,48.07-27.39,88.09-.7,5-1.56,10.13-2.19,15.43q-.58,8-1.22,16.4c-.6,5.6-.41,11.37-.47,17.28s-.21,11.95.38,18.11A313,313,0,0,0,457,551.54a302.83,302.83,0,0,0,40.48,83.57,349.87,349.87,0,0,0,32.26,39.65c12,12.78,25.12,25.22,38.94,37.55,27.6,24.73,58.28,48.81,88.33,76.42,15,13.83,29.88,28.52,43.3,45.09a311.68,311.68,0,0,1,35.85,54.34c10.1,19.72,18.1,41.14,22.08,63.85s3.89,46.72-2.8,69.72-19.37,44.35-36,62.5-36.87,33.21-57.91,47.18-43.41,26.65-65.46,40.35-43.94,28.43-63.59,46.43a365.35,365.35,0,0,0-93,133,350.25,350.25,0,0,0-24.28,167.72,363,363,0,0,0,59,166.11l-.86-.46,689.57,0h18.22l-1,.58a420.3,420.3,0,0,0,22.34-55.57,484.26,484.26,0,0,0,15.12-57.63c7.72-38.84,10.49-78.49,6.87-117.38A322.59,322.59,0,0,0,1194.17,1343a305.9,305.9,0,0,0-29.46-49.15c-11-15.53-23.92-29.56-36.65-43.58q-38.43-41.85-79.6-79.6c-27.26-25.3-55.71-48.71-82.66-73.37-13.38-12.38-26.37-25.29-37-40.06a122.26,122.26,0,0,1-21.57-49.29,153,153,0,0,1-2.69-26.68c-.21-4.46,0-8.9.14-13.34s.75-8.84,1.11-13.25A204.58,204.58,0,0,1,917,903.22c11.82-33.08,33.36-61.51,58.68-84.13,12.55-11.51,25.81-22,38.88-32.44,6.54-5.22,13-10.48,19.26-15.91s12.33-11.17,19-16.16c13.19-10,26.61-19.36,39.46-29.3a477,477,0,0,0,36.89-31.19,358,358,0,0,0,32.45-34.68A310,310,0,0,0,1188.12,621a281,281,0,0,0,31.84-84.9c5.71-29.3,6.66-58.83,4.53-87.45s-7.84-56.39-14.93-83c-6.88-26.72-16.61-51.95-26.24-76.47l.71.47-508.3-.37-138.23-.2-36-.1C493.42,288.93,489.24,288.87,489.24,288.87Z"/>
                <path class="cls-9"
                      d="M1155.78,481.14c104.25,17.13-60.11,201.76-153.15,274.62-53.87,42.18-111.73,87.93-137.31,151.39-29,72-7.51,152.93-21.58,225.35-2.34,12-20.11,10.13-19.93-2.12.69-47.53-.58-95.05-8.45-141.85-11.18-66.38-36.7-132-83.22-180.7-38-39.71-87.77-66.1-128.28-103.22C544.71,650.41,484,580.5,478,500.5c0,0,113.56-91.47,176.59-79.92C728.28,434.07,800.8,547.74,915,534.72,994.64,525.63,1034.86,461.26,1155.78,481.14Z"/>
                <path class="cls-9"
                      d="M1165,1469.36c-2.63-26.07-9.59-55.58-32.72-67.87-14-7.45-31.08-6.63-46.43-2.59s-29.78,11-45,15.54a147.45,147.45,0,0,1-92.06-2.92c-28.28-10.39-52.56-29.17-78.82-43.94s-57-25.77-86.25-18.49c-50.42,12.55-76.66,73.25-126.5,87.9-22.16,6.52-45.95,2.86-68.47-2.24s-45.13-11.65-68.21-10.79c-18.09.67-36.9,6.93-49.57,19.32l.13-.18c-.13.13-.24.27-.37.4a51.54,51.54,0,0,0-5.71,6.7c-15.46,20.61-17.93,48.33-13.18,73.5,5.33,28.18,18.49,54.22,32.62,79.18,16.64,29.4,35.54,58.67,63.06,78.27,33.94,24.18,76.62,7.49,118.17,10.77,96.9,7.64,201.16,12.86,298.08,5.35,51.19-4,99.17,1.58,139.8-29.83,28.58-22.09,47.16-55.4,56.13-90.4S1168.67,1505.3,1165,1469.36Z"/>
                <g class="cls-10">
                    <path d="M982.15,1419.43c-5.47,8.37-7.8,19.6-2.53,28.1s12.41,16.24,14.7,26c3.59,15.3-5.62,30.26-12.49,44.4-12.29,25.29-17.88,54.13-13.74,81.94s18.41,54.38,40.67,71.56c9.85,7.59,22.63,13.48,34.49,9.76,11.17-3.5,18.39-14.83,20.61-26.32s.39-23.33-1.07-34.94a543.48,543.48,0,0,1,4.1-162.29c1.58-8.95,3.1-19.16-2.57-26.25-3.62-4.53-9.39-6.66-14.89-8.5-21.6-7.19-44.91.8-67.28-3.44"/>
                </g>
                <path class="cls-8" d="M421.33,1717.72s-1.94-32.48,40.42-50.57h744.46s38.83,19.65,43.6,49.9Z"/>
                <path class="cls-8"
                      d="M1190.44,292.82l-1.18.55-700-4.5s-2.48-1.59-6.2-4.51c-20-15.6-8.76-47.64,16.56-47.43L1179,242.41C1207.07,242.64,1215.79,280.84,1190.44,292.82Z"/>
                <g class="cls-10">
                    <path d="M1078.4,559.85c1.41,2.7-3.84,8.54-13.88,17.45s-24.76,21.14-43.45,36.2-41.54,33-70.52,49.75a286,286,0,0,1-48.36,22.2,226.36,226.36,0,0,1-27.79,7.68,184.61,184.61,0,0,1-30,3.91A160.62,160.62,0,0,1,784,688.79c-18.66-6.47-34.57-15.6-48.49-24.75s-26-18.39-37.32-27.13-21.58-17.21-30.78-25.15c-36.77-31.86-56.11-55.29-52.38-59.81,3.85-4.7,29.88,10.2,70.44,35.13l33.14,20.34c11.89,7.25,24.68,15.24,37.72,22.63s26.73,14.12,40.89,18.48a130.46,130.46,0,0,0,45,5.3c31.89-1.62,62.83-12.86,89.64-25.8,26.94-13.18,51-28.1,72.05-39.87s39-20.69,52-25.36S1077.05,557.26,1078.4,559.85Z"/>
                </g>
                <path class="cls-9"
                      d="M824.33,1219.27c7.68-2.71,16.87,5,15.51,13.06s-12.56,12.32-18.94,7.25-4.69-17,2.83-20.08"/>
                <path class="cls-8"
                      d="M574,675.7a21.34,21.34,0,0,1-2.47-2.49l-6.78-7.44c-2.87-3.29-6.64-7.11-10.49-12L541,637.34c-4.52-6.38-9.64-13.26-14.79-20.88q-3.68-5.85-7.59-12.08c-1.28-2.09-2.68-4.15-3.92-6.34L511,591.3a280.27,280.27,0,0,1-25.79-62.09,261.21,261.21,0,0,1-9.79-66.54c0-5.17.27-10.22.39-15.13.11-2.45.07-4.88.31-7.24s.5-4.7.75-7c.52-4.57.89-9,1.5-13.24L480.6,408c1.18-7.75,3.23-14.54,4.7-20.58.8-3,1.42-5.83,2.21-8.36s1.58-4.82,2.27-6.92q2-6,3.2-9.54a20.55,20.55,0,0,1,1.25-3.28,21.44,21.44,0,0,1-.84,3.41q-1,3.6-2.81,9.65l-2.07,7c-.73,2.54-1.3,5.38-2,8.38-1.35,6-3.29,12.83-4.37,20.56l-2,12.05c-.56,4.21-.89,8.62-1.37,13.17-.22,2.28-.45,4.59-.68,6.95s-.17,4.76-.26,7.19c-.09,4.87-.34,9.89-.3,15a264.31,264.31,0,0,0,9.88,66,284,284,0,0,0,25.46,61.72l3.59,6.72c1.22,2.19,2.6,4.25,3.86,6.34l7.45,12.08c5.07,7.62,10.1,14.53,14.52,20.95L555.14,653c3.76,4.93,7.43,8.81,10.19,12.19l6.47,7.7A22.11,22.11,0,0,1,574,675.7Z"/>
                <path class="cls-8"
                      d="M534.53,1292.7a9.67,9.67,0,0,1,.78-1.37l2.47-3.9,4.09-6.32q1.21-1.87,2.62-4c1-1.38,2.21-2.76,3.42-4.26l8.15-10c3.2-3.44,6.86-7,10.7-10.93a287.42,287.42,0,0,1,28.52-24c22-16.71,50.48-33.31,81.31-52.69,15.3-9.84,31.4-20.22,46.63-32.84s29.94-27,41.84-44.22c23.47-34.89,33-75.3,33.83-111.43,1-36.4-6.8-68.82-15.92-94.67a352.41,352.41,0,0,0-27.51-59c-3.85-6.67-7-11.76-9.18-15.18L743.83,814a8.08,8.08,0,0,1-.77-1.38,9.61,9.61,0,0,1,1,1.26l2.62,3.8c2.3,3.35,5.58,8.37,9.54,15a337.05,337.05,0,0,1,28.23,58.91c9.35,25.9,17.31,58.51,16.47,95.22a216,216,0,0,1-2.29,28,206.18,206.18,0,0,1-6.08,28.69,195.79,195.79,0,0,1-25.66,55.9c-12.06,17.47-26.92,32-42.3,44.65s-31.54,23.07-46.9,32.89c-30.94,19.32-59.39,35.75-81.46,52.23a295.54,295.54,0,0,0-28.59,23.64c-3.86,3.86-7.55,7.37-10.78,10.76l-8.25,9.78c-1.23,1.48-2.44,2.83-3.49,4.18s-1.85,2.72-2.69,4l-4.24,6.18c-1.11,1.6-2,2.85-2.65,3.79A7.65,7.65,0,0,1,534.53,1292.7Z"/>
                <path class="cls-8"
                      d="M495.91,1366.09A8,8,0,0,1,495,1368l-3,5.29c-1.33,2.26-2.92,5-4.52,8.42s-3.71,7.06-5.46,11.42c-.93,2.16-1.91,4.41-2.92,6.75s-1.82,4.9-2.8,7.47c-2,5.13-3.6,10.81-5.39,16.74a224.3,224.3,0,0,0-7.33,79.83c.69,6.15,1.2,12,2.27,17.44.48,2.71.83,5.35,1.38,7.85s1.12,4.88,1.65,7.17c.93,4.61,2.29,8.63,3.29,12.22s2,6.64,2.91,9.11c.78,2.3,1.42,4.19,1.95,5.74a7.93,7.93,0,0,1,.54,2,7.81,7.81,0,0,1-.95-1.89c-.62-1.51-1.39-3.36-2.33-5.61a87.55,87.55,0,0,1-3.28-9c-1.11-3.58-2.58-7.6-3.61-12.22q-.87-3.45-1.8-7.19c-.6-2.51-1-5.17-1.52-7.89-1.15-5.45-1.74-11.36-2.48-17.57a216.48,216.48,0,0,1,7.39-80.55c1.86-6,3.51-11.68,5.63-16.82,1-2.59,1.89-5.13,2.94-7.48l3.07-6.75c1.85-4.35,4-8,5.78-11.36a85.5,85.5,0,0,1,4.87-8.28c1.32-2,2.42-3.72,3.31-5.09A7.93,7.93,0,0,1,495.91,1366.09Z"/>
                <path class="cls-8"
                      d="M1009.39,1465.9a3.84,3.84,0,0,1-.84.61l-2.59,1.62-10.08,6.06-7.31,4.33c-2.72,1.5-5.79,2.92-9,4.56-6.53,3.15-13.79,7.17-22.34,10.4l-13.28,5.44c-4.63,1.86-9.62,3.29-14.7,5-10.11,3.69-21.3,6.32-33,9.37a387.72,387.72,0,0,1-156.2,4.08c-11.84-2.43-23.15-4.48-33.44-7.64-5.16-1.49-10.23-2.66-15-4.27l-13.54-4.74c-8.71-2.79-16.16-6.41-22.85-9.22-3.32-1.47-6.45-2.73-9.25-4.09l-7.52-3.94L628.1,1478l-2.67-1.48a3.77,3.77,0,0,1-.87-.57,3.92,3.92,0,0,1,1,.37l2.77,1.3,10.54,5.15,7.59,3.76c2.82,1.3,6,2.5,9.29,3.91,6.71,2.69,14.18,6.21,22.89,8.89l13.52,4.59c4.71,1.56,9.77,2.69,14.92,4.13,10.26,3.07,21.53,5,33.32,7.41a394.06,394.06,0,0,0,155.41-4.06c11.65-3,22.8-5.53,32.88-9.14,5.07-1.71,10.06-3.1,14.68-4.9l13.27-5.29c8.56-3.13,15.83-7,22.39-10.07,3.25-1.58,6.33-3,9.07-4.39l7.39-4.16,10.26-5.69,2.7-1.44A3.93,3.93,0,0,1,1009.39,1465.9Z"/>
                <path class="cls-8"
                      d="M1052.71,586.93a5.58,5.58,0,0,1-.89.82L1049.1,590l-10.6,8.47c-9.24,7.3-22.6,17.9-39.48,30.52s-37.41,27.17-61.78,40.83c-12.3,6.58-25.4,13.29-39.79,18.31a181.5,181.5,0,0,1-45.92,10.22c-32.45,2.19-63.21-6-88.24-18.35a300,300,0,0,1-34.07-20.27c-10.14-7.16-19.4-14.08-27.59-20.72-16.45-13.19-29.33-24.36-38.28-32l-10.26-8.87-2.64-2.35a5.47,5.47,0,0,1-.85-.86,5.13,5.13,0,0,1,1,.69l2.77,2.18,10.52,8.56C673,613.8,686,624.79,702.58,637.8c8.23,6.55,17.51,13.38,27.65,20.44a305.26,305.26,0,0,0,33.94,20c24.83,12.11,55.22,20.14,87.2,18a180.61,180.61,0,0,0,45.36-10c14.27-5,27.3-11.58,39.55-18.06,24.29-13.5,44.83-28,61.83-40.32s30.47-22.86,39.87-30l10.85-8.14,2.86-2.08A4.81,4.81,0,0,1,1052.71,586.93Z"/>
                <g class="cls-10">
                    <path d="M678.14,1500.78c19.68-15.19,47.33-11.51,71.67-6.39s48.84,13.43,73.46,10c18.56-2.59,35.58-11.72,53.89-15.69s40.53-1,50.69,14.71a394.5,394.5,0,0,1-249.71-2.61"/>
                </g>
                <path class="cls-9"
                      d="M1365,1388.08l-89.45-100.14-.9,121.73,26.92,78.08L1034,1534.16l-11.35-211.1-19.26-162.13a44,44,0,0,1,27.59-46.16l73.63-29,103.7,19,41.72,15.86a114.42,114.42,0,0,1,45.46,31.62L1421,1295.89"/>
                <path class="cls-3"
                      d="M1269.23,1264c0-.43,5.89.44,15.11-1.06a61.35,61.35,0,0,0,50.29-46.38c2.24-9.07,1.85-15,2.28-15,.13,0,.34,1.45.38,4.11a53,53,0,0,1-1.17,11.2,60,60,0,0,1-51.56,47.55,53.2,53.2,0,0,1-11.26.26C1270.65,1264.44,1269.21,1264.12,1269.23,1264Z"/>
                <path class="cls-8"
                      d="M1277.05,1404.49c.63,0,.79-42.18.37-94.18s-1.28-94.18-1.91-94.18-.78,42.17-.36,94.19S1276.43,1404.49,1277.05,1404.49Z"/>
                <path class="cls-9"
                      d="M1267.25,1435.43l-161.66-65.08a36.93,36.93,0,0,1-23-31.45l-11.83-155s1.4-65.92-39.77-69.13l-23.43,9.23c-30.27,16.08-37.77,60.15-33.65,94.18,5.86,48.36,8.3,116.79,14.85,158.75,5.36,34.33,25,64.53,58.62,73.37l199.12,43.11Z"/>
                <path class="cls-8"
                      d="M1073,1207.55a22.28,22.28,0,0,1,.51,3.55c.26,2.52.6,5.93,1,10.21.82,9.08,2,21.87,3.42,37.59,1.37,15.94,3,34.82,4.79,55.76l1.35,16.12c.48,5.5.82,11.13,2.07,16.59a27.47,27.47,0,0,0,8,14.52c4.2,3.93,9.44,6.8,14.92,9.29,44.58,19.28,85.66,35.21,115.48,46.38l35.41,13,9.63,3.55a22.83,22.83,0,0,1,3.31,1.37,22.16,22.16,0,0,1-3.45-1l-9.77-3.17c-8.46-2.8-20.65-7-35.65-12.4-30-10.82-71.15-26.51-115.86-45.86-5.56-2.53-11-5.49-15.5-9.68a29.71,29.71,0,0,1-8.62-15.61c-1.29-5.74-1.59-11.4-2.05-16.88l-1.29-16.13c-1.62-21-3.09-39.87-4.33-55.82-1.14-15.74-2.07-28.55-2.73-37.65-.27-4.29-.48-7.71-.64-10.24A21.05,21.05,0,0,1,1073,1207.55Z"/>
                <path class="cls-8"
                      d="M980.42,1291.81a8.61,8.61,0,0,1,.32,2.08c.14,1.61.32,3.59.53,6,.48,5.52,1.13,13,1.92,22,.88,9.28,2,20.32,3.62,32.52s3.63,25.62,7.3,39.27a58.49,58.49,0,0,0,7.89,18.71,107.24,107.24,0,0,0,12.08,14.84,103.08,103.08,0,0,0,25.87,19.41c16.54,8.6,28.56,8.72,28.39,9.3a8.2,8.2,0,0,1-2.1-.05,44.77,44.77,0,0,1-6-.77,79.06,79.06,0,0,1-21-7.12,101.22,101.22,0,0,1-26.59-19.37,106.2,106.2,0,0,1-12.42-15,60.07,60.07,0,0,1-8.21-19.33c-3.73-13.85-5.63-27.34-7.2-39.58s-2.47-23.34-3.17-32.65-1-16.85-1.23-22.07c0-2.4-.09-4.39-.13-6A7.12,7.12,0,0,1,980.42,1291.81Z"/>
                <path class="cls-8"
                      d="M1049.55,1400.27c-.22-.07.46-3.52,2.94-8.62a55.62,55.62,0,0,1,32.8-28c5.42-1.65,8.94-1.79,9-1.56s-3.33,1-8.47,3a62.93,62.93,0,0,0-32,27.29C1051.09,1397.14,1049.89,1400.39,1049.55,1400.27Z"/>
                <path class="cls-3"
                      d="M1081.34,1282.39a4.22,4.22,0,0,1,1,.46l2.89,1.51a100.19,100.19,0,0,0,11.54,4.89,91.37,91.37,0,0,0,45.31,3.88c19-3.11,41-14.29,56.32-35,7.57-10.22,13.42-22.82,14.75-36.62a50,50,0,0,0-2.15-20.73,42.11,42.11,0,0,0-11.66-17.81,35.24,35.24,0,0,0-19-9.22c-6.87-1.09-14.24.73-19,5.34a12.26,12.26,0,0,0-3.71,8.61,15,15,0,0,0,3.13,8.88c3.82,5.23,10.28,7.67,16.44,8.58a66.69,66.69,0,0,0,35.34-5.05,65.6,65.6,0,0,0,37.22-41.62,70.14,70.14,0,0,0,3.08-19.45,74,74,0,0,0-.91-12.47c-.24-1.31-.43-2.37-.59-3.21a4.68,4.68,0,0,1-.14-1.12s2.29,5.77,2.48,16.8a69.26,69.26,0,0,1-2.76,19.79,67.7,67.7,0,0,1-12.15,23.51,69.07,69.07,0,0,1-61.87,24.79c-6.42-.92-13.46-3.45-17.8-9.31a17.05,17.05,0,0,1-3.56-10.12,14.33,14.33,0,0,1,4.3-10.1c5.42-5.25,13.43-7.11,20.81-6a37.28,37.28,0,0,1,20.14,9.75,44.25,44.25,0,0,1,12.25,18.73,52,52,0,0,1,2.22,21.61c-1.41,14.29-7.48,27.18-15.26,37.61-15.71,21.11-38.31,32.35-57.67,35.31a90.31,90.31,0,0,1-45.85-4.58C1086.23,1286.12,1081.34,1282.39,1081.34,1282.39Z"/>
                <path class="cls-3"
                      d="M975.45,1241.05c-.1-.09.8-1.3,2.65-3.31a60.42,60.42,0,0,1,8.74-7.6c7.84-5.9,20.84-11.26,35.76-12.67a68.9,68.9,0,0,1,21.08.89,64.47,64.47,0,0,1,16.24,5.7,72,72,0,0,1,9.88,6c2.19,1.62,3.32,2.61,3.24,2.73-.23.34-5.06-3.32-13.78-7.37a67.83,67.83,0,0,0-36.43-5.82c-14.63,1.39-27.23,6.35-35.13,11.78S975.74,1241.36,975.45,1241.05Z"/>
                <path class="cls-3"
                      d="M1001.3,1130.22c.34-.36,4.16,4.93,13.09,9.51a47.11,47.11,0,0,0,16.65,4.89,41.7,41.7,0,0,0,37.65-15.58,47.09,47.09,0,0,0,8.34-15.23c3.07-9.56,2-16,2.53-16,.12,0,.44,1.55.54,4.41a40.05,40.05,0,0,1-1.61,12,46.18,46.18,0,0,1-8.24,16,42.59,42.59,0,0,1-39.42,16.31,45.87,45.87,0,0,1-17.16-5.52,40,40,0,0,1-9.63-7.36C1002.08,1131.62,1001.21,1130.29,1001.3,1130.22Z"/>
                <path class="cls-3"
                      d="M1142.18,1385.09a16.36,16.36,0,0,1,.34-3.07,33.68,33.68,0,0,1,2.86-8.36c3.27-7,11.39-15.69,24.2-21,12.64-5.68,30-6.77,47.53-1.7,8.55,2.54,18.36,5.68,24.77,14a15,15,0,0,1,1.82,15.2c-2.29,5-6.79,8.46-11.52,10.87a36.63,36.63,0,0,1-15.3,3.79c-5.21.1-10.64-1.19-14.7-4.56a18.76,18.76,0,0,1-6.58-13.32,33.36,33.36,0,0,1,2.2-14c6.89-17.3,20.82-28.29,33.32-33.73a65.42,65.42,0,0,1,31.8-5.47c7.66.79,11.62,2.45,11.62,2.45-.06.28-4.11-1.09-11.68-1.61a66.75,66.75,0,0,0-31.11,6,65.15,65.15,0,0,0-18.14,12.31,58.08,58.08,0,0,0-13.93,20.71,31.45,31.45,0,0,0-2,13.15,16.7,16.7,0,0,0,5.86,11.85c3.57,2.95,8.46,4.15,13.32,4a34.69,34.69,0,0,0,14.38-3.58c4.45-2.25,8.56-5.5,10.52-9.82a12.85,12.85,0,0,0-1.58-13.08c-2.73-3.77-6.73-6.49-10.81-8.59a78,78,0,0,0-12.78-4.76c-17.15-5.06-34-4.15-46.4,1.2-12.59,5-20.62,13.31-24,20S1142.49,1385.17,1142.18,1385.09Z"/>
                <path class="cls-3"
                      d="M1034.54,1443.45c-.06-.41,6.17-.93,15.51-4.26a77.28,77.28,0,0,0,49.59-54.86c2.37-9.63,2.27-15.88,2.68-15.85.13,0,.28,1.55.23,4.36a64.64,64.64,0,0,1-1.42,11.83,74.57,74.57,0,0,1-50.59,56,64.72,64.72,0,0,1-11.63,2.6C1036.12,1443.58,1034.56,1443.58,1034.54,1443.45Z"/>
                <path class="cls-3"
                      d="M982.15,1323a7.69,7.69,0,0,1,2-.78c1.31-.43,3.24-1,5.78-1.67a69.56,69.56,0,0,1,22-2.23,45.7,45.7,0,0,1,15,3.7,34.47,34.47,0,0,1,14,11,28.76,28.76,0,0,1,5.43,18.85,23,23,0,0,1-3.21,10.11,16,16,0,0,1-8.47,7.08,11.18,11.18,0,0,1-10.93-2.16c-2.87-2.78-3.59-6.68-3.76-10.07a43.06,43.06,0,0,1,3.81-19.23,42,42,0,0,1,23.58-22.38,42.71,42.71,0,0,1,22-2.17,36.39,36.39,0,0,1,5.85,1.48,8.22,8.22,0,0,1,1.93.84c-.07.22-2.78-.86-7.9-1.49a43.85,43.85,0,0,0-21.31,2.77,40.79,40.79,0,0,0-22.31,21.76,41.43,41.43,0,0,0-3.52,18.31c.17,3.18.91,6.51,3.13,8.62a9,9,0,0,0,8.79,1.66,14,14,0,0,0,7.3-6.15,21,21,0,0,0,2.92-9.16,26.8,26.8,0,0,0-4.93-17.51,32.94,32.94,0,0,0-13.09-10.49,45.2,45.2,0,0,0-14.37-3.81,74.69,74.69,0,0,0-21.7,1.53C985,1322.38,982.2,1323.13,982.15,1323Z"/>
                <g class="cls-11">
                    <path d="M1220.8,1417c-17.29-9.77-34.2-17.27-52.28-25.48s-35.78-18.76-47.61-34.71c-22.31-30.07-19.77-73.47-42.6-103.14l4.47,59.86c1.37,18.29-1.44,36.37,10.34,48.8,9.93,10.47,29.28,18.5,43,23,27.52,9.08,57.17,22.57,84.7,31.65"/>
                </g>
                <path class="cls-9"
                      d="M1501.71,1644.76s135.26,37.44,140.69,39.35c8.15,2.87,6.78,32.72-5.9,32.26-6-.22-103.9,3.65-116.27,2.87s-49.69-15.48-49.69-15.48Z"/>
                <path class="cls-8"
                      d="M1558.05,1696.38c.68.09,1.6-7.07,6-14.53s10-11.91,9.56-12.45c-.24-.52-7,3.29-11.53,11.32S1557.48,1696.43,1558.05,1696.38Z"/>
                <path class="cls-8"
                      d="M1544,1690c.66.12,2-6.28,5.64-13.34s7.85-12,7.36-12.48-5.65,4-9.39,11.46S1543.37,1690,1544,1690Z"/>
                <path class="cls-8"
                      d="M1530.72,1686.44c.68,0,.16-6.8,3.17-14.29s7.84-12.16,7.36-12.65c-.27-.52-6.33,3.67-9.47,11.82S1530.17,1686.63,1530.72,1686.44Z"/>
                <path class="cls-8"
                      d="M1533.12,1669c.24.06,1.44-3.72,1.45-10.07a46.85,46.85,0,0,0-1.37-11,46,46,0,0,0-2-6.28,7.56,7.56,0,0,0-2.17-3.31,3.6,3.6,0,0,0-4.64.23,6,6,0,0,0-1.8,3.82,25.78,25.78,0,0,0-.18,3.58,29.25,29.25,0,0,0,.84,6.62,40.37,40.37,0,0,0,4.16,10.34c3.15,5.49,5.88,8.29,6.08,8.14s-2-3.37-4.66-8.88a44.39,44.39,0,0,1-3.55-10.06,29.42,29.42,0,0,1-.65-6.18c.06-2.08,0-4.68,1.25-5.67a1.3,1.3,0,0,1,1.78-.16,5.79,5.79,0,0,1,1.49,2.37,50.91,50.91,0,0,1,2,6A54.36,54.36,0,0,1,1533,1659C1533.37,1665.08,1532.75,1668.91,1533.12,1669Z"/>
                <path class="cls-8"
                      d="M1533,1667.59c.07-.25-3.2-1.37-8.72-1.41a39.64,39.64,0,0,0-9.6,1.18,21,21,0,0,0-5.52,2c-1.86.94-3.8,3.51-3.06,6.18a6.75,6.75,0,0,0,4.87,4.82,12.32,12.32,0,0,0,6.07,0,23.3,23.3,0,0,0,8.79-4.32c4.33-3.4,6.45-6,6.29-6.19s-2.8,1.93-7.21,4.88a24.25,24.25,0,0,1-8.3,3.59,10.73,10.73,0,0,1-5-.07,4.61,4.61,0,0,1-3.3-3.22c-.38-1.51.53-2.89,2-3.77a20.72,20.72,0,0,1,4.91-1.92,46.22,46.22,0,0,1,9.12-1.59C1529.58,1667.41,1532.9,1668,1533,1667.59Z"/>
                <path class="cls-8"
                      d="M1578.84,1697.83c.67-.08,0-5.86,2.67-12.21s7-10.06,6.62-10.58c-.22-.56-5.88,2.65-8.72,9.73S1578.29,1698.06,1578.84,1697.83Z"/>
                <path class="cls-8"
                      d="M1484.46,1704.07c-.06.14,1.79,1,5.23,2.46a117,117,0,0,0,15,4.67c12.94,3.26,31.38,5.11,51.64,4.89s38.54-1.15,51.79-1.68l15.67-.83c3.7-.24,5.74-.45,5.74-.61s-2.06-.24-5.76-.27l-15.7.11-51.75,1c-20.17.21-38.39-1.37-51.28-4.2C1492.16,1707,1484.61,1703.65,1484.46,1704.07Z"/>
                <path class="cls-8"
                      d="M1480.46,1707.15c.18.31,3.88-1.85,10.13-4.59s15.43-5.82,25.6-4.25,17.41,8.4,22.12,13.16c4.74,4.92,7.52,8.19,7.8,8s-2.11-3.76-6.62-9a54.4,54.4,0,0,0-9-8.39,32.22,32.22,0,0,0-14-5.92c-10.9-1.67-20.51,2-26.63,5S1480.32,1706.93,1480.46,1707.15Z"/>
                <path class="cls-9"
                      d="M1358.13,1607.42s-128,83.8-132.59,87.27c-6.9,5.21,1,30,13,25.72,5.65-2,113.06-31.91,124.61-36.41s42.64-29.84,42.64-29.84Z"/>
                <path class="cls-8"
                      d="M1320.11,1673.71c.57-.12-1.71-7.51-8.56-13.7s-14.35-7.86-14.42-7.29c-.24.64,6.55,3.08,12.89,9S1319.49,1674,1320.11,1673.71Z"/>
                <path class="cls-8"
                      d="M1331.61,1663.33c.54-.21-1.94-6.64-7.8-12.59s-12.21-8.6-12.43-8.06,5.29,4,10.81,9.65S1331,1663.64,1331.61,1663.33Z"/>
                <path class="cls-8"
                      d="M1343.14,1655.94c.58,0-.06-7.33-5.6-14.08s-12.52-9-12.62-8.39c-.3.61,5.83,3.5,10.86,9.81S1342.47,1656.1,1343.14,1655.94Z"/>
                <path class="cls-8"
                      d="M1335.54,1640c.34-.16-1.41-3.63-2.89-9.58a54.28,54.28,0,0,1-1.51-10.61,51.86,51.86,0,0,1,.14-6.31,5.73,5.73,0,0,1,.7-2.7,1.31,1.31,0,0,1,1.75-.4c1.46.58,2.22,3.07,2.91,5a29.45,29.45,0,0,1,1.25,6.09,44.09,44.09,0,0,1-.32,10.65c-.9,6.08-2.1,9.77-1.74,9.88s2-3.41,3.32-9.6a40.53,40.53,0,0,0,.82-11.12,30.37,30.37,0,0,0-1.21-6.56,25.91,25.91,0,0,0-1.26-3.35,6,6,0,0,0-2.88-3.1,3.61,3.61,0,0,0-4.49,1.19,7.57,7.57,0,0,0-1.06,3.82,46.78,46.78,0,0,0,0,6.59,47.45,47.45,0,0,0,2,10.93C1333,1636.92,1335.33,1640.15,1335.54,1640Z"/>
                <path class="cls-8"
                      d="M1335.29,1638.66c.16.33,3.16-1.2,8.31-2.45a45.41,45.41,0,0,1,9.17-1.26,20.44,20.44,0,0,1,5.26.34c1.68.39,3,1.42,3.06,3a4.6,4.6,0,0,1-2.16,4.07,10.77,10.77,0,0,1-4.76,1.59,24.2,24.2,0,0,1-9-.9c-5.09-1.47-8.2-2.81-8.34-2.47s2.71,2.07,7.87,4a23.17,23.17,0,0,0,9.68,1.45,12.33,12.33,0,0,0,5.79-1.83,6.75,6.75,0,0,0,3.18-6.08c-.11-2.76-2.74-4.62-4.79-5a21.31,21.31,0,0,0-5.89-.26,39.35,39.35,0,0,0-9.5,1.8C1337.92,1636.38,1335.15,1638.44,1335.29,1638.66Z"/>
                <path class="cls-8"
                      d="M1254.8,1715.73c.15.2,2.15-1.29,3.13-5s.4-9.07-2.4-13.89a51.37,51.37,0,0,0-4.28-6.39,23.47,23.47,0,0,0-4.35-4.66,7.62,7.62,0,0,0-4.09-1.71c-1.07,0-1.62.21-1.6.34,0,.36,2.29.19,4.66,2.59a29,29,0,0,1,3.69,4.67,71.85,71.85,0,0,1,4,6.25c2.59,4.51,3.36,9.18,2.81,12.48S1254.5,1715.51,1254.8,1715.73Z"/>
                <path class="cls-8"
                      d="M1300.75,1681.4c.59.06.41-6.44-4.51-12.27s-11.22-7.22-11.26-6.62c-.25.62,5.17,2.75,9.53,8.07S1300.09,1681.53,1300.75,1681.4Z"/>
                <path class="cls-8"
                      d="M1392.57,1658.68c-.11-.13-2.07,1.31-5.62,3.86a157.21,157.21,0,0,1-15.78,9.67,206.39,206.39,0,0,1-25.07,11.16c-9.69,3.62-20.56,7-32.06,10.36-23,6.63-43.88,12.69-58.92,17.21l-17.78,5.47c-4.19,1.33-6.48,2.14-6.44,2.3s2.42-.38,6.68-1.46l18-4.77c15.16-4.13,36.06-9.94,59.11-16.58,11.52-3.34,22.44-6.83,32.17-10.58a189.53,189.53,0,0,0,25.1-11.7,125.86,125.86,0,0,0,15.53-10.37C1390.89,1660.46,1392.66,1658.79,1392.57,1658.68Z"/>
                <path class="cls-8"
                      d="M1397.32,1660.41c.06-.26-4-1.75-10.85-2.89s-17-1.62-26.9,3.29a32.08,32.08,0,0,0-11.51,9.89,53.45,53.45,0,0,0-6,10.71c-2.7,6.41-3.81,10.53-3.56,10.63s2-3.82,5-10c3-6,7.84-14.68,17.08-19.26s19-4.37,25.68-3.72S1397.24,1660.76,1397.32,1660.41Z"/>
                <path class="cls-8"
                      d="M1624.13,1403s38.4,13.71,38.56,56.76c.31,82.48-166.65,173.39-166.65,173.39L1273.87,1486l-13.92-5.63S1559.86,1367.68,1624.13,1403Z"/>
                <path class="cls-12"
                      d="M1386.42,1560.32c.09.13,2.15-1.27,5.78-3.92s8.84-6.56,15.2-11.47c12.72-9.84,30-23.77,48.64-39.75s35-31,46.66-42.08c5.82-5.54,10.48-10.09,13.64-13.29s4.86-5,4.75-5.12-2,1.49-5.36,4.48l-14.12,12.75c-11.91,10.78-28.45,25.57-47,41.54s-35.71,30.07-48.17,40.21l-14.74,12C1388.19,1558.56,1386.32,1560.2,1386.42,1560.32Z"/>
                <path class="cls-12"
                      d="M1561.41,1433.85c.08-.55-9.83-1.52-21.41,2s-19.41,9.57-19,10c.37.59,8.47-4.57,19.68-7.82S1561.42,1434.55,1561.41,1433.85Z"/>
                <path class="cls-12"
                      d="M1542.27,1420.85c-.2-.53-7.32,2.6-13.17,9.91s-7.48,14.88-6.91,15c.64.23,3.07-6.69,8.67-13.54S1542.63,1421.44,1542.27,1420.85Z"/>
                <path class="cls-8"
                      d="M1636.34,1682c.12-.26-2.65-.79-5.72,1.74s-5.6,7.25-6.42,12.89a25.25,25.25,0,0,0,2,14.22c1.57,3.38,3.3,5,3.5,4.8s-.91-2.08-2-5.39a28.84,28.84,0,0,1-1.27-13.31c.76-5.18,2.88-9.66,5.25-12S1636.39,1682.36,1636.34,1682Z"/>
                <polygon class="cls-12"
                         points="1573.03 1268.29 1493.9 1468.87 1153.18 1474.43 1146.88 1455.99 1266.28 1451.66 1323.67 1273.72 1573.03 1268.29"/>
                <path class="cls-6"
                      d="M1413.91,1355.13c4.37-3,12.45-1.78,16.39,1.74a13.25,13.25,0,0,1,3.2,14.52,14.33,14.33,0,0,1-12.3,8.6c-5.61.3-11.45-3.21-13-8.6s.18-13.42,5.73-16.26"/>
                <path class="cls-8"
                      d="M1517.08,1643.2s-313.9-205.9-326.75-210.18-43.92-24.64-75-16.07-58.91,36.42-72.84,77.12c-8,23.25-11.71,62.93-13.47,92.68-2.11,35.58,8.9,71,32.17,98,10.59,12.28,23.65,23,39.14,27.79q4.9,1.51,10.15,2.65c59.35,12.87,120.34-13.78,153.68-64.53l7.33-11.15s205.34,75.44,208.55,74.37Z"/>
                <path class="cls-12"
                      d="M1128.73,1586.53s.57.29,1.73.76l5.13,2,19.9,7.66,74,27.86c31.42,11.72,69,25.65,111.27,41s89,32.2,139,49.12l.9.3.45-.85,24.52-46.83,12.5-23.89.48-.92-.87-.55-239.44-152-71.92-45.37-19.54-12.19-5.1-3.12c-1.15-.69-1.77-1-1.77-1s.54.43,1.65,1.18l5,3.3,19.31,12.54,71.55,46,239,152.59-.39-1.47-12.5,23.88c-8.4,16-16.67,31.85-24.51,46.84l1.35-.54c-50-16.88-96.76-33.65-139-48.87L1230,1623.44l-74.19-27.22-20-7.29-5.21-1.84C1129.35,1586.68,1128.73,1586.53,1128.73,1586.53Z"/>
                <path class="cls-8"
                      d="M1161.31,855.35c5.35-14.47,17.18-20.75,32.18-24.38a48.1,48.1,0,0,1,43,11.09c7.61,7,13.18,16.6,22.58,20.86,15.47,7,35.3-3.24,50,5.34A21.92,21.92,0,0,1,1295,908.88c10.08,4.76,12,19.94,5,28.66s-19.78,11.09-30.51,8.05-19.64-10.52-27.22-18.7-14.22-17.25-22.42-24.8-18.44-13.63-29.59-14c-15.08-.57-29,9.57-36.92,22.42s-10.87,28.09-13.08,43-3.87,30.17-9.63,44.13c-.67,1.63-1.64,3.45-3.38,3.81-2.5.53-4.34-2.25-5.34-4.6a221.55,221.55,0,0,1-17.71-84.33c-.18-16.79,1.7-32.5,12.13-45.67s34.47-21.35,45-11.48"/>
                <path class="cls-13"
                      d="M1125.91,922.35,1102.84,1090a50.35,50.35,0,0,0,45.49,57h0a50.39,50.39,0,0,0,54.29-43.38c1.72-12.62,3.18-23.15,3.45-24.43,0,0,43.24,1.86,52.13-40,4.3-20.21,9.77-62.57,14.27-100.94A79.66,79.66,0,0,0,1208.93,851l-4-.81C1160.75,844,1130.86,878.06,1125.91,922.35Z"/>
                <path class="cls-14" d="M1206.26,1078.67s-26.93-3.14-51.56-26.46c0,0,6.89,32.76,49.48,37.34Z"/>
                <path class="cls-8"
                      d="M1254.64,964a6.1,6.1,0,0,1-7,4.89,5.84,5.84,0,0,1-5.09-6.63,6.1,6.1,0,0,1,7-4.9A5.85,5.85,0,0,1,1254.64,964Z"/>
                <path class="cls-8"
                      d="M1259.35,957.13c-.9.63-4.77-3.64-11.21-4.91s-11.82,1-12.36.08c-.27-.41.77-1.67,3.12-2.76a16.76,16.76,0,0,1,10.09-1,16.08,16.08,0,0,1,8.73,4.88C1259.39,955.3,1259.78,956.85,1259.35,957.13Z"/>
                <path class="cls-8"
                      d="M1191,953.55a6.11,6.11,0,0,1-7,4.89,5.84,5.84,0,0,1-5.09-6.63,6.11,6.11,0,0,1,7-4.9A5.86,5.86,0,0,1,1191,953.55Z"/>
                <path class="cls-8"
                      d="M1195.77,945.67c-.9.63-4.77-3.63-11.21-4.9s-11.82,1-12.36.08c-.27-.42.76-1.68,3.13-2.76a16.72,16.72,0,0,1,10.08-1,16.07,16.07,0,0,1,8.73,4.87C1195.81,943.85,1196.2,945.4,1195.77,945.67Z"/>
                <path class="cls-8"
                      d="M1209.61,998.13c0-.37,4.18-.26,10.84.2,1.68.16,3.3.15,3.8-.92s.29-3-.12-5.1c-.75-4.29-1.54-8.78-2.36-13.5-3.2-19.19-5.16-34.83-4.38-34.95s4,15.33,7.18,34.52q1.13,7.08,2.14,13.53c.25,2,.9,4.33-.43,6.63a4.25,4.25,0,0,1-3.19,1.87,11.59,11.59,0,0,1-2.87-.17C1213.62,999.28,1209.56,998.5,1209.61,998.13Z"/>
                <path class="cls-8"
                      d="M1189.75,998.8c1.06.15-.32,7.15,4.67,13.31s12.6,6.87,12.46,7.86c0,.46-1.94,1-5.1.49a17.76,17.76,0,0,1-10.47-6.17,15.43,15.43,0,0,1-3.47-11.07C1188.16,1000.24,1189.28,998.66,1189.75,998.8Z"/>
                <path class="cls-8"
                      d="M1202.48,920.75c-1,1.63-7.26-.49-15-1.09s-14.27.24-15-1.53c-.3-.84,1.09-2.28,3.89-3.48a26.16,26.16,0,0,1,22.82,2C1201.8,918.32,1202.92,920,1202.48,920.75Z"/>
                <path class="cls-8"
                      d="M1260.7,938c-1.42,1.24-5.56-1.17-10.88-2.3-5.28-1.33-10-1-10.79-2.73-.31-.83.7-2.16,3-3.15a16.12,16.12,0,0,1,17.46,4.06C1261,935.76,1261.35,937.39,1260.7,938Z"/>
                <path class="cls-13"
                      d="M1123.13,954.08c-.65-.45-27.1-14.27-31.92,14.58s25.15,27.73,25.34,26.91S1123.13,954.08,1123.13,954.08Z"/>
                <path class="cls-14"
                      d="M1109.56,983.17c-.11-.12-.57.26-1.48.51a5.07,5.07,0,0,1-3.77-.55c-2.86-1.62-4.62-6.89-3.89-12.11a16.67,16.67,0,0,1,2.61-7c1.23-2,2.84-3.22,4.42-3.23a2.6,2.6,0,0,1,2.74,1.87c.25.87,0,1.42.11,1.49s.7-.38.67-1.61a3.27,3.27,0,0,0-.83-2,3.87,3.87,0,0,0-2.66-1.19c-2.25-.22-4.6,1.49-6,3.59a17.42,17.42,0,0,0-3.08,7.75c-.79,5.85,1.28,11.78,5.25,13.69a5.52,5.52,0,0,0,4.73,0C1109.39,983.86,1109.65,983.24,1109.56,983.17Z"/>
                <path class="cls-8"
                      d="M1283.08,931.41a61.74,61.74,0,0,1-51.37-22.86c-8.47-10.69-13.86-24.7-25.86-31.18-8.07-4.37-18-4.42-26.75-1.65s-16.47,8.16-23.37,14.21c3.84,22.93-6.35,45.62-16.29,66.64-1.1,2.32-2.36,4.81-4.66,5.95-3.91,1.93-8.58-1.12-10.92-4.81-3.74-5.89-4.18-13.26-4-20.24.31-15.91,3.1-31.9,9.56-46.45s16.73-27.58,30.16-36.11c16.79-10.66,37.94-13.7,57.38-9.5s37.09,15.33,50.3,30.19c6.13,6.89,11.47,14.81,13.55,23.8"/>
                <path class="cls-8"
                      d="M120.77,1608a11.39,11.39,0,0,1,.73-1.75c.58-1.24,1.36-2.91,2.36-5a127.4,127.4,0,0,0,6.91-20.09c4.57-17.85,6.17-45.14-.59-77.56-3.14-16.23-8.2-33.64-14.39-52.1s-13.16-38.1-18.93-59.31-10.22-44.13-9.35-68.2,8-48.2,15.87-72.17,15.94-47.47,18.37-71.07a108.33,108.33,0,0,0-13-65.64c-10.4-19.15-23.48-35.53-33.26-52.5a182.44,182.44,0,0,1-20-50.48,187.88,187.88,0,0,1-1.26-78.19c3.85-18.2,8.16-27.61,8.16-27.61a11.5,11.5,0,0,1-.49,1.83l-1.65,5.3a201.07,201.07,0,0,0-5.07,20.66,190.45,190.45,0,0,0,2,77.61,181.65,181.65,0,0,0,20.06,49.83c9.76,16.77,22.9,33.08,33.5,52.46a110.51,110.51,0,0,1,13.44,67c-2.45,24-10.61,47.63-18.43,71.6S90.84,1300.3,89.94,1324s3.51,46.46,9.13,67.51,12.67,40.72,18.69,59.27,11.1,36.06,14.15,52.41c6.58,32.65,4.7,60.22-.2,78.13a115.37,115.37,0,0,1-7.4,20.06l-2.58,4.92A10.38,10.38,0,0,1,120.77,1608Z"/>
                <path class="cls-9"
                      d="M88.75,1079.28s-19.87-63.56,15.78-100.78a2.21,2.21,0,0,1,3.78,1.1C110.21,990.09,112.59,1022.06,88.75,1079.28Z"/>
                <path class="cls-8"
                      d="M100.66,999.68c.34.07-.23,4.54-1.34,11.73-1.31,8.07-2.84,17.56-4.53,28s-3.17,20-4.45,28c-1.09,7.18-1.74,11.63-2.11,11.6s-.29-4.54.36-11.81S90.53,1050,92.33,1039s3.7-20.84,5.26-27.95S100.32,999.61,100.66,999.68Z"/>
                <path class="cls-9"
                      d="M112.1,1229.18s12.15-65.47,61.07-81.69a2.2,2.2,0,0,1,2.83,2.73C172.78,1160.39,159.93,1189.76,112.1,1229.18Z"/>
                <path class="cls-8"
                      d="M159.85,1164.4c.26.21-2.33,3.9-6.67,9.73-4.93,6.53-10.72,14.2-17.12,22.66l-17,22.7c-4.32,5.83-7,9.46-7.29,9.27s1.87-4.16,5.84-10.28,9.78-14.34,16.51-23.19,13-16.69,17.72-22.25S159.58,1164.18,159.85,1164.4Z"/>
                <path class="cls-9"
                      d="M98.88,1393.44s-7.39-66.19,34.71-95.91a2.2,2.2,0,0,1,3.5,1.79C137,1310,133.2,1341.82,98.88,1393.44Z"/>
                <path class="cls-8"
                      d="M125.75,1317.58c.32.13-1.09,4.41-3.55,11.25-2.82,7.68-6.13,16.7-9.8,26.65s-6.91,19-9.71,26.67c-2.44,6.84-3.93,11.09-4.28,11s.58-4.52,2.6-11.53,5.2-16.57,9.06-27,7.61-19.75,10.49-26.43S125.44,1317.45,125.75,1317.58Z"/>
                <path class="cls-9"
                      d="M135.73,1558.66s-5-66.41,38.13-94.61a2.2,2.2,0,0,1,3.43,1.92C176.77,1476.62,171.87,1508.3,135.73,1558.66Z"/>
                <path class="cls-8"
                      d="M165.3,1483.81c.32.14-1.25,4.36-4,11.12l-10.75,26.28c-4,9.83-7.59,18.73-10.66,26.3-2.68,6.75-4.32,10.94-4.67,10.83s.74-4.49,3-11.43,5.79-16.37,10-26.64,8.32-19.47,11.44-26S165,1483.66,165.3,1483.81Z"/>
                <path class="cls-9"
                      d="M60.19,1023.43S1.16,992.61,0,941.08a2.2,2.2,0,0,1,3.44-1.9C12.22,945.25,36.53,966.14,60.19,1023.43Z"/>
                <path class="cls-8"
                      d="M12.26,958.78c.28-.19,3.05,3.37,7.35,9.23,4.8,6.63,10.42,14.42,16.64,23L53,1014c4.31,5.85,7,9.45,6.73,9.69s-3.43-3-8.11-8.6-10.85-13.56-17.34-22.58S22.1,975.14,18.16,969,12,959,12.26,958.78Z"/>
                <path class="cls-9"
                      d="M123.57,1159.93s-60.79-27.18-65.07-78.54a2.2,2.2,0,0,1,3.32-2.11C70.94,1084.8,96.48,1104.18,123.57,1159.93Z"/>
                <path class="cls-8"
                      d="M71.8,1098.31c.28-.21,3.25,3.18,7.91,8.77l18,22,18.07,21.9c4.65,5.57,7.56,9,7.3,9.26s-3.6-2.8-8.62-8.09-11.65-12.88-18.67-21.49S82.62,1114,78.32,1108.16,71.53,1098.52,71.8,1098.31Z"/>
                <path class="cls-9"
                      d="M88.59,1312.19s-41.74-51.89-22.16-99.57a2.21,2.21,0,0,1,3.92-.36C76,1221.33,89.86,1250.22,88.59,1312.19Z"/>
                <path class="cls-8"
                      d="M70.57,1233.75c.34-.06,1.45,4.31,3,11.4l6,27.75c2.29,10.36,4.35,19.74,6.11,27.72,1.61,7.08,2.63,11.46,2.28,11.57s-1.93-4.13-4-11.13-4.51-16.76-6.84-27.63-4.17-20.75-5.33-27.94S70.23,1233.81,70.57,1233.75Z"/>
                <path class="cls-9"
                      d="M129.94,1491.36s-60.33-28.2-63.75-79.63a2.2,2.2,0,0,1,3.35-2C78.58,1415.36,103.78,1435.17,129.94,1491.36Z"/>
                <path class="cls-8"
                      d="M79.21,1428.88c.28-.21,3.2,3.23,7.76,8.9L104.6,1460c6.61,8.3,12.6,15.8,17.69,22.2,4.57,5.64,7.41,9.13,7.15,9.38s-3.55-2.86-8.48-8.24-11.43-13.06-18.31-21.79-12.89-16.8-17.09-22.74S78.94,1429.08,79.21,1428.88Z"/>
                <path class="cls-8"
                      d="M250.1,1229.54a4.85,4.85,0,0,1,.08,1.46c0,1.16-.07,2.56-.11,4.26-.18,4-.42,9.41-.71,16.15-.78,14.19-1.87,34-3.16,57.66v.14c-4.31,24.1-16.58,50.8-33.06,76.74-12.1,19.1-24.77,36.46-35.7,52.62s-20.3,31-26.77,44.24a186.65,186.65,0,0,0-12.52,32.47c-1.06,4-1.86,7.08-2.32,9.2a15.94,15.94,0,0,1-.88,3.21,16.82,16.82,0,0,1,.39-3.3c.3-2.17,1-5.31,1.87-9.35a171.58,171.58,0,0,1,11.88-33c6.32-13.43,15.52-28.54,26.44-44.76s23.47-33.66,35.5-52.66c16.4-25.8,28.6-52.11,33.07-75.82l0,.14c1.67-23.66,3.06-43.43,4.05-57.61.55-6.73,1-12.12,1.31-16.11.17-1.69.31-3.08.42-4.24A4.9,4.9,0,0,1,250.1,1229.54Z"/>
                <path class="cls-9"
                      d="M214.18,1381s25.55-61.5-6.59-101.79a2.21,2.21,0,0,0-3.86.75C200.88,1290.23,195.62,1321.85,214.18,1381Z"/>
                <path class="cls-8"
                      d="M209.53,1300.64c.34,0,1.12,4.41,2,11.64s1.92,17.23,2.71,28.32,1.17,21.15,1.17,28.44-.39,11.8-.72,11.8-.61-4.5-1-11.75c-.55-8.16-1.19-17.73-1.89-28.32s-1.41-20.16-2-28.33C209.35,1305.18,209.18,1300.68,209.53,1300.64Z"/>
                <g class="cls-11">
                    <path d="M214.18,1381s25.55-61.5-6.59-101.79a2.21,2.21,0,0,0-3.86.75C200.88,1290.23,195.62,1321.85,214.18,1381Z"/>
                </g>
                <path class="cls-9"
                      d="M135.05,1529.19s20.47-63.37-14.83-100.92a2.2,2.2,0,0,0-3.78,1.06C114.43,1439.8,111.75,1471.75,135.05,1529.19Z"/>
                <path class="cls-8"
                      d="M123.89,1449.48c.34-.06,1.48,4.31,3,11.44s3.3,17,5,28,2.88,21,3.47,28.25.57,11.8.25,11.82-1-4.43-2-11.62c-1.2-8.09-2.62-17.58-4.18-28.07s-3-20-4.27-28.08C124.08,1454,123.56,1449.55,123.89,1449.48Z"/>
                <g class="cls-11">
                    <path d="M135.05,1529.19s20.47-63.37-14.83-100.92a2.2,2.2,0,0,0-3.78,1.06C114.43,1439.8,111.75,1471.75,135.05,1529.19Z"/>
                </g>
                <path class="cls-9"
                      d="M246.72,1305.83s54.55-38.19,49-89.43a2.2,2.2,0,0,0-3.66-1.44C284.19,1222.11,262.78,1246,246.72,1305.83Z"/>
                <g class="cls-11">
                    <path d="M246.72,1305.83s54.55-38.19,49-89.43a2.2,2.2,0,0,0-3.66-1.44C284.19,1222.11,262.78,1246,246.72,1305.83Z"/>
                </g>
                <path class="cls-8"
                      d="M285.9,1235.53c.3.16-1.42,4.33-4.54,10.91s-7.63,15.57-12.9,25.35-10.36,18.48-14.28,24.63-6.66,9.75-6.93,9.57,1.9-4.12,5.42-10.47l13.6-24.92c5.05-9.33,9.63-17.77,13.53-25C283.31,1239.27,285.59,1235.38,285.9,1235.53Z"/>
                <path class="cls-9"
                      d="M157,1466.37s65.8-10.26,83.43-58.69a2.21,2.21,0,0,0-2.65-2.91C227.56,1407.7,197.83,1419.7,157,1466.37Z"/>
                <g class="cls-11">
                    <path d="M157,1466.37s65.8-10.26,83.43-58.69a2.21,2.21,0,0,0-2.65-2.91C227.56,1407.7,197.83,1419.7,157,1466.37Z"/>
                </g>
                <path class="cls-8"
                      d="M223.18,1420.51c.21.27-3.18,3.26-8.87,7.79s-13.71,10.62-22.75,17.08-17.44,12-23.67,15.82-10.27,5.82-10.44,5.54,3.52-2.86,9.48-7l23.18-16.38,23.14-16.46C219.21,1422.72,223,1420.24,223.18,1420.51Z"/>
                <polygon class="cls-12"
                         points="94.28 1587.46 75.08 1716.64 194.69 1716.64 179.19 1587.46 94.28 1587.46"/>
                <path class="cls-8"
                      d="M184,1627.49c0,.68-21.6,1.24-48.23,1.24s-48.24-.56-48.24-1.24,21.59-1.25,48.24-1.25S184,1626.8,184,1627.49Z"/>
                <path class="cls-8"
                      d="M186.34,1637.77c0,.68-22.31,1.24-49.81,1.24s-49.82-.56-49.82-1.24,22.3-1.25,49.82-1.25S186.34,1637.08,186.34,1637.77Z"/>
                <g class="cls-2">
                    <path id="Path_367-2" data-name="Path 367" class="cls-15"
                          d="M565.77,1578.15c-38.78-93.06-74.55-178.9-109.88-265a154.17,154.17,0,0,0-25.45-40.66c-155.1-185.78-201.68-395.89-120.3-624.18,104.94-294.84,411-467.34,717.58-404.42,21.76,4.07,24.48,12,16.77,32.18q-50.31,131.84-97.33,265a29.51,29.51,0,0,1-34.75,23.07c-161.54-8-299,116.51-306.94,278q-.62,12.63-.15,25.28a287.67,287.67,0,0,0,117.29,225.13c11.34,8.87,16.24,15.51,10.76,30.34C677.87,1272.46,623.06,1422.28,565.77,1578.15Z"/>
                    <path id="Path_368-2" data-name="Path 368" class="cls-15"
                          d="M1235,142.76c36.69,88.4,72.12,173.37,107.16,258.53a142.74,142.74,0,0,0,25.31,40.86c229.5,258.58,205.92,654.25-52.66,883.75a626,626,0,0,1-258,137.67,640.17,640.17,0,0,1-286,7.76c-21.47-4-25-11-17.06-31.9,33.63-87.87,65.82-176.37,97.42-265a29.85,29.85,0,0,1,34.94-23.17c161.24,8.16,298.56-115.94,306.71-277.17a291.06,291.06,0,0,0,0-29.54,286.51,286.51,0,0,0-117.29-222.27c-9.69-7.76-16.67-13.09-11.29-27.53q82.4-221.94,163.92-444.27C1228.86,149,1230.37,147.94,1235,142.76Z"/>
                </g>
            </g>
        </g>
    </g>
</svg>
