<svg xmlns="http://www.w3.org/2000/svg" width="746.769" height="555.611" viewBox="0 0 746.769 555.611">
  <g id="password" transform="translate(41.778 -840.176)">
    <g id="Group_4329" data-name="Group 4329" transform="translate(19 776)">
      <g id="Privacy_policy-rafiki" data-name="Privacy policy-rafiki" transform="translate(-60.778 64.176)" style="mix-blend-mode: luminosity;isolation: isolate">
        <g id="freepik--background-complete--inject-7" transform="translate(0 0)">
          <rect id="Rectangle_1785" data-name="Rectangle 1785" width="49.466" height="0.373" transform="translate(622.477 513.015)" fill="#ebebeb"/>
          <rect id="Rectangle_1786" data-name="Rectangle 1786" width="12.979" height="0.373" transform="translate(481.711 517.078)" fill="#ebebeb"/>
          <rect id="Rectangle_1787" data-name="Rectangle 1787" width="28.661" height="0.373" transform="translate(592.322 499.155)" fill="#ebebeb"/>
          <rect id="Rectangle_1788" data-name="Rectangle 1788" width="64.506" height="0.373" transform="translate(78.351 501.664)" fill="#ebebeb"/>
          <rect id="Rectangle_1789" data-name="Rectangle 1789" width="9.454" height="0.373" transform="translate(156.164 501.664)" fill="#ebebeb"/>
          <rect id="Rectangle_1790" data-name="Rectangle 1790" width="139.915" height="0.373" transform="translate(196.355 507.967)" fill="#ebebeb"/>
          <path id="Path_1271" data-name="Path 1271" d="M336.52,477.372H48.118a8.528,8.528,0,0,1-8.528-8.528V63.453A8.528,8.528,0,0,1,48.118,55h288.4a8.528,8.528,0,0,1,8.528,8.528V468.844A8.528,8.528,0,0,1,336.52,477.372ZM48.118,55.3a8.17,8.17,0,0,0-8.155,8.155V468.844A8.17,8.17,0,0,0,48.118,477h288.4a8.17,8.17,0,0,0,8.155-8.155V63.453A8.17,8.17,0,0,0,336.52,55.3Z" transform="translate(19.539 -55)" fill="#ebebeb"/>
          <path id="Path_1272" data-name="Path 1272" d="M552.82,477.372h-288.4a8.528,8.528,0,0,1-8.528-8.528V63.453A8.528,8.528,0,0,1,264.418,55h288.4a8.528,8.528,0,0,1,8.528,8.528V468.844A8.528,8.528,0,0,1,552.82,477.372ZM264.418,55.3a8.17,8.17,0,0,0-8.155,8.155V468.844A8.17,8.17,0,0,0,264.418,477h288.4a8.17,8.17,0,0,0,8.155-8.155V63.453A8.17,8.17,0,0,0,552.82,55.3Z" transform="translate(126.291 -55)" fill="#ebebeb"/>
          <rect id="Rectangle_1791" data-name="Rectangle 1791" width="746.769" height="0.373" transform="translate(0 488.984)" fill="#ebebeb"/>
          <path id="Path_1273" data-name="Path 1273" d="M140.247,320.878c-1.255-14.428-15.981-19.819-33.44-18.3S75.8,311.977,77.025,326.4Z" transform="translate(37.977 67.068)" fill="#f0f0f0"/>
          <path id="Path_1274" data-name="Path 1274" d="M100.742,307.8c8.095-.717,10.679-7.557,9.977-15.652s-4.481-14.383-12.546-13.681S87.494,286.025,88.2,294.12,92.647,308.5,100.742,307.8Z" transform="translate(43.474 55.263)" fill="#f0f0f0"/>
          <path id="Path_1275" data-name="Path 1275" d="M345.459,111.448a8.125,8.125,0,1,1-8.8-7.378A8.125,8.125,0,0,1,345.459,111.448Z" transform="translate(162.493 -30.797)" fill="#f5f5f5"/>
          <path id="Path_1276" data-name="Path 1276" d="M375.52,108.788a8.11,8.11,0,1,1-8.782-7.378,8.11,8.11,0,0,1,8.782,7.378Z" transform="translate(177.343 -32.11)" fill="#f5f5f5"/>
          <path id="Path_1277" data-name="Path 1277" d="M405.609,106.158a8.125,8.125,0,1,1-8.8-7.378,8.125,8.125,0,0,1,8.8,7.378Z" transform="translate(192.179 -33.408)" fill="#f5f5f5"/>
          <path id="Path_1278" data-name="Path 1278" d="M348.139,142.068a8.125,8.125,0,1,1-8.8-7.378A8.125,8.125,0,0,1,348.139,142.068Z" transform="translate(163.815 -15.685)" fill="#f5f5f5"/>
          <path id="Path_1279" data-name="Path 1279" d="M378.2,139.448a8.11,8.11,0,1,1-8.782-7.378A8.11,8.11,0,0,1,378.2,139.448Z" transform="translate(178.665 -16.978)" fill="#f5f5f5"/>
          <path id="Path_1280" data-name="Path 1280" d="M408.289,136.808a8.125,8.125,0,1,1-8.8-7.378,8.125,8.125,0,0,1,8.8,7.378Z" transform="translate(193.502 -18.281)" fill="#f5f5f5"/>
          <path id="Path_1281" data-name="Path 1281" d="M350.81,172.729a8.095,8.095,0,1,1-2.859-5.513A8.11,8.11,0,0,1,350.81,172.729Z" transform="translate(165.148 -0.554)" fill="#f5f5f5"/>
          <path id="Path_1282" data-name="Path 1282" d="M380.9,170.088a8.125,8.125,0,1,1-8.8-7.378A8.125,8.125,0,0,1,380.9,170.088Z" transform="translate(179.984 -1.856)" fill="#f5f5f5"/>
          <path id="Path_1283" data-name="Path 1283" d="M410.969,167.448a8.125,8.125,0,1,1-8.8-7.378A8.125,8.125,0,0,1,410.969,167.448Z" transform="translate(194.824 -3.159)" fill="#f5f5f5"/>
          <path id="Path_1284" data-name="Path 1284" d="M430.9,198.381l-92.271,8.065,81.816-99.41-83.8,7.333a1.762,1.762,0,0,1-1.927-1.628h0a1.777,1.777,0,0,1,1.613-1.927l92.286-8.065L346.78,202.16l83.832-7.333a1.807,1.807,0,0,1,1.941,1.628h0a1.792,1.792,0,0,1-1.658,1.927Z" transform="translate(165.19 -31.434)" fill="#e6e6e6"/>
          <path id="Path_1285" data-name="Path 1285" d="M407.874,293.734a2.33,2.33,0,0,0-2.016-1.6,16.1,16.1,0,0,1-10.649-4.7c-3.689-3.719-5.855-9.35-6.213-16.041a2.375,2.375,0,0,0-2.36-2.24h0a2.419,2.419,0,0,0-2.4,2.539c.418,7.856,3.077,14.577,7.6,19.1a20.91,20.91,0,0,0,13.248,6.079h.343a2.39,2.39,0,0,0,2.449-3.136Z" transform="translate(189.631 50.691)" fill="#f0f0f0"/>
          <path id="Path_1286" data-name="Path 1286" d="M409.628,321.292c-19.789-1.732-34.068-15.219-38.578-36.278a2.4,2.4,0,0,1,1.912-2.9h0a2.39,2.39,0,0,1,2.748,1.822c4.048,18.923,16.743,31.051,34.351,32.589,19.3,1.688,40.012-11.007,43.731-43a2.39,2.39,0,0,1,2.584-2.136h0a2.375,2.375,0,0,1,2.166,2.629C454.972,304.191,435.138,323.518,409.628,321.292Z" transform="translate(183.097 51.793)" fill="#f0f0f0"/>
          <path id="Path_1287" data-name="Path 1287" d="M372.581,283.007h0a2.375,2.375,0,0,1-2.166-2.629c3.555-30.169,23.389-49.511,48.883-47.27,22.4,1.957,37.413,18.684,39.758,43.88a2.39,2.39,0,0,1-2.24,2.569h0a2.4,2.4,0,0,1-2.509-2.21c-2.166-22.7-15.563-37.742-35.412-39.474-19.222-1.688-40.027,10.992-43.731,42.954a2.39,2.39,0,0,1-2.584,2.18Z" transform="translate(182.806 32.816)" fill="#f0f0f0"/>
          <path id="Path_1288" data-name="Path 1288" d="M401.386,321.847a32.365,32.365,0,0,1-10.291-2.569,2.4,2.4,0,0,1-1.15-3.345h0a2.36,2.36,0,0,1,2.987-1.045,28.377,28.377,0,0,0,9.827,2.27c14.622.836,30.065-9.529,31.588-34.56.926-15.428-4.361-27.884-14.218-33.844a2.39,2.39,0,0,1-.911-3.092h0a2.42,2.42,0,0,1,3.39-1c11.426,6.9,17.549,20.91,16.5,38.22-1.494,24.136-16.519,40.206-36.636,39.056Z" transform="translate(192.31 38.439)" fill="#f0f0f0"/>
          <path id="Path_1289" data-name="Path 1289" d="M386.315,308.326a2.42,2.42,0,0,1-3.45-.792,48.331,48.331,0,0,1-5.6-26.884c1.4-23.105,15.249-38.832,34.053-39.1a2.4,2.4,0,0,1,2.449,2.539h0a2.39,2.39,0,0,1-2.33,2.24c-13.95.269-27.959,10.813-29.393,34.605a43.552,43.552,0,0,0,4.988,24.285,2.36,2.36,0,0,1-.717,3.136Z" transform="translate(186.113 37.069)" fill="#f0f0f0"/>
          <path id="Path_1290" data-name="Path 1290" d="M414.513,302.2h0a2.39,2.39,0,0,1,.971-2.987c6.288-3.779,10.141-11.709,10.2-21.283,0-7.662-2.166-14.144-6.258-18.251a16.429,16.429,0,0,0-12.113-4.749c-7.363,0-13.337,4.047-16.638,11.157a2.375,2.375,0,0,1-2.987,1.21h0a2.4,2.4,0,0,1-1.344-3.271c4.092-8.707,11.754-13.86,20.91-13.875a21.268,21.268,0,0,1,15.518,6.153c5,5.018,7.722,12.71,7.662,21.671-.09,11.276-4.839,20.745-12.576,25.39a2.39,2.39,0,0,1-3.346-1.165Z" transform="translate(190.564 41.312)" fill="#f0f0f0"/>
          <path id="Path_1291" data-name="Path 1291" d="M394.88,280.47a2.39,2.39,0,0,1-3.226-1.658c-.164-.642-.284-1.314-.388-2-1.359-8.961,3.45-16.713,11.172-18.1a11.784,11.784,0,0,1,10.261,2.644,2.315,2.315,0,0,1-.194,3.614l-.149.1a2.375,2.375,0,0,1-2.987-.224,7.08,7.08,0,0,0-6.138-1.494c-5.885,1.06-8.125,7.184-7.289,12.68a11.879,11.879,0,0,0,.314,1.494,2.4,2.4,0,0,1-1.419,2.823Z" transform="translate(192.991 45.405)" fill="#f0f0f0"/>
          <path id="Path_1292" data-name="Path 1292" d="M399.564,285.277h0a2.225,2.225,0,0,1-1.673-3.39l.209-.329a2.21,2.21,0,0,1,2.046-1.03,9.606,9.606,0,0,0,2.24-.134c5.138-.926,7.468-5.705,7.468-10.574a2.42,2.42,0,0,1,2.031-2.449h0a2.39,2.39,0,0,1,2.748,2.255c.134,7.8-4.481,14.233-11.4,15.473a13.758,13.758,0,0,1-3.674.179Z" transform="translate(196.208 49.799)" fill="#f0f0f0"/>
          <path id="Path_1293" data-name="Path 1293" d="M401.33,277.513a5.8,5.8,0,0,1-5.138-4.376,2.151,2.151,0,0,1,2.255-2.673H399a2.166,2.166,0,0,1,1.837,1.494,1.031,1.031,0,0,0,.911.777c1.15.1,1.344-1.494,1.374-1.882a2.882,2.882,0,0,0-.314-1.688,2.614,2.614,0,0,1-.6-1.777h0a2.39,2.39,0,0,1,4.227-1.329,7.125,7.125,0,0,1,1.494,5.212C407.543,275.2,404.78,277.812,401.33,277.513Z" transform="translate(195.503 48.735)" fill="#f0f0f0"/>
          <path id="Path_1294" data-name="Path 1294" d="M370.249,245.349h0a2.375,2.375,0,0,1-2.166-2.584l1.807-20.715,20.715,1.822a2.375,2.375,0,0,1,2.166,2.584h0a2.39,2.39,0,0,1-2.584,2.181l-15.951-1.4-1.389,15.951a2.39,2.39,0,0,1-2.6,2.166Z" transform="translate(181.658 27.445)" fill="#f0f0f0"/>
          <path id="Path_1295" data-name="Path 1295" d="M441.707,251.581h0A2.375,2.375,0,0,1,439.541,249l1.389-15.951-15.951-1.389a2.39,2.39,0,0,1-2.166-2.6h0a2.375,2.375,0,0,1,2.584-2.166l20.715,1.807-1.807,20.76a2.39,2.39,0,0,1-2.6,2.121Z" transform="translate(208.669 29.831)" fill="#f0f0f0"/>
          <path id="Path_1296" data-name="Path 1296" d="M438.114,325.7,417.4,323.9a2.39,2.39,0,0,1-2.166-2.6h0a2.375,2.375,0,0,1,2.584-2.166l15.951,1.389,1.389-15.936a2.39,2.39,0,0,1,2.6-2.181h0a2.375,2.375,0,0,1,2.166,2.584Z" transform="translate(204.928 67.098)" fill="#f0f0f0"/>
          <path id="Path_1297" data-name="Path 1297" d="M382.145,321.306l-20.715-1.822,1.807-20.7a2.419,2.419,0,0,1,2.6-2.181h0A2.39,2.39,0,0,1,368,299.2l-1.389,15.921,15.936,1.4a2.39,2.39,0,0,1,2.181,2.584h0a2.4,2.4,0,0,1-2.584,2.2Z" transform="translate(178.379 64.236)" fill="#f0f0f0"/>
          <path id="Path_1298" data-name="Path 1298" d="M75.623,288.151h0a1.494,1.494,0,0,1-1.6-1.344L72.92,274.082l12.725-1.12a1.494,1.494,0,0,1,1.6,1.344h0a1.494,1.494,0,0,1-1.344,1.583l-9.8.866.851,9.8A1.494,1.494,0,0,1,75.623,288.151Z" transform="translate(35.989 52.57)" fill="#e0e0e0"/>
          <path id="Path_1299" data-name="Path 1299" d="M119.851,284.313h0a1.494,1.494,0,0,1-1.6-1.329l-.851-9.813-9.813.866a1.494,1.494,0,0,1-1.6-1.344h0a1.494,1.494,0,0,1,1.344-1.6l12.725-1.105,1.12,12.725A1.494,1.494,0,0,1,119.851,284.313Z" transform="translate(52.309 51.106)" fill="#e0e0e0"/>
          <path id="Path_1300" data-name="Path 1300" d="M124.209,320.941l-12.74,1.12a1.494,1.494,0,0,1-1.6-1.344h0a1.494,1.494,0,0,1,1.344-1.6l9.8-.851-.851-9.8a1.493,1.493,0,0,1,1.329-1.6h0a1.494,1.494,0,0,1,1.6,1.329Z" transform="translate(54.224 69.306)" fill="#e0e0e0"/>
          <path id="Path_1301" data-name="Path 1301" d="M90.051,323.629l-12.68,1.105-1.12-12.74a1.493,1.493,0,0,1,1.344-1.583h0a1.493,1.493,0,0,1,1.583,1.329l.866,9.813,9.8-.866a1.494,1.494,0,0,1,1.6,1.344h0a1.494,1.494,0,0,1-1.389,1.6Z" transform="translate(37.631 71.053)" fill="#e0e0e0"/>
          <path id="Path_1302" data-name="Path 1302" d="M136.068,153.454l-48.659,4.182-1-11.4a21.552,21.552,0,0,1,42.82-3.764l.568,6.631,7.035-.612-.582-6.631a28.591,28.591,0,0,0-56.964,4.988l1,11.47a11.44,11.44,0,0,0-9.2,12.217l3.48,39.788a11.44,11.44,0,0,0,12.4,10.455l54.559-4.764a11.441,11.441,0,0,0,10.455-12.4l-3.48-39.788a11.441,11.441,0,0,0-12.426-10.38Zm-20.7,30.662,1.195,13.7a4.092,4.092,0,1,1-8.14.717l-1.195-13.711a6.87,6.87,0,1,1,8.14-.7Z" transform="translate(35.061 -25.01)" fill="#ebebeb"/>
          <path id="Path_1303" data-name="Path 1303" d="M185.33,180.435l-4.914-8.05a26.479,26.479,0,0,1-7.468,0l-4.929,8.02-.941-.254a36.487,36.487,0,0,1-9.111-3.779l-.836-.478,2.076-8.722a1.314,1.314,0,0,1,1.6-.971h0a1.314,1.314,0,0,1,.971,1.583l-1.643,6.8a34.654,34.654,0,0,0,6.676,2.778l4.809-7.856.881.149a26.554,26.554,0,0,0,8.424,0l.866-.149,4.809,7.856a33.889,33.889,0,0,0,6.676-2.778l-2.136-8.961.717-.523a26.225,26.225,0,0,0,5.183-4.944,1.314,1.314,0,0,1,1.807-.269h0a1.3,1.3,0,0,1,.284,1.867,28.764,28.764,0,0,1-5.033,4.959l2.2,9.155-.851.478a36.62,36.62,0,0,1-9.1,3.779Zm-30.2-17.534c-.4-.463-.806-.956-1.195-1.494l-9.155,2.2-.493-.836a37.637,37.637,0,0,1-3.779-9.111l-.239-.941,8.02-4.929a26.481,26.481,0,0,1,0-7.468l-8.02-4.914.239-.956a37.534,37.534,0,0,1,3.779-9.1l.493-.851,9.155,2.2a28.377,28.377,0,0,1,5.317-5.317l-1.658-6.93a1.314,1.314,0,0,1,.971-1.583h0a1.3,1.3,0,0,1,1.568.971l2.076,8.633-.717.508a26.242,26.242,0,0,0-5.974,5.974l-.523.717-8.961-2.136a33.886,33.886,0,0,0-2.778,6.676l7.841,4.809-.134.866a23.9,23.9,0,0,0,0,8.424l.134.881L143.257,154a34.127,34.127,0,0,0,2.778,6.661L155,158.525l.523.717a24.119,24.119,0,0,0,1.494,1.957,1.3,1.3,0,0,1,0,1.792h0a1.3,1.3,0,0,1-1.882-.09Zm53.379.732-3.375-.806a1.314,1.314,0,0,1-.971-1.583h0a1.314,1.314,0,0,1,1.583-.971l1.494.344A34.084,34.084,0,0,0,210,153.955l-7.841-4.809.149-.881a23.9,23.9,0,0,0,0-8.424l-.149-.866L210,134.165a33.829,33.829,0,0,0-2.763-6.676l-8.961,2.136-.508-.717a26.54,26.54,0,0,0-5.974-5.974l-.717-.508,2.136-8.961a33.831,33.831,0,0,0-6.676-2.763l-4.854,7.916-.866-.149a26.554,26.554,0,0,0-8.424,0l-.881.149-4.764-7.886-.9.269a1.284,1.284,0,0,1-1.613-.792h0a1.314,1.314,0,0,1,.792-1.7c.657-.209,1.329-.4,1.986-.582l.941-.254,4.929,8.035a25.39,25.39,0,0,1,7.468,0l4.914-8.035.956.254a37.188,37.188,0,0,1,9.1,3.779l.851.493-2.2,9.155a28,28,0,0,1,5.317,5.317l9.155-2.2.493.851a36.949,36.949,0,0,1,3.779,9.1l.254.956-8.035,4.914a25.107,25.107,0,0,1,0,7.468l8.035,4.929-.254.941a37.052,37.052,0,0,1-3.779,9.111Zm-32.231-6.781a12.949,12.949,0,0,1-12.426-12.426,12.815,12.815,0,0,1,11.321-13.083,1.329,1.329,0,0,1,1.494,1.314h0a1.3,1.3,0,0,1-1.15,1.284A10.171,10.171,0,1,0,185,138.213a1.27,1.27,0,0,1,.209-1.7h0a1.314,1.314,0,0,1,1.957.239,12.785,12.785,0,0,1-10.873,20.1Z" transform="translate(69.229 -29.005)" fill="#f0f0f0"/>
          <path id="Path_1304" data-name="Path 1304" d="M117.929,245.127l-3.181-5.183a16.519,16.519,0,0,1-4.854,0l-3.181,5.183-.612-.164a23.777,23.777,0,0,1-5.885-2.434l-.538-.314,1.344-5.646a.851.851,0,0,1,1.016-.627h0a.851.851,0,0,1,.627,1.031l-1.045,4.391a21.759,21.759,0,0,0,4.316,1.792l3.107-5.063.553.09a16.7,16.7,0,0,0,5.451,0l.553-.09,3.121,5.063a22.972,22.972,0,0,0,4.3-1.792l-1.374-5.765.463-.343a16.878,16.878,0,0,0,3.346-3.181.836.836,0,0,1,1.165-.179h0a.851.851,0,0,1,.194,1.195,18.923,18.923,0,0,1-3.256,3.211l1.494,5.974-.553.314a23.552,23.552,0,0,1-5.885,2.435ZM98.423,233.791l-.777-.941-5.974,1.4-.314-.538a23.777,23.777,0,0,1-2.375-5.9l-.164-.612L94,224.023a16.518,16.518,0,0,1,0-4.854l-5.183-3.181.164-.612a23.553,23.553,0,0,1,2.434-5.885l.314-.553,5.974,1.494a19.686,19.686,0,0,1,3.331-3.525l-1.06-4.481a.836.836,0,0,1,.627-1.016h0a.851.851,0,0,1,1.016.627l1.344,5.571-.478.344a16.714,16.714,0,0,0-3.838,3.838l-.344.463-5.765-1.374a22.97,22.97,0,0,0-1.792,4.3l5.063,3.107-.09.568a16.621,16.621,0,0,0-.239,2.718,16.789,16.789,0,0,0,.239,2.733l.09.553-5.063,3.107a22.686,22.686,0,0,0,1.792,4.316l5.765-1.389.344.463a13.868,13.868,0,0,0,1,1.27.836.836,0,0,1,0,1.15h0a.836.836,0,0,1-1.225.015Zm34.486.463-2.181-.508a.851.851,0,0,1-.627-1.031h0a.836.836,0,0,1,1.016-.627l.941.224A21.761,21.761,0,0,0,133.85,228l-5.063-3.107.09-.553a15.664,15.664,0,0,0,0-5.451l-.09-.568,5.063-3.107a22.015,22.015,0,0,0-1.792-4.3l-5.765,1.374-.344-.463a16.712,16.712,0,0,0-3.838-3.838l-.463-.343,1.374-5.765a22.02,22.02,0,0,0-4.3-1.792l-3.121,5.063-.553-.09a16.7,16.7,0,0,0-5.451,0l-.553.09-3.107-5.063-.582.179a.836.836,0,0,1-1.045-.523h0a.836.836,0,0,1,.508-1.09l1.284-.388.612-.149,3.181,5.183a16.519,16.519,0,0,1,4.854,0l3.181-5.183.612.149a24.165,24.165,0,0,1,5.885,2.449l.553.314L123.485,207a19.177,19.177,0,0,1,3.435,3.435l5.974-1.494.314.553a23.553,23.553,0,0,1,2.434,5.885l.164.612-5.183,3.181a16.518,16.518,0,0,1,0,4.854l5.183,3.181-.164.612a23.776,23.776,0,0,1-2.434,5.885Zm-20.82-4.376a8.274,8.274,0,0,1-.717-16.429.866.866,0,0,1,.956.851h0a.836.836,0,0,1-.747.836,6.572,6.572,0,1,0,7.318,6.527,6.482,6.482,0,0,0-1.195-3.764.851.851,0,0,1,.134-1.105h0a.851.851,0,0,1,1.269.149,8.274,8.274,0,0,1-7.02,12.994Z" transform="translate(43.836 15.63)" fill="#e6e6e6"/>
        </g>
        <g id="freepik--Shadow--inject-7" transform="translate(83.802 521.797)">
          <ellipse id="freepik--path--inject-7" cx="289.582" cy="16.907" rx="289.582" ry="16.907" fill="#f5f5f5"/>
        </g>
        <g id="freepik--Device--inject-7" transform="translate(310.898 135.654)">
          <path id="Path_1305" data-name="Path 1305" d="M390.871,145.831h-48.63L307.89,539.005h48.63a27.959,27.959,0,0,0,27.272-25.091L413.8,170.908a22.627,22.627,0,0,0-22.926-25.077Z" transform="translate(-158.942 -145.827)" fill="#407bff"/>
          <path id="Path_1306" data-name="Path 1306" d="M430.174,145.831H265.586A27.959,27.959,0,0,0,238.3,170.907L208.294,513.913A22.657,22.657,0,0,0,231.189,539H395.762a27.974,27.974,0,0,0,27.227-25.091l30.005-343.006a22.627,22.627,0,0,0-22.821-25.076Z" transform="translate(-208.162 -145.827)" fill="#407bff"/>
          <path id="Path_1307" data-name="Path 1307" d="M430.174,145.831H265.586A27.959,27.959,0,0,0,238.3,170.907L208.294,513.913A22.657,22.657,0,0,0,231.189,539H395.762a27.974,27.974,0,0,0,27.227-25.091l30.005-343.006a22.627,22.627,0,0,0-22.821-25.076Z" transform="translate(-208.162 -145.827)" fill="#fff" opacity="0.3"/>
          <path id="Path_1308" data-name="Path 1308" d="M426.8,151.211H383.4a6.467,6.467,0,0,0-5.974,4.122h0a23.9,23.9,0,0,1-21.85,15.279h-25.6a19.222,19.222,0,0,1-19.192-15.234h0a5.183,5.183,0,0,0-5.183-4.122H262.216A18.968,18.968,0,0,0,243.681,168.3L213.661,511.3a15.368,15.368,0,0,0,15.563,17.056H393.811A18.983,18.983,0,0,0,412.346,511.3L442.351,168.3A15.369,15.369,0,0,0,426.8,151.211Z" transform="translate(-205.494 -143.171)" fill="#fff" opacity="0.4"/>
          <path id="Path_1309" data-name="Path 1309" d="M368.818,282.268H253.636a5.586,5.586,0,0,1-5.646-6.183l.583-6.6a6.885,6.885,0,0,1,6.721-6.183h115.2a5.586,5.586,0,0,1,5.646,6.183l-.568,6.6a6.9,6.9,0,0,1-6.751,6.183Z" transform="translate(-188.521 -87.85)" fill="#fff"/>
          <path id="Path_1310" data-name="Path 1310" d="M367.158,301.268h-115.2a5.571,5.571,0,0,1-5.631-6.183l.568-6.6a6.9,6.9,0,0,1,6.721-6.183h115.2a5.586,5.586,0,0,1,5.646,6.183l-.583,6.6a6.9,6.9,0,0,1-6.721,6.183Z" transform="translate(-189.341 -78.473)" fill="#fff"/>
          <path id="Path_1311" data-name="Path 1311" d="M310,157.776a7.632,7.632,0,0,1-7.468,6.855,6.183,6.183,0,0,1-6.258-6.855,7.632,7.632,0,0,1,7.468-6.855A6.183,6.183,0,0,1,310,157.776Z" transform="translate(-164.694 -143.314)" opacity="0.1"/>
          <path id="Path_1312" data-name="Path 1312" d="M305.854,156.749a4.182,4.182,0,0,1-4.077,3.749,3.375,3.375,0,0,1-3.42-3.749A4.167,4.167,0,0,1,302.434,153a3.39,3.39,0,0,1,3.42,3.749Z" transform="translate(-163.658 -142.287)" opacity="0.1"/>
          <g id="Group_4325" data-name="Group 4325" transform="translate(199.195 13.267)" opacity="0.8">
            <path id="Path_1313" data-name="Path 1313" d="M343.381,165.712h0a1.822,1.822,0,0,1-1.837-2.016l.329-3.674a2.225,2.225,0,0,1,2.181-2h0a1.822,1.822,0,0,1,1.837,2l-.329,3.674a2.24,2.24,0,0,1-2.181,2.016Z" transform="translate(-341.533 -153.076)" fill="#fff"/>
            <path id="Path_1314" data-name="Path 1314" d="M354.141,167.345h0a1.822,1.822,0,0,1-1.837-2.016l.762-8.618a2.225,2.225,0,0,1,2.181-2h0a1.822,1.822,0,0,1,1.837,2l-.762,8.618a2.24,2.24,0,0,1-2.181,2.016Z" transform="translate(-336.223 -154.71)" fill="#fff"/>
            <path id="Path_1315" data-name="Path 1315" d="M348.761,166.531h0a1.822,1.822,0,0,1-1.837-2.016l.538-6.138a2.24,2.24,0,0,1,2.2-2.016h0a1.807,1.807,0,0,1,1.822,2.016l-.538,6.138a2.24,2.24,0,0,1-2.18,2.016Z" transform="translate(-338.878 -153.896)" fill="#fff"/>
          </g>
          <g id="Group_4326" data-name="Group 4326" transform="translate(52.309 18.21)" opacity="0.8">
            <path id="Path_1316" data-name="Path 1316" d="M254.319,165.712h-10.1a1.016,1.016,0,0,1-1.031-1.135l.463-5.422a1.269,1.269,0,0,1,1.24-1.135h10.1a1.016,1.016,0,0,1,1.031,1.135l-.478,5.422A1.24,1.24,0,0,1,254.319,165.712Z" transform="translate(-243.185 -158.02)" fill="#fff"/>
            <path id="Path_1317" data-name="Path 1317" d="M254.117,163.75h0a1.031,1.031,0,0,1-1.045-1.135l.224-2.479a1.255,1.255,0,0,1,1.24-1.135h0a1.016,1.016,0,0,1,1.031,1.135l-.209,2.479A1.27,1.27,0,0,1,254.117,163.75Z" transform="translate(-238.309 -157.536)" fill="#fff"/>
          </g>
          <ellipse id="Ellipse_147" data-name="Ellipse 147" cx="50.377" cy="46.15" rx="50.377" ry="46.15" transform="translate(61.098 119.164) rotate(-43.75)" fill="#fff"/>
          <path id="Path_1318" data-name="Path 1318" d="M303.281,223.38c-12.665,0-23.374,4.824-24.285,15.294l-1.016,11.635h45.9l1.016-11.635C325.8,228.2,315.961,223.38,303.281,223.38Z" transform="translate(-173.704 -107.552)" fill="#407bff"/>
          <path id="Path_1319" data-name="Path 1319" d="M297.621,227.208c5.885,0,8.6-4.764,9.111-10.649s-1.359-10.649-7.244-10.649-8.588,4.779-9.111,10.649S291.737,227.208,297.621,227.208Z" transform="translate(-167.626 -116.174)" fill="#407bff"/>
          <path id="Path_1320" data-name="Path 1320" d="M327.418,269.38c-3.122,0-5.765,1.195-5.974,3.779l-.254,2.883h11.336l.254-2.883C332.989,270.575,330.555,269.38,327.418,269.38Z" transform="translate(-152.378 -84.849)" fill="#407bff"/>
          <path id="Path_1321" data-name="Path 1321" d="M326.029,270.327c1.494,0,2.121-1.18,2.255-2.629s-.344-2.629-1.792-2.629-2.121,1.18-2.255,2.629S324.581,270.327,326.029,270.327Z" transform="translate(-150.885 -86.976)" fill="#407bff"/>
          <path id="Path_1322" data-name="Path 1322" d="M319.685,320.268H274.879a8.558,8.558,0,0,1-8.662-9.484h0a10.574,10.574,0,0,1,10.32-9.484h44.806a8.573,8.573,0,0,1,8.663,9.484h0a10.559,10.559,0,0,1-10.32,9.484Z" transform="translate(-179.535 -69.096)" fill="#407bff"/>
          <path id="Path_1323" data-name="Path 1323" d="M317.259,403H269.3a8.961,8.961,0,0,1-9.14-10.022L263.223,358a11.142,11.142,0,0,1,10.888-10.022h47.972A9.036,9.036,0,0,1,331.224,358l-3.062,34.979A11.172,11.172,0,0,1,317.259,403Z" transform="translate(-182.53 -46.058)" fill="#407bff"/>
          <g id="Group_4327" data-name="Group 4327" transform="translate(107.861 314.796)" opacity="0.6">
            <path id="Path_1324" data-name="Path 1324" d="M292.463,362.575a5.421,5.421,0,0,0-5.5-5.974,6.691,6.691,0,0,0-6.557,5.974,5.451,5.451,0,0,0,2.016,4.824l-1.045,12.053a3.226,3.226,0,0,0,3.271,3.585,3.988,3.988,0,0,0,3.883-3.585L289.6,367.4a6.661,6.661,0,0,0,2.868-4.824Z" transform="translate(-280.38 -356.599)" fill="#fff"/>
          </g>
          <path id="Path_1325" data-name="Path 1325" d="M318.438,366.858h-6.183l1.494-17.31a17.041,17.041,0,0,0-17.22-18.878,21.044,21.044,0,0,0-20.521,18.878l-1.494,17.31H268.33l1.494-17.31A27.9,27.9,0,0,1,297.051,324.5a22.612,22.612,0,0,1,22.866,25.047Z" transform="translate(-178.467 -57.647)" fill="#407bff"/>
          <path id="Path_1326" data-name="Path 1326" d="M328.459,288.7l.194-1.688a2.793,2.793,0,0,0-2.808-3.077,3.435,3.435,0,0,0-3.346,3.077l-.149,1.658a1.374,1.374,0,0,0-1.329,1.24l-.388,4.481a1.09,1.09,0,0,0,1.12,1.225h6.153a1.359,1.359,0,0,0,1.329-1.225l.388-4.481a1.12,1.12,0,0,0-1.165-1.21Zm-2.793-3.973a2.106,2.106,0,0,1,2.121,2.315l-.149,1.658h-4.63l.149-1.658a2.584,2.584,0,0,1,2.509-2.315Z" transform="translate(-152.657 -77.663)" fill="#407bff"/>
          <path id="Path_1327" data-name="Path 1327" d="M266.862,289.548l-2.151-.448a.4.4,0,0,1-.284-.568l.9-2.121a.418.418,0,0,0-.7-.433l-1.628,1.673a.418.418,0,0,1-.657,0l-1.329-1.673c-.284-.358-.9,0-.792.433l.523,2.121a.463.463,0,0,1-.373.568l-2.225.448c-.478.09-.538.762-.075.851l2.151.448a.388.388,0,0,1,.269.568l-.866,2.136a.418.418,0,0,0,.7.433l1.628-1.673a.448.448,0,0,1,.657,0l1.329,1.673c.284.358.9,0,.777-.433l-.523-2.121a.493.493,0,0,1,.388-.568l2.225-.448C267.265,290.31,267.325,289.638,266.862,289.548Z" transform="translate(-183.689 -76.73)" fill="#263238"/>
          <path id="Path_1328" data-name="Path 1328" d="M276.322,289.548l-2.151-.448a.4.4,0,0,1-.284-.568l.9-2.121a.418.418,0,0,0-.7-.433l-1.628,1.673a.418.418,0,0,1-.657,0l-1.329-1.673c-.284-.358-.9,0-.777.433l.523,2.121a.478.478,0,0,1-.388.568l-2.225.448c-.478.09-.538.762-.075.851l2.151.448a.4.4,0,0,1,.284.568l-.9,2.121a.418.418,0,0,0,.7.433l1.628-1.673a.448.448,0,0,1,.657,0l1.329,1.673c.284.358.9,0,.792-.433l-.523-2.121a.478.478,0,0,1,.373-.568l2.225-.448C276.725,290.31,276.785,289.638,276.322,289.548Z" transform="translate(-179.021 -76.73)" fill="#263238"/>
          <path id="Path_1329" data-name="Path 1329" d="M285.777,289.566l-2.136-.448a.388.388,0,0,1-.284-.568l.9-2.121a.419.419,0,0,0-.717-.433l-1.613,1.673a.433.433,0,0,1-.672,0L279.922,286c-.284-.358-.9,0-.777.433l.523,2.121a.478.478,0,0,1-.373.568l-2.225.448c-.478.09-.538.762-.075.851l2.136.448a.4.4,0,0,1,.284.568l-.9,2.121a.419.419,0,1,0,.717.433l1.613-1.673a.448.448,0,0,1,.657,0l1.344,1.673c.284.358.9,0,.777-.433l-.523-2.121a.493.493,0,0,1,.373-.568l2.225-.448C286.12,290.328,286.24,289.656,285.777,289.566Z" transform="translate(-174.347 -76.748)" fill="#263238"/>
          <path id="Path_1330" data-name="Path 1330" d="M295.248,289.548,293.1,289.1a.4.4,0,0,1-.284-.568l.9-2.121a.418.418,0,0,0-.7-.433l-1.628,1.673a.418.418,0,0,1-.657,0l-1.329-1.673c-.284-.358-.9,0-.792.433l.523,2.121a.463.463,0,0,1-.373.568l-2.225.448a.428.428,0,0,0,0,.851l2.151.448a.388.388,0,0,1,.269.568l-.881,2.121a.418.418,0,0,0,.7.433l1.628-1.673a.448.448,0,0,1,.657,0l1.329,1.673c.284.358.9,0,.777-.433l-.523-2.121a.493.493,0,0,1,.388-.568l2.225-.448A.441.441,0,0,0,295.248,289.548Z" transform="translate(-169.674 -76.73)" fill="#263238"/>
          <path id="Path_1331" data-name="Path 1331" d="M304.712,289.548l-2.151-.448a.4.4,0,0,1-.284-.568l.9-2.121a.418.418,0,0,0-.7-.433l-1.628,1.673a.418.418,0,0,1-.657,0l-1.329-1.673c-.284-.358-.9,0-.777.433l.523,2.121a.478.478,0,0,1-.388.568l-2.225.448c-.478.09-.538.762-.075.851l2.151.448a.4.4,0,0,1,.284.568l-.9,2.121a.418.418,0,0,0,.7.433l1.628-1.673a.448.448,0,0,1,.657,0l1.329,1.673c.284.358.9,0,.792-.433l-.523-2.121a.478.478,0,0,1,.373-.568l2.225-.448A.433.433,0,0,0,304.712,289.548Z" transform="translate(-165.009 -76.73)" fill="#263238"/>
          <path id="Path_1332" data-name="Path 1332" d="M314.167,289.566l-2.151-.448a.388.388,0,0,1-.269-.568l.9-2.121a.419.419,0,0,0-.717-.433l-1.613,1.673a.433.433,0,0,1-.672,0L308.312,286c-.284-.358-.9,0-.777.433l.523,2.121a.478.478,0,0,1-.373.568l-2.225.448c-.478.09-.538.762-.075.851l2.136.448a.4.4,0,0,1,.284.568l-.9,2.121a.419.419,0,0,0,.717.433l1.613-1.673a.448.448,0,0,1,.657,0l1.329,1.673a.463.463,0,0,0,.792-.433l-.523-2.121a.493.493,0,0,1,.373-.568l2.225-.448C314.57,290.328,314.63,289.656,314.167,289.566Z" transform="translate(-160.335 -76.748)" fill="#263238"/>
          <path id="Path_1333" data-name="Path 1333" d="M298.2,267.61H271.671a3.331,3.331,0,0,0-3.256,2.987,2.688,2.688,0,0,0,2.733,2.987h26.525a3.331,3.331,0,0,0,3.256-2.987,2.7,2.7,0,0,0-2.733-2.987Z" transform="translate(-178.433 -85.723)" fill="#263238"/>
          <path id="Path_1334" data-name="Path 1334" d="M312.555,267.61h-15.4a3.316,3.316,0,0,0-3.241,2.987,2.688,2.688,0,0,0,2.718,2.987h15.339a3.316,3.316,0,0,0,3.241-2.987,2.688,2.688,0,0,0-2.659-2.987Z" transform="translate(-165.848 -85.723)" fill="#263238"/>
          <path id="Path_1335" data-name="Path 1335" d="M333.321,358.364a67.64,67.64,0,0,0-24.778,16.429,29.437,29.437,0,0,0-14.532-5.974l-.7-.1-.3,3.525.388.149a27.377,27.377,0,0,1,13.935,11.47l.508.836.553-.9a64.91,64.91,0,0,1,25.271-23.239l.344-.179.194-2.33Z" transform="translate(-166.286 -41.087)" fill="#263238"/>
        </g>
        <g id="freepik--Document--inject-7" transform="translate(207.602 138.987)">
          <path id="Path_1336" data-name="Path 1336" d="M239.124,161.37a26.885,26.885,0,0,0-3.435,10.828L213.45,426.428h68.822l13.83-53.006L291.547,320.4l13.83-53.006L300.9,214.391l13.83-53.021Z" transform="translate(-102.256 -141.49)" opacity="0.2"/>
          <path id="Path_1337" data-name="Path 1337" d="M331.587,204.391l13.83-53.021H171.375L157.56,204.391,162.1,257.4,148.285,310.4l4.54,53.021L139.01,416.428H313.037l13.83-53.006L322.312,310.4l13.83-53.006Z" transform="translate(-138.995 -146.425)" fill="#407bff"/>
          <path id="Path_1338" data-name="Path 1338" d="M331.587,204.391l13.83-53.021H171.375L157.56,204.391,162.1,257.4,148.285,310.4l4.54,53.021L139.01,416.428H313.037l13.83-53.006L322.312,310.4l13.83-53.006Z" transform="translate(-138.995 -146.425)" fill="#fff" opacity="0.7"/>
          <path id="Path_1339" data-name="Path 1339" d="M325.457,204.391H151.43l13.815-53.021H339.287Z" transform="translate(-132.865 -146.425)" fill="#fff" opacity="0.5"/>
          <path id="Path_1340" data-name="Path 1340" d="M319.247,275.366H145.22l13.815-53.006H333.077Z" transform="translate(-135.93 -111.389)" fill="#fff" opacity="0.5"/>
          <path id="Path_1341" data-name="Path 1341" d="M313.042,346.356H139l13.83-53.006H326.872Z" transform="translate(-139 -76.353)" fill="#fff" opacity="0.5"/>
          <path id="Path_1342" data-name="Path 1342" d="M288.24,202.07a19.027,19.027,0,0,1-5.5.747,15.309,15.309,0,0,1-7.3-1.494,2.673,2.673,0,0,0-1.359-.373h0a2.7,2.7,0,0,0-1.255.329h-.09a8.826,8.826,0,0,1-2.121.851,19.417,19.417,0,0,1-5.123.642H264a18.075,18.075,0,0,1-3.958-.7,2.658,2.658,0,0,0-.583-.1,2.39,2.39,0,0,0-2.584,2.375h0v1.613H189.129a9.469,9.469,0,0,0-9.469,9.484v9.544a9.469,9.469,0,0,0,9.469,9.5H266.6c.821.687,1.688,1.374,2.614,2.076s2.24,1.673,3.45,2.539a2.419,2.419,0,0,0,2.838,0c9.678-7.02,15.891-11.859,15.891-25.151v-9.559a2.4,2.4,0,0,0-3.151-2.315Z" transform="translate(-118.933 -121.955)" opacity="0.2"/>
          <rect id="Rectangle_1792" data-name="Rectangle 1792" width="95.915" height="28.512" rx="6.35" transform="translate(59.249 78.756)" fill="#407bff"/>
          <path id="Path_1343" data-name="Path 1343" d="M256.268,199.3a15.4,15.4,0,0,1-7.3-1.494,2.569,2.569,0,0,0-2.688,0,15.414,15.414,0,0,1-7.318,1.494,19.1,19.1,0,0,1-5.5-.747,2.39,2.39,0,0,0-3.151,2.27v9.559c0,13.307,6.213,18.146,15.891,25.166a2.419,2.419,0,0,0,2.838,0c9.678-7.02,15.891-11.859,15.891-25.166v-9.559a2.4,2.4,0,0,0-3.166-2.27A19.026,19.026,0,0,1,256.268,199.3Z" transform="translate(-93.935 -123.695)" fill="#407bff"/>
          <path id="Path_1344" data-name="Path 1344" d="M256.268,199.3a15.4,15.4,0,0,1-7.3-1.494,2.569,2.569,0,0,0-2.688,0,15.414,15.414,0,0,1-7.318,1.494,19.1,19.1,0,0,1-5.5-.747,2.39,2.39,0,0,0-3.151,2.27v9.559c0,13.307,6.213,18.146,15.891,25.166a2.419,2.419,0,0,0,2.838,0c9.678-7.02,15.891-11.859,15.891-25.166v-9.559a2.4,2.4,0,0,0-3.166-2.27A19.026,19.026,0,0,1,256.268,199.3Z" transform="translate(-93.935 -123.695)" fill="#fff" opacity="0.3"/>
          <path id="Path_1345" data-name="Path 1345" d="M246.276,197.789a15.414,15.414,0,0,1-7.318,1.494,19.176,19.176,0,0,1-5.5-.747,2.39,2.39,0,0,0-3.151,2.27v9.559c0,13.307,6.213,18.146,15.891,25.166a2.435,2.435,0,0,0,1.494.463V197.4a2.6,2.6,0,0,0-1.419.388Z" transform="translate(-93.935 -123.708)" fill="#fff" opacity="0.2"/>
          <path id="Path_1346" data-name="Path 1346" d="M259.56,204.395a38.832,38.832,0,0,0-15.115,10.649,20.82,20.82,0,0,0-9.753-3.9h-.463v2.285l.254.09a19.984,19.984,0,0,1,9.678,7.468l.373.538.314-.582a37.055,37.055,0,0,1,15.04-15.055l.224-.1V204.29Z" transform="translate(-92 -120.307)" fill="#263238"/>
          <path id="Path_1347" data-name="Path 1347" d="M279.342,167.924h-6.6a5.974,5.974,0,0,1-6.049-6.631l.583-6.6a7.363,7.363,0,0,1,7.2-6.631h6.6a5.974,5.974,0,0,1,6.064,6.631l-.583,6.6a7.468,7.468,0,0,1-7.214,6.631Z" transform="translate(-75.997 -148.059)" fill="#407bff"/>
          <path id="Path_1348" data-name="Path 1348" d="M280.41,153.013l-1.434-1.583-3.614,3.316-3.017-3.316-1.718,1.583,3.032,3.316-3.6,3.316,1.434,1.568,3.6-3.316,3.032,3.316,1.7-1.568-3.032-3.316Z" transform="translate(-74.317 -146.395)" fill="#fff"/>
        </g>
        <g id="freepik--Character--inject-7" transform="translate(161.339 146.298)">
          <path id="Path_1349" data-name="Path 1349" d="M180.368,199.49c3.823,4.167,7.468,8.483,11.1,12.829S198.6,221.1,202.1,225.552c.149.194.09.119.119.179s0,.075,0,.09a.538.538,0,0,0,.1.149,1.673,1.673,0,0,0,1.09.687,1.9,1.9,0,0,0,.508,0,1.723,1.723,0,0,0,.269,0h.134c.075,0,0,0,.239-.09l3.734-2.031c5.018-2.658,10.081-5.257,15.309-7.587l4.376,5.422c-4.212,3.868-8.6,8.722-13.039,12.277l-3.346,2.629a5.682,5.682,0,0,1-.657.463,7.625,7.625,0,0,1-.792.493,15.866,15.866,0,0,1-1.673.836,14.728,14.728,0,0,1-3.614,1,15.443,15.443,0,0,1-7.468-.747,14.935,14.935,0,0,1-3.435-1.747,13.336,13.336,0,0,1-1.494-1.18c-.254-.209-.463-.448-.7-.672l-.6-.6c-3.958-4.062-7.856-8.155-11.679-12.322s-7.6-8.364-11.216-12.725Z" transform="translate(-78.291 -129.986)" fill="#b55b52"/>
          <path id="Path_1350" data-name="Path 1350" d="M204,217.077l3.48-11.187,9.17,4.57s-1.344,8.155-8.005,9.574Z" transform="translate(-60.657 -126.828)" fill="#b55b52"/>
          <path id="Path_1351" data-name="Path 1351" d="M209.994,203.82l8.274,2.27-2.778,5.392-9.17-4.57Z" transform="translate(-59.512 -127.849)" fill="#b55b52"/>
          <path id="Path_1352" data-name="Path 1352" d="M151.52,202.8c-.986,4.749-2.21,9.454-3.48,14.144s-2.659,9.335-4.107,13.98l-.538,1.747-.269.866a1.719,1.719,0,0,1-.149.359,4.987,4.987,0,0,0-.284,1.493,5.3,5.3,0,0,0,.866,3.062,9.448,9.448,0,0,0,.971,1.12l1.24,1.359,2.449,2.733c1.6,1.852,3.211,3.7,4.734,5.646l-5.212,5.974c-2.151-1.225-4.212-2.554-6.273-3.868l-3.062-2.031-1.494-1.031c-.508-.358-.926-.6-1.747-1.27a17.4,17.4,0,0,1-5.735-9.633,18.564,18.564,0,0,1-.284-5.825,10.313,10.313,0,0,1,.224-1.494l.164-.9.314-1.792c.836-4.794,1.733-9.574,2.733-14.323s2.076-9.484,3.346-14.159Z" transform="translate(-97.655 -130.248)" fill="#b55b52"/>
          <path id="Path_1353" data-name="Path 1353" d="M141.63,233.391l6.153-3.151,2.718,10.455s-4.944,1.9-8.767-.538Z" transform="translate(-91.439 -114.81)" fill="#b55b52"/>
          <path id="Path_1354" data-name="Path 1354" d="M154.421,227.99l.284,9.618-6.885,4.5-2.39-10.559Z" transform="translate(-89.564 -115.921)" fill="#b55b52"/>
          <path id="Path_1355" data-name="Path 1355" d="M164.953,168.967c.149.732.672,1.255,1.15,1.165s.762-.777.612-1.494-.672-1.255-1.15-1.165S164.8,168.265,164.953,168.967Z" transform="translate(-79.948 -145.793)" fill="#263238"/>
          <path id="Path_1356" data-name="Path 1356" d="M165.34,169.32a27.2,27.2,0,0,0,4.824,5.616,4.361,4.361,0,0,1-3.405,1.389Z" transform="translate(-79.737 -144.876)" fill="#a02724"/>
          <path id="Path_1357" data-name="Path 1357" d="M162.716,166.837a.448.448,0,0,1-.329-.747,4.481,4.481,0,0,1,3.779-1.494.448.448,0,0,1,.358.523.433.433,0,0,1-.508.358h0a3.51,3.51,0,0,0-2.987,1.195A.478.478,0,0,1,162.716,166.837Z" transform="translate(-81.251 -147.217)" fill="#263238"/>
          <path id="Path_1358" data-name="Path 1358" d="M151.374,175.44c1.643,6.855,3.3,19.416-2.584,23.971,0,0,2.3,6.96,17.922,6.96,17.176,0,8.215-4.481,8.215-4.481-9.379-1.822-9.14-9.962-7.468-15.294Z" transform="translate(-87.905 -141.856)" fill="#b55b52"/>
          <path id="Path_1359" data-name="Path 1359" d="M147.953,194.355c-1.016-1.9-2.151-4.077.179-4.764,2.569-.747,19.043-2.136,23.9-.732-1.494,2.644,1.031,5.974,1.031,5.974Z" transform="translate(-88.905 -135.531)" fill="#263238"/>
          <path id="Path_1360" data-name="Path 1360" d="M156.7,414.086h10.768l1.075-21.686H157.76Z" transform="translate(-84.001 -34.778)" fill="#b55b52"/>
          <path id="Path_1361" data-name="Path 1361" d="M110.91,411.983l10.918.582,6.631-21.373-10.918-.583Z" transform="translate(-106.6 -35.661)" fill="#b55b52"/>
          <path id="Path_1362" data-name="Path 1362" d="M122.923,405.472l-10.29-2.225a.807.807,0,0,0-.911.448l-3.57,7.751a1.359,1.359,0,0,0,.986,1.912c3.6.717,5.392.881,9.917,1.867,2.778.6,9.066,2.136,12.9,2.987s5.168-2.853,3.674-3.54c-6.721-3.062-9.529-5.765-11.351-8.289A2.315,2.315,0,0,0,122.923,405.472Z" transform="translate(-108.025 -29.435)" fill="#263238"/>
          <path id="Path_1363" data-name="Path 1363" d="M167.8,406.19H157.566a.821.821,0,0,0-.792.642l-1.852,8.319a1.359,1.359,0,0,0,1.344,1.673c3.689,0,8.961-.284,13.666-.284,5.422,0,10.1.3,16.429.3,3.838,0,4.914-3.883,3.3-4.242-7.333-1.6-13.307-1.777-19.64-5.675A4.392,4.392,0,0,0,167.8,406.19Z" transform="translate(-84.897 -27.972)" fill="#263238"/>
          <path id="Path_1364" data-name="Path 1364" d="M139.135,193.9c-8.125,3.868-10.335,27.317-10.335,27.317l20.118,9.29a38.5,38.5,0,0,0,5.377-18.923C154.7,199.475,147.454,190.006,139.135,193.9Z" transform="translate(-97.771 -133.182)" fill="#263238"/>
          <path id="Path_1365" data-name="Path 1365" d="M143.96,203.29c-3.629,5.646-3.286,14.368-2.031,21.731l.9.418a38.578,38.578,0,0,0,5.377-18.923V204.38Z" transform="translate(-91.722 -128.111)" opacity="0.4"/>
          <path id="Path_1366" data-name="Path 1366" d="M190.663,194.189s9.977,11.261.553,80.95H141.137c-.343-7.692,4.481-45.194-2.987-81.428a131.748,131.748,0,0,1,16.758-2.121,187.5,187.5,0,0,1,21.3,0A95.59,95.59,0,0,1,190.663,194.189Z" transform="translate(-93.157 -134.035)" fill="#407bff"/>
          <path id="Path_1367" data-name="Path 1367" d="M190.663,194.189s9.977,11.261.553,80.95H141.137c-.343-7.692,4.481-45.194-2.987-81.428a131.748,131.748,0,0,1,16.758-2.121,187.5,187.5,0,0,1,21.3,0A95.59,95.59,0,0,1,190.663,194.189Z" transform="translate(-93.157 -134.035)" fill="#fafafa" opacity="0.6"/>
          <path id="Path_1368" data-name="Path 1368" d="M179.625,209.3l-.179-.164-9.962-5.317c-1.016,15.339,5.84,24.957,9.917,29.154a214.155,214.155,0,0,0,.224-23.673Z" transform="translate(-77.742 -127.849)" opacity="0.2"/>
          <path id="Path_1369" data-name="Path 1369" d="M168.376,392.4l-.553,11.187H157.04l.553-11.187Z" transform="translate(-83.834 -34.778)" opacity="0.2"/>
          <path id="Path_1370" data-name="Path 1370" d="M116.48,390.62l10.918.568-3.42,11.022-10.918-.583Z" transform="translate(-105.539 -35.657)" opacity="0.2"/>
          <path id="Path_1371" data-name="Path 1371" d="M148.357,176.106c2.4,8.961,3.36,14.353,8.961,18.087,8.334,5.616,18.7-.836,19.028-10.35.284-8.558-3.689-21.806-13.322-23.613a12.68,12.68,0,0,0-14.667,15.876Z" transform="translate(-88.353 -149.482)" fill="#b55b52"/>
          <path id="Path_1372" data-name="Path 1372" d="M186.205,247.43s-10.634,71.555-16.429,98.379c-6.422,29.423-40.684,126.5-40.684,126.5l-16.772-3.629s21.492-79.157,26.884-120.2c2.091-16.026,4.615-41.819,7.811-63.371,3.092-20.91,6.9-37.667,6.9-37.667Z" transform="translate(-105.905 -106.326)" fill="#263238"/>
          <path id="Path_1373" data-name="Path 1373" d="M133.5,395.469l-3.136,6.064-18.848-4.092,1.583-5.661Z" transform="translate(-106.299 -35.084)" fill="#407bff"/>
          <path id="Path_1374" data-name="Path 1374" d="M133.5,395.469l-3.136,6.064-18.848-4.092,1.583-5.661Z" transform="translate(-106.299 -35.084)" fill="#fff" opacity="0.6"/>
          <path id="Path_1375" data-name="Path 1375" d="M160.74,264.534c-12.292,2.4-10.992,48.241-9.514,71.809,3.555-16.668,8.737-48.719,12.277-71.481A4.182,4.182,0,0,0,160.74,264.534Z" transform="translate(-87.16 -97.935)" opacity="0.6"/>
          <path id="Path_1376" data-name="Path 1376" d="M184.558,247.435s5,70.017,3.988,98.573c-1.06,29.707-15.144,126.951-15.144,126.951H157.54s-.582-95.586-1.284-124.7c-.777-31.812-4.615-100.844-4.615-100.844Z" transform="translate(-86.499 -106.331)" fill="#263238"/>
          <path id="Path_1377" data-name="Path 1377" d="M175.1,394.21c.075,0-.9,6.586-.9,6.586H154.9l-.523-5.884Z" transform="translate(-85.146 -33.885)" fill="#407bff"/>
          <path id="Path_1378" data-name="Path 1378" d="M175.1,394.21c.075,0-.9,6.586-.9,6.586H154.9l-.523-5.884Z" transform="translate(-85.146 -33.885)" fill="#fff" opacity="0.6"/>
          <path id="Path_1379" data-name="Path 1379" d="M169.4,206.341c0,18.789,9.992,26.525,9.992,26.525L195.686,217a134.12,134.12,0,0,0-13.128-18.266C173.134,187.94,169.4,194.273,169.4,206.341Z" transform="translate(-77.733 -133.088)" fill="#263238"/>
          <path id="Path_1380" data-name="Path 1380" d="M169.239,178.24a6.124,6.124,0,0,1-4.212,3.883,5.048,5.048,0,0,0-4.018,4.481h0a12.934,12.934,0,0,0,8.229-8.364Z" transform="translate(-81.874 -140.474)" opacity="0.2"/>
          <path id="Path_1381" data-name="Path 1381" d="M175.712,161.73c3.346-4.227-1.807-4.481-1.807-4.481,1.344-5.033-4.69-2.33-4.69-2.33-3.614-4.988-5.661,1.09-5.661,1.09-3.749-4.227-4.481,2.673-4.481,2.673-3.764-5.362-5.675,2.375-5.675,2.375-3.465-5.571-5.586,1.673-5.586,1.673-7.154-2.554-3.764,4.884-3.764,4.884-6.094.164-1.195,4.9-1.195,4.9-7.318,0-.866,4.2-.866,4.2-5.81,3.809,1.494,4.839,1.494,4.839-4.735,7.468,3.405,4.66,3.405,4.66-3.3,7.348,4,4.107,4,4.107-.463,7.079,3.614,5.153,5.586,3.838.373,1.494,1.09,2.987,2.4,3.107,2.554.343,2.987-4.481,2.987-4.481s2.36,1.852,4.346.851,1.24-3.525,1.24-3.525a2.494,2.494,0,0,0,2.987,0c.851-.657.851-5.407-.224-7.079l3.883-1.494s2.883-.4,1.6-4.212a11.082,11.082,0,0,1-.194-6.8c4.391-2.061.777-4.481.777-4.481C181.373,162.776,175.712,161.73,175.712,161.73Z" transform="translate(-92.559 -152.954)" fill="#263238"/>
          <path id="Path_1382" data-name="Path 1382" d="M158.479,172.467a10.455,10.455,0,0,0,3.779,5.586c2.434,1.822,4.257,0,4.077-2.733-.149-2.479-1.613-6.407-4.3-7.154S157.836,169.823,158.479,172.467Z" transform="translate(-83.196 -145.514)" fill="#b55b52"/>
        </g>
      </g>
    </g>
    <g id="Logo" transform="translate(101.597 887.007)" style="mix-blend-mode: overlay;isolation: isolate">
      <path id="Path_342" data-name="Path 342" d="M426.191,176.113l.041-.026-36.02-86.871-17.522,47.76-34.926,95.206a88.818,88.818,0,0,1-59.695,162.7l-34.926,95.2c92.777,23.644,190.248-26.309,223.942-118.146a189.009,189.009,0,0,0-40.893-195.815M301.133,218.742l34.926-95.2C243.277,99.9,145.811,149.85,112.117,241.688a189,189,0,0,0,40.9,195.83l-.062.036,36.015,86.871,17.538-47.785,34.926-95.2a88.818,88.818,0,0,1,59.694-162.7Z" transform="translate(-100.502 -89.216)" fill="#faa61a" fill-rule="evenodd"/>
    </g>
  </g>
</svg>
