<svg xmlns="http://www.w3.org/2000/svg" width="500" height="399.34" viewBox="0 0 500 399.34">
  <g id="Gift-rafiki" transform="translate(0 -28.22)" style="mix-blend-mode: luminosity;isolation: isolate">
    <g id="freepik--background-complete--inject-9">
      <rect id="Rectangle_1692" data-name="Rectangle 1692" width="500" height="0.25" transform="translate(0 382.4)" fill="#ebebeb"/>
      <rect id="Rectangle_1693" data-name="Rectangle 1693" width="97.6" height="0.25" transform="translate(332.11 389.21)" fill="#ebebeb"/>
      <rect id="Rectangle_1694" data-name="Rectangle 1694" width="46.67" height="0.25" transform="translate(289 394.99)" fill="#ebebeb"/>
      <rect id="Rectangle_1695" data-name="Rectangle 1695" width="19.19" height="0.25" transform="translate(430.71 398.49)" fill="#ebebeb"/>
      <rect id="Rectangle_1696" data-name="Rectangle 1696" width="92.53" height="0.25" transform="translate(126.47 395.11)" fill="#ebebeb"/>
      <rect id="Rectangle_1697" data-name="Rectangle 1697" width="19.9" height="0.25" transform="translate(97.67 395.11)" fill="#ebebeb"/>
      <rect id="Rectangle_1698" data-name="Rectangle 1698" width="32.86" height="0.25" transform="translate(57.79 390.89)" fill="#ebebeb"/>
      <path id="Path_1011" data-name="Path 1011" d="M237,337.8H43.91a5.71,5.71,0,0,1-5.7-5.71V60.66A5.71,5.71,0,0,1,43.91,55H237a5.71,5.71,0,0,1,5.71,5.71V332.09A5.71,5.71,0,0,1,237,337.8ZM43.91,55.2a5.46,5.46,0,0,0-5.45,5.46V332.09a5.46,5.46,0,0,0,5.45,5.46H237a5.47,5.47,0,0,0,5.46-5.46V60.66A5.47,5.47,0,0,0,237,55.2Z" fill="#ebebeb"/>
      <path id="Path_1012" data-name="Path 1012" d="M453.31,337.8H260.21a5.72,5.72,0,0,1-5.71-5.71V60.66A5.72,5.72,0,0,1,260.21,55h193.1A5.71,5.71,0,0,1,459,60.66V332.09A5.71,5.71,0,0,1,453.31,337.8ZM260.21,55.2a5.47,5.47,0,0,0-5.46,5.46V332.09a5.47,5.47,0,0,0,5.46,5.46h193.1a5.47,5.47,0,0,0,5.46-5.46V60.66a5.47,5.47,0,0,0-5.46-5.46Z" fill="#ebebeb"/>
      <rect id="Rectangle_1699" data-name="Rectangle 1699" width="177.33" height="7.84" transform="translate(287.42 374.56)" fill="#ebebeb"/>
      <rect id="Rectangle_1700" data-name="Rectangle 1700" width="6.75" height="7.84" transform="translate(471.5 382.39) rotate(180)" fill="#e0e0e0"/>
      <rect id="Rectangle_1701" data-name="Rectangle 1701" width="6.75" height="5.33" transform="translate(466.5 374.56) rotate(180)" fill="#e0e0e0"/>
      <rect id="Rectangle_1702" data-name="Rectangle 1702" width="167.33" height="5.33" transform="translate(292.42 369.22)" fill="#ebebeb"/>
      <rect id="Rectangle_1703" data-name="Rectangle 1703" width="133.83" height="119.22" transform="translate(309.17 250)" fill="#f5f5f5"/>
      <rect id="Rectangle_1704" data-name="Rectangle 1704" width="9.83" height="119.22" transform="translate(452.83 369.22) rotate(180)" fill="#e0e0e0"/>
      <rect id="Rectangle_1705" data-name="Rectangle 1705" width="144.94" height="10.33" transform="translate(303.61 239.67)" fill="#f5f5f5"/>
      <rect id="Rectangle_1706" data-name="Rectangle 1706" width="7.28" height="10.33" transform="translate(455.83 250) rotate(180)" fill="#e0e0e0"/>
      <path id="Path_1013" data-name="Path 1013" d="M402.86,50.81V239.67H357.69V50.81a22.59,22.59,0,0,1,22.59-22.59,21.42,21.42,0,0,1,4.19.4,22.58,22.58,0,0,1,18.39,22.19Z" fill="#f5f5f5"/>
      <path id="Path_1014" data-name="Path 1014" d="M396.53,35.13V239.67H384.47v-211A22.43,22.43,0,0,1,396.53,35.13Z" fill="#f0f0f0"/>
      <rect id="Rectangle_1707" data-name="Rectangle 1707" width="133.83" height="2.56" transform="translate(309.17 250)" fill="#e0e0e0"/>
      <rect id="Rectangle_1708" data-name="Rectangle 1708" width="95.17" height="88.56" transform="translate(328.5 280.67)" fill="#e0e0e0"/>
      <path id="Path_1015" data-name="Path 1015" d="M336.72,353.31l78.72-4.2v12.64l-78.72,4.2Z" fill="#e6e6e6"/>
      <path id="Path_1016" data-name="Path 1016" d="M409.67,346.53l-67.17-4.2v12.65l67.17,4.19Z" fill="#e6e6e6"/>
      <path id="Path_1017" data-name="Path 1017" d="M376.12,353c-18.35,0-25.6-15.76-19-28.95s3.9-16.76,3.9-16.76,8.2,7.1,8.2,12.38c6.45-6.07-9.56-19.11-2.93-32.17,4.93,8.71,8.21,13.07,23.08,25.86C403.36,325.37,412,353,376.12,353Z" fill="#fafafa"/>
      <path id="Path_1018" data-name="Path 1018" d="M379.77,351c10,0,14.66-9.28,9.93-16.47s-2.4-9.48-2.4-9.48-5,4.22-4.56,7.1c-4-3.31,1.63-11.41-3.09-18.53-1.95,4.74-1.46,8.08-8.43,15.09C363.89,336.05,360.21,351,379.77,351Z" fill="#f0f0f0" opacity="0.5"/>
      <path id="Path_1019" data-name="Path 1019" d="M377.85,348.19c-4.46,0-6.54-4.14-4.43-7.34s1.07-4.23,1.07-4.23,2.24,1.88,2,3.16c1.79-1.47-.73-5.09,1.37-8.26.87,2.12.66,3.6,3.76,6.73C384.93,341.54,386.57,348.19,377.85,348.19Z" fill="#e6e6e6" opacity="0.5"/>
      <rect id="Rectangle_1709" data-name="Rectangle 1709" width="81.05" height="125.51" transform="translate(56.11 256.88)" fill="#f0f0f0"/>
      <rect id="Rectangle_1710" data-name="Rectangle 1710" width="105.96" height="1.41" transform="translate(65.24 266.66) rotate(90)" fill="#e6e6e6"/>
      <rect id="Rectangle_1711" data-name="Rectangle 1711" width="64.33" height="1.78" transform="translate(63.83 266.66)" fill="#e6e6e6"/>
      <rect id="Rectangle_1712" data-name="Rectangle 1712" width="81.05" height="125.51" transform="translate(138.57 256.88)" fill="#f0f0f0"/>
      <rect id="Rectangle_1713" data-name="Rectangle 1713" width="8.08" height="125.51" transform="translate(227.71 382.4) rotate(180)" fill="#e0e0e0"/>
      <rect id="Rectangle_1714" data-name="Rectangle 1714" width="105.96" height="1.41" transform="translate(147.7 266.66) rotate(90)" fill="#e6e6e6"/>
      <rect id="Rectangle_1715" data-name="Rectangle 1715" width="124.09" height="1.41" transform="translate(138.57 258.31) rotate(90)" fill="#e6e6e6"/>
      <rect id="Rectangle_1716" data-name="Rectangle 1716" width="64.33" height="1.78" transform="translate(146.29 266.66)" fill="#e6e6e6"/>
      <rect id="Rectangle_1717" data-name="Rectangle 1717" width="3.03" height="27.73" transform="translate(131.45 284.65)" fill="#e0e0e0"/>
      <rect id="Rectangle_1718" data-name="Rectangle 1718" width="3.03" height="27.73" transform="translate(141.25 284.65)" fill="#e0e0e0"/>
      <rect id="Rectangle_1719" data-name="Rectangle 1719" width="144.26" height="144.26" transform="translate(69.78 85.14)" fill="#fafafa"/>
      <path id="Path_1020" data-name="Path 1020" d="M81.21,229.4,132.33,85.14h38.36L119.57,229.4Z" fill="#fff"/>
      <path id="Path_1021" data-name="Path 1021" d="M127.67,229.4,178.78,85.14h13.99L141.66,229.4Z" fill="#fff"/>
      <path id="Path_1022" data-name="Path 1022" d="M223.62,80.18H60.2a.9.9,0,0,0-.9.89h0a.9.9,0,0,0,.9.89H223.62a.89.89,0,0,0,.89-.89h0a.89.89,0,0,0-.89-.89Z" fill="#e0e0e0"/>
      <rect id="Rectangle_1720" data-name="Rectangle 1720" width="2.38" height="144.88" transform="translate(143.1 229.71) rotate(180)" fill="#f0f0f0"/>
      <rect id="Rectangle_1721" data-name="Rectangle 1721" width="1.19" height="144.88" transform="translate(144.29 229.71) rotate(180)" fill="#e0e0e0"/>
      <rect id="Rectangle_1722" data-name="Rectangle 1722" width="2.38" height="147.04" transform="translate(68.39 158.46) rotate(-90)" fill="#f0f0f0"/>
      <path id="Path_1023" data-name="Path 1023" d="M215.43,228.41h0V83.75h-147V228.41h0v2.38h147Zm-144.66,0V86.13H213.05V228.41Z" fill="#f0f0f0"/>
      <rect id="Rectangle_1723" data-name="Rectangle 1723" width="1.19" height="147.04" transform="translate(216.62 230.79) rotate(180)" fill="#e0e0e0"/>
      <path id="Path_1024" data-name="Path 1024" d="M185.89,77.99V235.45H228.9L221.01,77.99Z" fill="#ebebeb" opacity="0.5"/>
      <path id="Path_1025" data-name="Path 1025" d="M99.12,77.99V235.45H56.11L64,77.99Z" fill="#ebebeb" opacity="0.5"/>
      <rect id="Rectangle_1724" data-name="Rectangle 1724" width="39.78" height="39.78" transform="translate(270.92 107.93)" fill="#ebebeb"/>
      <rect id="Rectangle_1725" data-name="Rectangle 1725" width="3.53" height="39.78" transform="translate(314.23 147.71) rotate(180)" fill="#e0e0e0"/>
      <rect id="Rectangle_1726" data-name="Rectangle 1726" width="29" height="29" transform="translate(276.31 113.32)" fill="#fff"/>
      <rect id="Rectangle_1727" data-name="Rectangle 1727" width="21.88" height="21.88" transform="translate(279.87 116.88)" fill="#f5f5f5"/>
      <rect id="Rectangle_1728" data-name="Rectangle 1728" width="39.78" height="39.78" transform="translate(289.05 156.6)" fill="#ebebeb"/>
      <rect id="Rectangle_1729" data-name="Rectangle 1729" width="3.53" height="39.78" transform="translate(332.35 196.37) rotate(180)" fill="#e0e0e0"/>
      <rect id="Rectangle_1730" data-name="Rectangle 1730" width="29" height="29" transform="translate(294.44 161.99)" fill="#fff"/>
      <rect id="Rectangle_1731" data-name="Rectangle 1731" width="21.88" height="21.88" rx="7.3" transform="translate(298 165.55)" fill="#f5f5f5"/>
    </g>
    <g id="freepik--Shadow--inject-9">
      <ellipse id="freepik--path--inject-9" cx="193.89" cy="11.32" rx="193.89" ry="11.32" transform="translate(56.11 404.92)" fill="#f5f5f5"/>
    </g>
    <g id="freepik--Gift--inject-9">
      <rect id="Rectangle_1732" data-name="Rectangle 1732" width="1" height="13.44" transform="translate(76.33 289.89)" fill="#407bff"/>
      <rect id="Rectangle_1733" data-name="Rectangle 1733" width="1" height="5.56" transform="translate(76.33 307.33)" fill="#407bff"/>
      <path id="Path_1026" data-name="Path 1026" d="M79.83,240.77H243.36V416.24H84.51a4.67,4.67,0,0,1-4.67-4.67V240.77Z" fill="#407bff"/>
      <path id="Path_1027" data-name="Path 1027" d="M243.36,240.77H79.83v12.44h94.09l3.12,163.03,2.18-163.03h64.14Z" opacity="0.2"/>
      <path id="Path_1028" data-name="Path 1028" d="M78.42,214.1H243.36v35.56H78.42a2.33,2.33,0,0,1-2.33-2.33V216.44a2.33,2.33,0,0,1,2.33-2.34Z" fill="#407bff"/>
      <path id="Path_1029" data-name="Path 1029" d="M142.8,416.24,141.09,214.1h35.56l1.7,202.14Z" fill="#263238"/>
      <path id="Path_1030" data-name="Path 1030" d="M248,240.77h64.41V416.24H243.36V245.44a4.67,4.67,0,0,1,4.64-4.67Z" transform="translate(555.81 657.01) rotate(180)" fill="#407bff"/>
      <path id="Path_1031" data-name="Path 1031" d="M248,240.77h64.41V416.24H243.36V245.44a4.67,4.67,0,0,1,4.64-4.67Z" transform="translate(555.81 657.01) rotate(180)" opacity="0.2"/>
      <path id="Path_1032" data-name="Path 1032" d="M243.36,240.77h69.08v12.44H273.89l-5.24,163.03.57-163.03H243.36Z" opacity="0.2"/>
      <path id="Path_1033" data-name="Path 1033" d="M245.7,214.1h70.5v35.56H245.7a2.33,2.33,0,0,1-2.33-2.33V216.44a2.33,2.33,0,0,1,2.33-2.34Z" transform="translate(559.56 463.76) rotate(180)" fill="#407bff"/>
      <path id="Path_1034" data-name="Path 1034" d="M245.7,214.1h70.5v35.56H245.7a2.33,2.33,0,0,1-2.33-2.33V216.44a2.33,2.33,0,0,1,2.33-2.34Z" transform="translate(559.56 463.76) rotate(180)" opacity="0.2"/>
      <path id="Path_1035" data-name="Path 1035" d="M268.65,416.24l2.98-202.14h22.19l-2.98,202.14Z" fill="#263238"/>
      <path id="Path_1036" data-name="Path 1036" d="M268.65,416.24l2.98-202.14h22.19l-2.98,202.14Z" opacity="0.2"/>
      <path id="Path_1037" data-name="Path 1037" d="M280.23,147v-.05H251.14a13.64,13.64,0,0,0-4.82,1.32c-29.5,12.36-43.84,44.75-50.18,65.79H225.9S296.33,145,280.23,147Z" fill="#263238"/>
      <path id="Path_1038" data-name="Path 1038" d="M225.9,214.1c0-27.33,20.68-53.43,50.18-65.79S225.9,214.1,225.9,214.1Z" opacity="0.5"/>
      <path id="Path_1039" data-name="Path 1039" d="M287.83,164.31H266.24a13,13,0,0,0-4,1c-25.44,9.18-45.37,33.23-56.12,48.85h22.1S300.36,162.81,287.83,164.31Z" fill="#263238"/>
      <path id="Path_1040" data-name="Path 1040" d="M228.26,214.1c10.41-27,30.68-39.67,56.12-48.85S228.26,214.1,228.26,214.1Z" opacity="0.5"/>
      <path id="Path_1041" data-name="Path 1041" d="M142.45,138.47v-.06H113.29a3,3,0,0,0-2.65,1.49c-9.1,13.93,30,50.46,58.43,74.19h29.76S155.23,136.2,142.45,138.47Z" fill="#263238"/>
      <path id="Path_1042" data-name="Path 1042" d="M198.83,214.1c-28.39-23.73-67.53-60.26-58.43-74.19S198.83,214.1,198.83,214.1Z" opacity="0.5"/>
      <path id="Path_1043" data-name="Path 1043" d="M172.85,158H151.21a3.07,3.07,0,0,0-2.28,1.1c-9.64,10.35,11.84,37.48,28,55.09H199S182.8,156.26,172.85,158Z" fill="#263238"/>
      <path id="Path_1044" data-name="Path 1044" d="M199,214.1c-16.16-17.62-37.65-44.74-28-55.09S199,214.1,199,214.1Z" opacity="0.5"/>
    </g>
    <g id="freepik--Character--inject-9">
      <path id="Path_1045" data-name="Path 1045" d="M384.52,401.59l7.64-2.47-3.68-18.34-7.64,2.46Z" fill="#ff8b7b"/>
      <path id="Path_1046" data-name="Path 1046" d="M323.93,408.04h8.02l2.14-18.59h-8.03Z" fill="#ff8b7b"/>
      <path id="Path_1047" data-name="Path 1047" d="M332.72,407.11h-9.79a.67.67,0,0,0-.66.55L321,414.8a1.23,1.23,0,0,0,1.23,1.42c3.15-.05,5.44-.24,9.41-.24,2.44,0,9.8.26,13.17.26s3.67-3.33,2.28-3.64c-6.24-1.35-11-3.21-13-5a2,2,0,0,0-1.37-.49Z" fill="#263238"/>
      <path id="Path_1048" data-name="Path 1048" d="M391.82,398.26,383.47,401a.7.7,0,0,0-.48.73l.68,7.28a1.17,1.17,0,0,0,1.54,1c3-1,7.29-2.6,11.07-3.82,4.42-1.43,7.05-2.15,12.23-3.83,3.14-1,3-4.46,1.58-4.32-6.4.62-10,1.79-16.24.27a3.6,3.6,0,0,0-2.03-.05Z" fill="#263238"/>
      <path id="Path_1049" data-name="Path 1049" d="M351.58,164.48c1,2.25,2.12,4.68,3.24,7s2.26,4.67,3.46,6.95,2.38,4.57,3.66,6.76,2.58,4.35,3.95,6.42c.7,1,1.38,2,2.12,2.94l1.09,1.39a6.056,6.056,0,0,0,.67.77,3.449,3.449,0,0,0,1.25.84,4.51,4.51,0,0,0,2,.18,16.33,16.33,0,0,0,5.77-2.22c1-.58,2-1.25,3-1.95s2-1.51,2.92-2.2l4.64,3.83a33.169,33.169,0,0,1-2.62,3.59,32.133,32.133,0,0,1-3.07,3.23,25.672,25.672,0,0,1-3.7,2.88,18.769,18.769,0,0,1-4.68,2.22,13.73,13.73,0,0,1-6,.55,13.43,13.43,0,0,1-6-2.36,17,17,0,0,1-2.28-1.95l-1.51-1.66c-1-1.1-1.89-2.24-2.82-3.37a114.388,114.388,0,0,1-9.1-14.17c-1.33-2.43-2.6-4.87-3.78-7.36s-2.33-4.93-3.41-7.6Z" fill="#ff8b7b"/>
      <path id="Path_1050" data-name="Path 1050" d="M336.89,165.2c-1.43,7.53,7.93,18.3,7.93,18.3l13.75-5.92s-1.43-8.63-6.92-14.86C344.92,155.09,338.46,157,336.89,165.2Z" fill="#407bff"/>
      <path id="Path_1051" data-name="Path 1051" d="M344.32,167.86c-3.75-1.34-6.52-.9-7.52,0,.68,7.16,8,15.6,8,15.6l9.74-4.19A17.523,17.523,0,0,0,344.32,167.86Z" opacity="0.2"/>
      <path id="Path_1052" data-name="Path 1052" d="M383.55,193.05l4.39-9.25,6.16,6.44s-1.75,7.38-7.52,6.44Z" fill="#ff8b7b"/>
      <path id="Path_1053" data-name="Path 1053" d="M391.46,179.45l4.77,5.91-2.13,4.88-6.16-6.44Z" fill="#ff8b7b"/>
      <path id="Path_1054" data-name="Path 1054" d="M388.48,380.78l1.9,9.46-7.65,2.46-1.89-9.45Z" opacity="0.2"/>
      <path id="Path_1055" data-name="Path 1055" d="M326.06,389.46h8.03l-1.1,9.58h-8.04Z" opacity="0.2"/>
      <path id="Path_1056" data-name="Path 1056" d="M300.87,165.31c11.57,29.51,13,61.89,14.4,68.33l42.31-7.34c1-39.88-9-61.92-11.68-67.09a2.4,2.4,0,0,0-2-1.29c-1.18-.08-3-.17-5.24-.18-1.18,0-2.45,0-3.77.07-.73,0-1.47.08-2.21.13a159.412,159.412,0,0,0-18,3.13c-1.12.25-2.26.53-3.36.82s-2,.57-3,.86C304.14,164,300.87,165.31,300.87,165.31Z" fill="#407bff"/>
      <path id="Path_1057" data-name="Path 1057" d="M305,177.18c1.4,4.62,2.6,9.22,3.61,13.68,1.33-8.07,1.92-16.36,1.92-16.36Z" opacity="0.2"/>
      <path id="Path_1058" data-name="Path 1058" d="M313.09,140.63c2.13,5.59,5.11,16,1.73,20.56,3.68,2.58,8.42,5.48,15.33,4.53s4.9-5.47,2.65-7.65c-6.72-.42-7.38-5.24-7-9.93Z" fill="#ff8b7b"/>
      <path id="Path_1059" data-name="Path 1059" d="M334.65,167.63s5.35-4.84-.51-9.89a6.769,6.769,0,0,0-2.27.24s6.57,5.62-.91,7.6a36.7,36.7,0,0,1-16.18-4.91,5.539,5.539,0,0,0-1.69.68c2.06,4.13,16.06,7.37,16.06,7.37a6.87,6.87,0,0,1,.67-1.87A76.556,76.556,0,0,1,333,178.71a19.429,19.429,0,0,0,2.79-.63,107.289,107.289,0,0,0-3-11.78,7.1,7.1,0,0,1,1.86,1.33Z" fill="#fff"/>
      <path id="Path_1060" data-name="Path 1060" d="M318.25,143.7l7.5,4.44a20.083,20.083,0,0,0,0,3.29c-2.52.07-6.38-2.05-7.09-4.59A9,9,0,0,1,318.25,143.7Z" opacity="0.2"/>
      <path id="Path_1061" data-name="Path 1061" d="M328.07,132.75c5.88-2.24,5.27-17.28-3.78-15.06-6.12,1.5-5.49,3.35-4.37,7.28S324.35,134.17,328.07,132.75Z" fill="#263238"/>
      <path id="Path_1062" data-name="Path 1062" d="M310.89,132.05c1.84,7.75,2.52,12.38,7.18,15.71,7,5,16-.25,16.56-8.39.46-7.33-2.63-18.78-10.84-20.56a10.86,10.86,0,0,0-12.9,13.24Z" fill="#ff8b7b"/>
      <path id="Path_1063" data-name="Path 1063" d="M312,137.67c5.88-2.24,3.62-17-5.43-14.75-6.12,1.5-5.06,5-3.34,8.44C305.08,135,308.31,139.09,312,137.67Z" fill="#263238"/>
      <path id="Path_1064" data-name="Path 1064" d="M325.44,111.59c-1.53-3.91-9.5-6.73-10.95.87-6.7-.45-22.66,12.52-3.71,12.47,9.37,2.36,23.25-2.8,23.46-8.23S327.74,109.31,325.44,111.59Z" fill="#263238"/>
      <path id="Path_1065" data-name="Path 1065" d="M308.9,139.54a7,7,0,0,0,4.38,3c2.34.46,3.24-1.75,2.36-3.93-.79-2-3-4.55-5.2-4S307.64,137.64,308.9,139.54Z" fill="#ff8b7b"/>
      <path id="Path_1066" data-name="Path 1066" d="M392.67,387.55l-12.94,4.17S366.86,345.09,362,320.56c-1.49-7.47-5.61-17-9.26-28-4.61-13.83-10.15-28.72-14.62-40.37-4.72-12.27-8.2-21.08-8.2-21.08l27.67-4.81s23.85,64.61,27.17,88.88C388.21,340.42,392.67,387.55,392.67,387.55Z" fill="#263238"/>
      <path id="Path_1067" data-name="Path 1067" d="M352.73,292.56c-4.61-13.83-10.15-28.72-14.62-40.37l2.26-6.56C348.16,253.17,352.65,278.54,352.73,292.56Z" opacity="0.2"/>
      <path id="Path_1068" data-name="Path 1068" d="M344.4,228.59s2.25,69.12,1.25,92.61c-1.1,25.74-8.95,76-8.95,76H322s3.28-45.57,3-70.68c-.35-28.6-9.68-92.86-9.68-92.86Z" fill="#263238"/>
      <path id="Path_1069" data-name="Path 1069" d="M338.46,397.5H321.14v-5.17l19.36-.34Z" fill="#407bff"/>
      <path id="Path_1070" data-name="Path 1070" d="M394.39,387.33l-15.41,4.97-1.61-4.98,17.15-5.82Z" fill="#407bff"/>
      <path id="Path_1071" data-name="Path 1071" d="M323.15,132.17c.11.64.54,1.1,1,1s.66-.65.55-1.29-.54-1.09-1-1S323,131.54,323.15,132.17Z" fill="#263238"/>
      <path id="Path_1072" data-name="Path 1072" d="M330.36,130.92c.11.64.54,1.1,1,1s.66-.65.55-1.29-.54-1.1-.95-1A1.081,1.081,0,0,0,330.36,130.92Z" fill="#263238"/>
      <path id="Path_1073" data-name="Path 1073" d="M328.12,131.64a22.91,22.91,0,0,0,4,4.92,3.76,3.76,0,0,1-2.95,1.11Z" fill="#ff5652"/>
      <path id="Path_1074" data-name="Path 1074" d="M326.78,139.84a5.35,5.35,0,0,1-4-1.47.19.19,0,0,1,0-.27.2.2,0,0,1,.27,0,5.12,5.12,0,0,0,4.46,1.26.2.2,0,0,1,.22.16.19.19,0,0,1-.15.22,6.7,6.7,0,0,1-.8.1Z" fill="#263238"/>
      <path id="Path_1075" data-name="Path 1075" d="M320.52,130.23a.326.326,0,0,1-.35-.51A3.81,3.81,0,0,1,323,127.6a.382.382,0,1,1,.08.76h0a3,3,0,0,0-2.18,1.66.37.37,0,0,1-.38.21Z" fill="#263238"/>
      <path id="Path_1076" data-name="Path 1076" d="M333,127.9a.39.39,0,0,1-.33-.15,3,3,0,0,0-2.4-1.33.39.39,0,0,1-.4-.37.38.38,0,0,1,.36-.39,3.77,3.77,0,0,1,3.06,1.64.38.38,0,0,1-.08.53A.35.35,0,0,1,333,127.9Z" fill="#263238"/>
      <path id="Path_1077" data-name="Path 1077" d="M335.43,408.52a9.859,9.859,0,0,1-2.11-.29.2.2,0,0,1-.15-.16.18.18,0,0,1,.08-.19c.28-.18,2.81-1.77,3.71-1.32a.63.63,0,0,1,.35.54,1.1,1.1,0,0,1-.35,1,2.39,2.39,0,0,1-1.53.42Zm-1.57-.56c1.37.27,2.42.22,2.84-.15a.7.7,0,0,0,.23-.68.24.24,0,0,0-.13-.23c-.47-.24-1.91.45-2.94,1.1Z" fill="#407bff"/>
      <path id="Path_1078" data-name="Path 1078" d="M333.36,408.23a.19.19,0,0,1-.1,0,.18.18,0,0,1-.09-.17c0-.1.1-2.42,1-3.18a1,1,0,0,1,.8-.24h0a.63.63,0,0,1,.62.49c.21.9-1.32,2.66-2.14,3.11Zm1.49-3.25a.6.6,0,0,0-.43.17,4.3,4.3,0,0,0-.84,2.51c.8-.63,1.77-2,1.64-2.48,0-.05,0-.17-.28-.2h-.09Z" fill="#407bff"/>
      <path id="Path_1079" data-name="Path 1079" d="M392.91,399.07a.216.216,0,0,1-.17-.32c.29-.3,2.86-2.84,4-2.63a.64.64,0,0,1,.46.39h0a1.08,1.08,0,0,1-.06,1c-.6,1-2.89,1.42-4.19,1.57Zm3.67-2.58c-.64,0-2.1,1.16-3.12,2.13,1.77-.27,3-.75,3.34-1.31a.7.7,0,0,0,0-.66.2.2,0,0,0-.17-.15Z" fill="#407bff"/>
      <path id="Path_1080" data-name="Path 1080" d="M392.91,399.07h-.05a.17.17,0,0,1-.13-.14c0-.09-.48-2.21.23-3.32a1.41,1.41,0,0,1,.91-.64h0c.51-.11.74.1.83.29.42.82-.87,3.06-1.66,3.77A.21.21,0,0,1,392.91,399.07Zm1.23-3.76h-.19a1,1,0,0,0-.67.47,4.42,4.42,0,0,0-.24,2.68c.75-.87,1.58-2.57,1.33-3.06A.23.23,0,0,0,394.14,395.31ZM393.91,395.15Z" fill="#407bff"/>
      <path id="Path_1081" data-name="Path 1081" d="M310.64,175.26c-1,2.3-2,4.78-3,7.21s-1.92,4.88-2.81,7.34-1.77,4.9-2.53,7.36-1.48,4.91-2.06,7.33c-.27,1.21-.56,2.42-.74,3.6l-.16.89v-.04a1.5,1.5,0,0,0-.39-.8c-.3-.19.14.38.92.76a18,18,0,0,0,2.9,1.18,94.108,94.108,0,0,0,15,2.69l.32,6a61.376,61.376,0,0,1-8.49,1,46.549,46.549,0,0,1-8.84-.33,23.31,23.31,0,0,1-4.85-1.17,15.318,15.318,0,0,1-2.71-1.29,10.59,10.59,0,0,1-2.91-2.58,9.09,9.09,0,0,1-1.82-4.55,9.924,9.924,0,0,1,0-1.21v-.85l.11-1.12c.12-1.51.35-2.95.57-4.41a114.817,114.817,0,0,1,4.28-16.49c.91-2.65,1.84-5.27,2.89-7.86s2.07-5.11,3.32-7.74Z" fill="#ff8b7b"/>
      <path id="Path_1082" data-name="Path 1082" d="M300.87,165.31c-4.16,2.25-7.05,15.77-7.05,15.77l12.3,7.56s3.19-6.25,5.53-11.39C316.13,167.42,309.05,160.89,300.87,165.31Z" fill="#407bff"/>
      <path id="Path_1083" data-name="Path 1083" d="M316.67,212.65l8.09-.35-3.59,7.7s-7.62-.46-6.61-4.11Z" fill="#ff8b7b"/>
      <path id="Path_1084" data-name="Path 1084" d="M330.09,217.6l-4.03,5.02-4.88-2.66,3.58-7.67Z" fill="#ff8b7b"/>
    </g>
  </g>
</svg>
