<svg xmlns="http://www.w3.org/2000/svg" xmlns:xlink="http://www.w3.org/1999/xlink" width="513" height="618" viewBox="0 0 513 618">
  <defs>
    <clipPath id="clip-path">
      <path id="Rectangle_1776" data-name="Rectangle 1776" d="M20,0H513a0,0,0,0,1,0,0V618a0,0,0,0,1,0,0H20A20,20,0,0,1,0,598V20A20,20,0,0,1,20,0Z" transform="translate(0 0)" fill="#fff"/>
    </clipPath>
  </defs>
  <g id="rewards" transform="translate(-1534 -426.236)">
    <g id="Mask_Group_16" data-name="Mask Group 16" transform="translate(1534 426.236)" clip-path="url(#clip-path)">
      <g id="Gift-rafiki" transform="translate(-16.371 124.955)" style="mix-blend-mode: luminosity;isolation: isolate">
        <g id="freepik--background-complete--inject-9" transform="translate(0 0)">
          <rect id="Rectangle_1734" data-name="Rectangle 1734" width="544.459" height="0.272" transform="translate(0 385.673)" fill="#ebebeb"/>
          <rect id="Rectangle_1735" data-name="Rectangle 1735" width="106.278" height="0.272" transform="translate(361.641 393.089)" fill="#ebebeb"/>
          <rect id="Rectangle_1736" data-name="Rectangle 1736" width="50.82" height="0.272" transform="translate(314.697 399.383)" fill="#ebebeb"/>
          <rect id="Rectangle_1737" data-name="Rectangle 1737" width="20.896" height="0.272" transform="translate(469.008 403.194)" fill="#ebebeb"/>
          <rect id="Rectangle_1738" data-name="Rectangle 1738" width="100.758" height="0.272" transform="translate(137.716 399.513)" fill="#ebebeb"/>
          <rect id="Rectangle_1739" data-name="Rectangle 1739" width="21.669" height="0.272" transform="translate(106.355 399.513)" fill="#ebebeb"/>
          <rect id="Rectangle_1740" data-name="Rectangle 1740" width="35.782" height="0.272" transform="translate(62.929 394.918)" fill="#ebebeb"/>
          <path id="Path_1085" data-name="Path 1085" d="M254.676,362.946H44.417a6.218,6.218,0,0,1-6.207-6.218V61.163A6.218,6.218,0,0,1,44.417,55H254.676a6.218,6.218,0,0,1,6.218,6.218V356.728A6.218,6.218,0,0,1,254.676,362.946ZM44.417,55.218a5.946,5.946,0,0,0-5.935,5.945V356.728a5.946,5.946,0,0,0,5.935,5.945H254.676a5.956,5.956,0,0,0,5.946-5.946V61.163a5.956,5.956,0,0,0-5.946-5.945Z" transform="translate(3.398 -25.839)" fill="#ebebeb"/>
          <path id="Path_1086" data-name="Path 1086" d="M470.988,362.946H260.718a6.229,6.229,0,0,1-6.218-6.218V61.163A6.229,6.229,0,0,1,260.718,55h210.27a6.218,6.218,0,0,1,6.2,6.163V356.728A6.218,6.218,0,0,1,470.988,362.946ZM260.718,55.218a5.956,5.956,0,0,0-5.945,5.945V356.728a5.956,5.956,0,0,0,5.945,5.945h210.27a5.956,5.956,0,0,0,5.945-5.946V61.163a5.956,5.956,0,0,0-5.945-5.945Z" transform="translate(22.63 -25.839)" fill="#ebebeb"/>
          <rect id="Rectangle_1741" data-name="Rectangle 1741" width="193.098" height="8.537" transform="translate(312.977 377.136)" fill="#ebebeb"/>
          <rect id="Rectangle_1742" data-name="Rectangle 1742" width="7.35" height="8.537" transform="translate(513.425 385.662) rotate(180)" fill="#e0e0e0"/>
          <rect id="Rectangle_1743" data-name="Rectangle 1743" width="7.35" height="5.804" transform="translate(507.98 377.136) rotate(180)" fill="#e0e0e0"/>
          <rect id="Rectangle_1744" data-name="Rectangle 1744" width="182.209" height="5.804" transform="translate(318.422 371.321)" fill="#ebebeb"/>
          <rect id="Rectangle_1745" data-name="Rectangle 1745" width="145.73" height="129.821" transform="translate(336.661 241.5)" fill="#f5f5f5"/>
          <rect id="Rectangle_1746" data-name="Rectangle 1746" width="10.704" height="129.821" transform="translate(493.095 371.321) rotate(180)" fill="#e0e0e0"/>
          <rect id="Rectangle_1747" data-name="Rectangle 1747" width="157.828" height="11.249" transform="translate(330.607 230.252)" fill="#f5f5f5"/>
          <rect id="Rectangle_1748" data-name="Rectangle 1748" width="7.927" height="11.249" transform="translate(496.362 241.5) rotate(180)" fill="#e0e0e0"/>
          <path id="Path_1087" data-name="Path 1087" d="M406.876,52.819V258.472H357.69V52.819a24.6,24.6,0,0,1,24.6-24.6,23.325,23.325,0,0,1,4.563.436,24.588,24.588,0,0,1,20.025,24.163Z" transform="translate(31.805 -28.22)" fill="#f5f5f5"/>
          <path id="Path_1088" data-name="Path 1088" d="M397.6,35.7V258.432H384.47V28.67A24.425,24.425,0,0,1,397.6,35.7Z" transform="translate(34.186 -28.18)" fill="#f0f0f0"/>
          <rect id="Rectangle_1749" data-name="Rectangle 1749" width="145.73" height="2.788" transform="translate(336.661 241.5)" fill="#e0e0e0"/>
          <rect id="Rectangle_1750" data-name="Rectangle 1750" width="103.632" height="96.435" transform="translate(357.71 274.898)" fill="#e0e0e0"/>
          <path id="Path_1089" data-name="Path 1089" d="M336.72,353.683l85.72-4.573v13.764l-85.72,4.573Z" transform="translate(29.941 0.313)" fill="#e6e6e6"/>
          <path id="Path_1090" data-name="Path 1090" d="M415.643,346.9,342.5,342.33V356.1l73.143,4.563Z" transform="translate(30.455 -0.29)" fill="#e6e6e6"/>
          <path id="Path_1091" data-name="Path 1091" d="M378.023,358.824c-19.982,0-27.876-17.161-20.689-31.524s4.247-18.25,4.247-18.25,8.929,7.731,8.929,13.481c7.023-6.61-10.41-20.809-3.191-35.03,5.368,9.484,8.94,14.232,25.132,28.159C407.685,328.737,417.093,358.824,378.023,358.824Z" transform="translate(31.541 -5.165)" fill="#fafafa"/>
          <path id="Path_1092" data-name="Path 1092" d="M381.054,354.324c10.889,0,15.964-10.105,10.813-17.934s-2.613-10.323-2.613-10.323-5.445,4.6-4.965,7.731c-4.356-3.6,1.775-12.425-3.365-20.178-2.123,5.161-1.59,8.8-9.18,16.432C363.762,338.044,359.755,354.324,381.054,354.324Z" transform="translate(32.484 -2.843)" fill="#f0f0f0" opacity="0.5"/>
          <path id="Path_1093" data-name="Path 1093" d="M378.318,349.672c-4.857,0-7.122-4.508-4.824-7.993s1.165-4.606,1.165-4.606,2.439,2.047,2.178,3.441c1.949-1.6-.795-5.543,1.492-8.994.947,2.308.719,3.92,4.094,7.328C386.027,342.431,387.813,349.672,378.318,349.672Z" transform="translate(33.13 -1.251)" fill="#e6e6e6" opacity="0.5"/>
          <rect id="Rectangle_1751" data-name="Rectangle 1751" width="88.257" height="136.67" transform="translate(61.099 248.992)" fill="#f0f0f0"/>
          <rect id="Rectangle_1752" data-name="Rectangle 1752" width="115.382" height="1.535" transform="translate(71.041 259.642) rotate(90)" fill="#e6e6e6"/>
          <rect id="Rectangle_1753" data-name="Rectangle 1753" width="70.05" height="1.938" transform="translate(69.506 259.642)" fill="#e6e6e6"/>
          <rect id="Rectangle_1754" data-name="Rectangle 1754" width="88.257" height="136.67" transform="translate(150.891 248.992)" fill="#f0f0f0"/>
          <rect id="Rectangle_1755" data-name="Rectangle 1755" width="8.798" height="136.67" transform="translate(247.958 385.673) rotate(180)" fill="#e0e0e0"/>
          <rect id="Rectangle_1756" data-name="Rectangle 1756" width="115.382" height="1.535" transform="translate(160.833 259.642) rotate(90)" fill="#e6e6e6"/>
          <rect id="Rectangle_1757" data-name="Rectangle 1757" width="135.124" height="1.535" transform="translate(150.891 250.549) rotate(90)" fill="#e6e6e6"/>
          <rect id="Rectangle_1758" data-name="Rectangle 1758" width="70.05" height="1.938" transform="translate(159.298 259.642)" fill="#e6e6e6"/>
          <rect id="Rectangle_1759" data-name="Rectangle 1759" width="3.299" height="30.196" transform="translate(143.138 279.231)" fill="#e0e0e0"/>
          <rect id="Rectangle_1760" data-name="Rectangle 1760" width="3.299" height="30.196" transform="translate(153.81 279.231)" fill="#e0e0e0"/>
          <rect id="Rectangle_1761" data-name="Rectangle 1761" width="157.087" height="157.087" transform="translate(75.985 61.981)" fill="#fafafa"/>
          <path id="Path_1094" data-name="Path 1094" d="M81.21,242.227,136.876,85.14h41.771L122.981,242.227Z" transform="translate(7.221 -23.159)" fill="#fff"/>
          <path id="Path_1095" data-name="Path 1095" d="M127.67,242.227,183.325,85.14h15.234L142.9,242.227Z" transform="translate(11.352 -23.159)" fill="#fff"/>
          <path id="Path_1096" data-name="Path 1096" d="M238.231,80.18H60.28a.98.98,0,0,0-.98.969h0a.98.98,0,0,0,.98.969H238.231a.969.969,0,0,0,.969-.969h0a.969.969,0,0,0-.969-.969Z" transform="translate(5.273 -23.6)" fill="#e0e0e0"/>
          <rect id="Rectangle_1762" data-name="Rectangle 1762" width="2.592" height="157.763" transform="translate(155.824 219.406) rotate(180)" fill="#f0f0f0"/>
          <rect id="Rectangle_1763" data-name="Rectangle 1763" width="1.296" height="157.763" transform="translate(157.12 219.406) rotate(180)" fill="#e0e0e0"/>
          <rect id="Rectangle_1764" data-name="Rectangle 1764" width="2.592" height="160.115" transform="translate(74.471 141.821) rotate(-90)" fill="#f0f0f0"/>
          <path id="Path_1097" data-name="Path 1097" d="M228.5,241.273h0V83.75H68.43V241.273h0v2.592H228.5Zm-157.523,0V86.342H225.909V241.273Z" transform="translate(6.085 -23.282)" fill="#f0f0f0"/>
          <rect id="Rectangle_1765" data-name="Rectangle 1765" width="1.296" height="160.115" transform="translate(235.882 220.582) rotate(180)" fill="#e0e0e0"/>
          <path id="Path_1098" data-name="Path 1098" d="M185.89,77.99V249.451h46.834L224.133,77.99Z" transform="translate(16.529 -23.794)" fill="#ebebeb" opacity="0.5"/>
          <path id="Path_1099" data-name="Path 1099" d="M102.944,77.99V249.451H56.11L64.7,77.99Z" transform="translate(4.989 -23.794)" fill="#ebebeb" opacity="0.5"/>
          <rect id="Rectangle_1766" data-name="Rectangle 1766" width="43.317" height="43.317" transform="translate(295.01 86.798)" fill="#ebebeb"/>
          <rect id="Rectangle_1767" data-name="Rectangle 1767" width="3.844" height="43.317" transform="translate(342.171 130.115) rotate(180)" fill="#e0e0e0"/>
          <rect id="Rectangle_1768" data-name="Rectangle 1768" width="31.579" height="31.579" transform="translate(300.879 92.667)" fill="#fff"/>
          <rect id="Rectangle_1769" data-name="Rectangle 1769" width="23.826" height="23.826" transform="translate(304.756 96.544)" fill="#f5f5f5"/>
          <rect id="Rectangle_1770" data-name="Rectangle 1770" width="43.317" height="43.317" transform="translate(314.752 139.795)" fill="#ebebeb"/>
          <rect id="Rectangle_1771" data-name="Rectangle 1771" width="3.844" height="43.317" transform="translate(361.902 183.102) rotate(180)" fill="#e0e0e0"/>
          <rect id="Rectangle_1772" data-name="Rectangle 1772" width="31.579" height="31.579" transform="translate(320.621 145.665)" fill="#fff"/>
          <rect id="Rectangle_1773" data-name="Rectangle 1773" width="23.826" height="23.826" rx="7.3" transform="translate(324.498 149.541)" fill="#f5f5f5"/>
        </g>
        <g id="freepik--Shadow--inject-9" transform="translate(61.099 410.196)">
          <ellipse id="freepik--path--inject-9" cx="211.13" cy="12.327" rx="211.13" ry="12.327" fill="#f5f5f5"/>
        </g>
        <g id="freepik--Gift--inject-9" transform="translate(82.856 119.987)">
          <rect id="Rectangle_1774" data-name="Rectangle 1774" width="1.089" height="14.635" transform="translate(0.261 164.95)" fill="#407bff"/>
          <rect id="Rectangle_1775" data-name="Rectangle 1775" width="1.089" height="6.054" transform="translate(0.261 183.941)" fill="#407bff"/>
          <path id="Path_1100" data-name="Path 1100" d="M79.83,240.77H257.9V431.843H84.926a5.085,5.085,0,0,1-5.085-5.085V240.77Z" transform="translate(-75.757 -129.308)" fill="#407bff"/>
          <path id="Path_1101" data-name="Path 1101" d="M257.9,240.77H79.83v13.546H182.286l3.4,177.526,2.374-177.526H257.9Z" transform="translate(-75.757 -129.308)" opacity="0.2"/>
          <path id="Path_1102" data-name="Path 1102" d="M78.627,214.1H258.233v38.722H78.627a2.537,2.537,0,0,1-2.537-2.537V216.648a2.537,2.537,0,0,1,2.537-2.548Z" transform="translate(-76.09 -131.679)" fill="#407bff"/>
          <path id="Path_1103" data-name="Path 1103" d="M142.952,434.214,141.09,214.1h38.722l1.851,220.114Z" transform="translate(-70.31 -131.679)" fill="#263238"/>
          <path id="Path_1104" data-name="Path 1104" d="M5.053,0H75.19V191.073H0V5.085A5.085,5.085,0,0,1,5.053,0Z" transform="translate(257.377 302.535) rotate(180)" fill="#407bff"/>
          <path id="Path_1105" data-name="Path 1105" d="M5.053,0H75.19V191.073H0V5.085A5.085,5.085,0,0,1,5.053,0Z" transform="translate(257.377 302.535) rotate(180)" opacity="0.2"/>
          <path id="Path_1106" data-name="Path 1106" d="M243.36,240.77h75.222v13.546H276.6L270.9,431.843l.621-177.526H243.36Z" transform="translate(-61.217 -129.308)" opacity="0.2"/>
          <path id="Path_1107" data-name="Path 1107" d="M2.537,0H79.306V38.722H2.537A2.537,2.537,0,0,1,0,36.185V2.548A2.537,2.537,0,0,1,2.537,0Z" transform="translate(261.449 121.143) rotate(180)" fill="#407bff"/>
          <path id="Path_1108" data-name="Path 1108" d="M2.537,0H79.306V38.722H2.537A2.537,2.537,0,0,1,0,36.185V2.548A2.537,2.537,0,0,1,2.537,0Z" transform="translate(261.449 121.143) rotate(180)" opacity="0.2"/>
          <path id="Path_1109" data-name="Path 1109" d="M268.65,434.214,271.9,214.1h24.163l-3.245,220.114Z" transform="translate(-58.968 -131.679)" fill="#263238"/>
          <path id="Path_1110" data-name="Path 1110" d="M268.65,434.214,271.9,214.1h24.163l-3.245,220.114Z" transform="translate(-58.968 -131.679)" opacity="0.2"/>
          <path id="Path_1111" data-name="Path 1111" d="M287.707,147v-.054H256.031a14.853,14.853,0,0,0-5.249,1.437c-32.123,13.459-47.738,48.729-54.642,71.64h32.406S305.239,144.827,287.707,147Z" transform="translate(-65.415 -137.65)" fill="#263238"/>
          <path id="Path_1112" data-name="Path 1112" d="M225.9,220.068c0-29.76,22.519-58.181,54.642-71.64S225.9,220.068,225.9,220.068Z" transform="translate(-62.769 -137.647)" opacity="0.5"/>
          <path id="Path_1113" data-name="Path 1113" d="M295.1,164.313h-23.51a14.155,14.155,0,0,0-4.356,1.089c-27.7,10-49.4,36.185-61.11,53.194h24.065S308.74,162.679,295.1,164.313Z" transform="translate(-64.528 -136.109)" fill="#263238"/>
          <path id="Path_1114" data-name="Path 1114" d="M228.26,218.531c11.336-29.4,33.408-43.2,61.11-53.194S228.26,218.531,228.26,218.531Z" transform="translate(-62.559 -136.11)" opacity="0.5"/>
          <path id="Path_1115" data-name="Path 1115" d="M145.4,138.475v-.065H113.645a3.267,3.267,0,0,0-2.886,1.623c-9.909,15.169,32.668,54.947,63.626,80.787h32.406S159.314,136,145.4,138.475Z" transform="translate(-73.137 -138.409)" fill="#263238"/>
          <path id="Path_1116" data-name="Path 1116" d="M204.145,220.83c-30.914-25.84-73.535-65.618-63.626-80.787S204.145,220.83,204.145,220.83Z" transform="translate(-70.491 -138.409)" opacity="0.5"/>
          <path id="Path_1117" data-name="Path 1117" d="M175.19,158H151.626a3.343,3.343,0,0,0-2.483,1.2c-10.5,11.27,12.893,40.813,30.49,59.989h24.032S186.025,156.109,175.19,158Z" transform="translate(-69.826 -136.671)" fill="#263238"/>
          <path id="Path_1118" data-name="Path 1118" d="M201.7,219.1c-17.6-19.187-41-48.718-30.49-59.989S201.7,219.1,201.7,219.1Z" transform="translate(-67.864 -136.676)" opacity="0.5"/>
        </g>
        <g id="freepik--Character--inject-9" transform="translate(314.1 86.524)">
          <path id="Path_1119" data-name="Path 1119" d="M384.847,403.44l8.319-2.69-4.007-19.971-8.319,2.679Z" transform="translate(-280.237 -83.395)" fill="#ff8b7b"/>
          <path id="Path_1120" data-name="Path 1120" d="M323.93,409.693h8.733l2.33-20.243h-8.744Z" transform="translate(-285.297 -82.624)" fill="#ff8b7b"/>
          <path id="Path_1121" data-name="Path 1121" d="M333.763,407.11H323.1a.73.73,0,0,0-.719.6L321,415.484a1.339,1.339,0,0,0,1.339,1.546c3.43-.054,5.924-.261,10.247-.261,2.657,0,10.671.283,14.341.283s4-3.626,2.483-3.964c-6.795-1.47-11.978-3.5-14.156-5.445a2.177,2.177,0,0,0-1.492-.534Z" transform="translate(-285.559 -81.054)" fill="#263238"/>
          <path id="Path_1122" data-name="Path 1122" d="M392.605,398.28l-9.092,2.984a.762.762,0,0,0-.523.795l.74,7.927a1.274,1.274,0,0,0,1.677,1.089c3.267-1.089,7.938-2.831,12.054-4.16,4.813-1.557,7.677-2.341,13.317-4.171,3.419-1.089,3.267-4.857,1.72-4.7-6.969.675-10.889,1.949-17.684.294a3.921,3.921,0,0,0-2.21-.054Z" transform="translate(-280.046 -81.86)" fill="#263238"/>
          <path id="Path_1123" data-name="Path 1123" d="M352.576,164.48c1.089,2.45,2.308,5.1,3.528,7.622s2.461,5.085,3.768,7.568,2.592,4.976,3.985,7.361,2.809,4.737,4.3,6.991c.762,1.089,1.5,2.178,2.309,3.2l1.187,1.514a6.6,6.6,0,0,0,.73.838,3.756,3.756,0,0,0,1.361.915,4.911,4.911,0,0,0,2.178.2,17.782,17.782,0,0,0,6.283-2.417c1.089-.632,2.178-1.361,3.267-2.123s2.178-1.644,3.18-2.4l5.053,4.171a36.115,36.115,0,0,1-2.853,3.909,34.992,34.992,0,0,1-3.343,3.517,27.952,27.952,0,0,1-4.029,3.136,20.438,20.438,0,0,1-5.1,2.417,14.951,14.951,0,0,1-6.533.6,14.624,14.624,0,0,1-6.534-2.57,18.511,18.511,0,0,1-2.483-2.123L361.189,205c-1.089-1.2-2.058-2.439-3.071-3.67a124.555,124.555,0,0,1-9.909-15.43c-1.448-2.646-2.831-5.3-4.116-8.014s-2.537-5.368-3.713-8.276Z" transform="translate(-283.834 -102.628)" fill="#ff8b7b"/>
          <path id="Path_1124" data-name="Path 1124" d="M336.9,165.848c-1.557,8.2,8.635,19.927,8.635,19.927l14.973-6.446s-1.557-9.4-7.535-16.181C345.647,154.839,338.613,156.919,336.9,165.848Z" transform="translate(-284.158 -103.212)" fill="#407bff"/>
          <path id="Path_1125" data-name="Path 1125" d="M344.989,167.935c-4.083-1.459-7.1-.98-8.189,0,.74,7.8,8.711,16.987,8.711,16.987l10.606-4.563C355.333,176.734,351.381,170.266,344.989,167.935Z" transform="translate(-284.153 -102.403)" opacity="0.2"/>
          <path id="Path_1126" data-name="Path 1126" d="M383.55,193.873l4.78-10.072,6.708,7.013s-1.906,8.036-8.189,7.013Z" transform="translate(-279.996 -100.91)" fill="#ff8b7b"/>
          <path id="Path_1127" data-name="Path 1127" d="M391.773,179.45l5.194,6.436-2.319,5.314-6.708-7.013Z" transform="translate(-279.605 -101.297)" fill="#ff8b7b"/>
          <path id="Path_1128" data-name="Path 1128" d="M389.159,380.78l2.069,10.3-8.33,2.679-2.058-10.29Z" transform="translate(-280.237 -83.395)" opacity="0.2"/>
          <path id="Path_1129" data-name="Path 1129" d="M326.159,389.46H334.9l-1.2,10.432H324.95Z" transform="translate(-285.206 -82.623)" opacity="0.2"/>
          <path id="Path_1130" data-name="Path 1130" d="M300.87,165.983c12.6,32.134,14.156,67.393,15.68,74.406l46.072-7.993c1.089-43.426-9.8-67.426-12.719-73.056a2.613,2.613,0,0,0-2.178-1.4c-1.285-.087-3.267-.185-5.706-.2-1.285,0-2.668,0-4.105.076-.795,0-1.6.087-2.406.142a173.587,173.587,0,0,0-19.6,3.408c-1.22.272-2.461.577-3.659.893s-2.178.621-3.267.936C304.431,164.557,300.87,165.983,300.87,165.983Z" transform="translate(-287.347 -103.227)" fill="#407bff"/>
          <path id="Path_1131" data-name="Path 1131" d="M305,177.418c1.524,5.031,2.831,10.04,3.931,14.9,1.448-8.788,2.091-17.815,2.091-17.815Z" transform="translate(-286.98 -101.737)" opacity="0.2"/>
          <path id="Path_1132" data-name="Path 1132" d="M313.09,140.63c2.319,6.087,5.564,17.423,1.884,22.388,4.007,2.809,9.169,5.967,16.693,4.933s5.336-5.956,2.886-8.33c-7.318-.457-8.036-5.706-7.622-10.813Z" transform="translate(-286.261 -104.748)" fill="#ff8b7b"/>
          <path id="Path_1133" data-name="Path 1133" d="M336.567,168.511s5.826-5.27-.555-10.769a7.371,7.371,0,0,0-2.472.261s7.154,6.12-.991,8.276a39.963,39.963,0,0,1-17.619-5.347,6.032,6.032,0,0,0-1.84.74c2.243,4.5,17.488,8.025,17.488,8.025a7.482,7.482,0,0,1,.73-2.036,83.363,83.363,0,0,1,3.463,12.915,21.157,21.157,0,0,0,3.038-.686,116.83,116.83,0,0,0-3.267-12.827,7.732,7.732,0,0,1,2.025,1.448Z" transform="translate(-286.261 -103.228)" fill="#fff"/>
          <path id="Path_1134" data-name="Path 1134" d="M318.251,143.7l8.167,4.835a21.862,21.862,0,0,0,0,3.583c-2.744.076-6.947-2.232-7.72-5A9.8,9.8,0,0,1,318.251,143.7Z" transform="translate(-285.803 -104.475)" opacity="0.2"/>
          <path id="Path_1135" data-name="Path 1135" d="M328.859,134.109c6.4-2.439,5.739-18.817-4.116-16.4-6.664,1.633-5.978,3.648-4.759,7.927S324.809,135.655,328.859,134.109Z" transform="translate(-285.718 -106.808)" fill="#263238"/>
          <path id="Path_1136" data-name="Path 1136" d="M310.919,133.251c2,8.439,2.744,13.481,7.818,17.107,7.622,5.445,17.423-.272,18.032-9.136.5-7.982-2.864-20.45-11.8-22.388a11.826,11.826,0,0,0-14.047,14.417Z" transform="translate(-286.485 -106.712)" fill="#ff8b7b"/>
          <path id="Path_1137" data-name="Path 1137" d="M312.9,139c6.4-2.439,3.942-18.512-5.913-16.062-6.664,1.633-5.51,5.445-3.637,9.19C305.363,136.095,308.88,140.548,312.9,139Z" transform="translate(-287.256 -106.344)" fill="#263238"/>
          <path id="Path_1138" data-name="Path 1138" d="M327.54,111.938c-1.666-4.258-10.345-7.328-11.924.947-7.3-.49-24.675,13.633-4.04,13.579,10.2,2.57,25.317-3.049,25.546-8.962S330.045,109.455,327.54,111.938Z" transform="translate(-287.263 -107.678)" fill="#263238"/>
          <path id="Path_1139" data-name="Path 1139" d="M308.958,139.985a7.622,7.622,0,0,0,4.769,3.267c2.548.5,3.528-1.906,2.57-4.279-.86-2.178-3.267-4.955-5.662-4.356S307.586,137.916,308.958,139.985Z" transform="translate(-286.691 -105.291)" fill="#ff8b7b"/>
          <path id="Path_1140" data-name="Path 1140" d="M398.25,401.888l-14.091,4.541s-14.014-50.776-19.307-77.487c-1.622-8.134-6.109-18.512-10.083-30.49-5.02-15.06-11.052-31.274-15.92-43.96-5.14-13.361-8.929-22.954-8.929-22.954l30.13-5.238s25.971,70.355,29.586,96.783C393.393,350.567,398.25,401.888,398.25,401.888Z" transform="translate(-284.764 -97.131)" fill="#263238"/>
          <path id="Path_1141" data-name="Path 1141" d="M354.03,296.733c-5.02-15.06-11.053-31.274-15.92-43.96l2.461-7.143C349.054,253.84,353.943,281.466,354.03,296.733Z" transform="translate(-284.036 -95.412)" opacity="0.2"/>
          <path id="Path_1142" data-name="Path 1142" d="M346.986,228.59s2.45,75.266,1.361,100.845c-1.2,28.029-9.746,82.758-9.746,82.758H322.594s3.572-49.622,3.267-76.965c-.381-31.143-10.541-101.117-10.541-101.117Z" transform="translate(-286.062 -96.927)" fill="#263238"/>
          <path id="Path_1143" data-name="Path 1143" d="M340,397.99H321.14v-5.63l21.081-.37Z" transform="translate(-285.545 -82.398)" fill="#407bff"/>
          <path id="Path_1144" data-name="Path 1144" d="M395.9,387.848l-16.78,5.412-1.753-5.423,18.675-6.338Z" transform="translate(-280.545 -83.331)" fill="#407bff"/>
          <path id="Path_1145" data-name="Path 1145" d="M323.154,132.286c.12.7.588,1.2,1.089,1.089s.719-.708.6-1.4-.588-1.187-1.089-1.089S322.991,131.6,323.154,132.286Z" transform="translate(-285.37 -105.616)" fill="#263238"/>
          <path id="Path_1146" data-name="Path 1146" d="M330.362,131.036c.12.7.588,1.2,1.089,1.089s.719-.708.6-1.4-.588-1.2-1.035-1.089A1.177,1.177,0,0,0,330.362,131.036Z" transform="translate(-284.727 -105.728)" fill="#263238"/>
          <path id="Path_1147" data-name="Path 1147" d="M328.12,131.64A24.947,24.947,0,0,0,332.476,137a4.094,4.094,0,0,1-3.212,1.209Z" transform="translate(-284.924 -105.548)" fill="#ff5652"/>
          <path id="Path_1148" data-name="Path 1148" d="M327.141,140a5.826,5.826,0,0,1-4.356-1.6.207.207,0,0,1,0-.294.218.218,0,0,1,.294,0,5.575,5.575,0,0,0,4.857,1.372.218.218,0,0,1,.24.174.207.207,0,0,1-.163.24,7.288,7.288,0,0,1-.871.109Z" transform="translate(-285.404 -104.978)" fill="#263238"/>
          <path id="Path_1149" data-name="Path 1149" d="M320.554,130.464a.355.355,0,0,1-.381-.555,4.149,4.149,0,0,1,3.082-2.309.416.416,0,0,1,.087.828h0a3.267,3.267,0,0,0-2.374,1.808.4.4,0,0,1-.414.229Z" transform="translate(-285.634 -105.907)" fill="#263238"/>
          <path id="Path_1150" data-name="Path 1150" d="M333.278,128.1a.425.425,0,0,1-.359-.163,3.267,3.267,0,0,0-2.613-1.448.425.425,0,0,1-.436-.4.414.414,0,0,1,.392-.425,4.105,4.105,0,0,1,3.332,1.786.414.414,0,0,1-.087.577A.381.381,0,0,1,333.278,128.1Z" transform="translate(-284.769 -106.08)" fill="#263238"/>
          <path id="Path_1151" data-name="Path 1151" d="M335.631,408.7a10.736,10.736,0,0,1-2.3-.316.218.218,0,0,1-.163-.174.2.2,0,0,1,.087-.207c.3-.2,3.06-1.927,4.04-1.437a.686.686,0,0,1,.381.588,1.2,1.2,0,0,1-.381,1.089,2.6,2.6,0,0,1-1.666.457Zm-1.71-.61c1.492.294,2.635.24,3.092-.163a.762.762,0,0,0,.251-.74.261.261,0,0,0-.142-.25c-.512-.261-2.08.49-3.2,1.2Z" transform="translate(-284.476 -81.109)" fill="#407bff"/>
          <path id="Path_1152" data-name="Path 1152" d="M333.377,408.55a.207.207,0,0,1-.109,0,.2.2,0,0,1-.1-.185c0-.109.109-2.635,1.089-3.463a1.089,1.089,0,0,1,.871-.261h0a.686.686,0,0,1,.675.534c.229.98-1.437,2.9-2.33,3.387ZM335,405.011a.654.654,0,0,0-.468.185,4.682,4.682,0,0,0-.915,2.733c.871-.686,1.927-2.178,1.786-2.7,0-.054,0-.185-.3-.218H335Z" transform="translate(-284.475 -81.274)" fill="#407bff"/>
          <path id="Path_1153" data-name="Path 1153" d="M392.928,399.333a.235.235,0,0,1-.185-.348c.316-.327,3.114-3.093,4.356-2.864a.7.7,0,0,1,.5.425h0a1.176,1.176,0,0,1-.065,1.089c-.653,1.089-3.147,1.546-4.563,1.71Zm4-2.809c-.7,0-2.287,1.263-3.4,2.319,1.927-.294,3.267-.817,3.637-1.426a.762.762,0,0,0,0-.719.218.218,0,0,0-.185-.163Z" transform="translate(-279.181 -82.032)" fill="#407bff"/>
          <path id="Path_1154" data-name="Path 1154" d="M392.94,399.437h-.054a.185.185,0,0,1-.142-.152c0-.1-.523-2.407.25-3.615a1.536,1.536,0,0,1,.991-.7h0c.555-.12.806.109.9.316.457.893-.947,3.332-1.808,4.105A.228.228,0,0,1,392.94,399.437Zm1.339-4.094h-.207a1.089,1.089,0,0,0-.73.512,4.813,4.813,0,0,0-.261,2.918c.817-.947,1.721-2.8,1.448-3.332A.251.251,0,0,0,394.28,395.343ZM394.029,395.169Z" transform="translate(-279.193 -82.136)" fill="#407bff"/>
          <path id="Path_1155" data-name="Path 1155" d="M312.613,175.712c-1.089,2.5-2.178,5.205-3.267,7.851s-2.091,5.314-3.06,7.993-1.927,5.336-2.755,8.014-1.612,5.347-2.243,7.982c-.294,1.318-.61,2.635-.806,3.92l-.174.969V212.4a1.633,1.633,0,0,0-.425-.871c-.327-.207.152.414,1,.828a19.6,19.6,0,0,0,3.158,1.285,102.478,102.478,0,0,0,16.334,2.929l.348,6.534a66.835,66.835,0,0,1-9.245,1.089,50.687,50.687,0,0,1-9.626-.359,25.383,25.383,0,0,1-5.281-1.274,16.679,16.679,0,0,1-2.951-1.4,11.531,11.531,0,0,1-3.169-2.809,9.9,9.9,0,0,1-1.982-4.955,10.809,10.809,0,0,1,0-1.318v-.926l.12-1.22c.131-1.644.381-3.212.621-4.8a125.029,125.029,0,0,1,4.661-17.956c.991-2.886,2-5.739,3.147-8.559s2.254-5.564,3.615-8.428Z" transform="translate(-288.452 -102.121)" fill="#ff8b7b"/>
          <path id="Path_1156" data-name="Path 1156" d="M301.5,165.435c-4.53,2.45-7.677,17.172-7.677,17.172l13.394,8.232s3.474-6.806,6.022-12.4C318.114,167.733,310.4,160.622,301.5,165.435Z" transform="translate(-287.974 -102.679)" fill="#407bff"/>
          <path id="Path_1157" data-name="Path 1157" d="M316.866,212.681l8.809-.381-3.909,8.385s-8.3-.5-7.2-4.475Z" transform="translate(-286.138 -98.376)" fill="#ff8b7b"/>
          <path id="Path_1158" data-name="Path 1158" d="M330.882,218.072l-4.388,5.466-5.314-2.9,3.9-8.352Z" transform="translate(-285.541 -98.377)" fill="#ff8b7b"/>
        </g>
      </g>
    </g>
    <g id="Logo" transform="translate(1611.783 530.687)" style="mix-blend-mode: overlay;isolation: isolate">
      <path id="Path_342" data-name="Path 342" d="M407.208,171.048l.039-.024L373.326,89.216l-16.5,44.976-32.89,89.657a83.641,83.641,0,0,1-56.215,153.213l-32.89,89.647A178.034,178.034,0,0,0,407.208,171.048M289.438,211.193l32.89-89.652A178.036,178.036,0,0,0,149.96,417.216l-.058.034,33.916,81.808,16.515-45,32.891-89.652a83.641,83.641,0,0,1,56.215-153.213Z" transform="translate(-100.502 -89.216)" fill="#faa61a" fill-rule="evenodd"/>
    </g>
  </g>
</svg>
