<?xml version="1.0" encoding="utf-8"?>
<!-- Generator: Adobe Illustrator 27.5.0, SVG Export Plug-In . SVG Version: 6.00 Build 0)  -->
<svg version="1.1" xmlns="http://www.w3.org/2000/svg" xmlns:xlink="http://www.w3.org/1999/xlink" x="0px" y="0px"
	 viewBox="0 0 500 500" style="enable-background:new 0 0 500 500;" xml:space="preserve">
<g id="Background_Complete">
	<rect x="416.779" y="398.494" style="fill:#EBEBEB;" width="33.122" height="0.25"/>
	<rect x="322.527" y="401.208" style="fill:#EBEBEB;" width="8.693" height="0.25"/>
	<rect x="396.586" y="389.208" style="fill:#EBEBEB;" width="19.192" height="0.25"/>
	<rect x="52.459" y="390.888" style="fill:#EBEBEB;" width="43.193" height="0.25"/>
	<rect x="104.556" y="390.888" style="fill:#EBEBEB;" width="6.333" height="0.25"/>
	<rect x="131.471" y="395.111" style="fill:#EBEBEB;" width="93.676" height="0.25"/>
	<g>
		<path style="fill:#EBEBEB;" d="M238.401,337.8H45.302c-3.147,0-5.708-2.561-5.708-5.708V60.66c0-3.147,2.561-5.708,5.708-5.708
			h193.099c3.146,0,5.707,2.561,5.707,5.708v271.432C244.108,335.239,241.547,337.8,238.401,337.8z M45.302,55.203
			c-3.01,0-5.458,2.448-5.458,5.458v271.432c0,3.01,2.448,5.458,5.458,5.458h193.099c3.009,0,5.457-2.448,5.457-5.458V60.66
			c0-3.009-2.448-5.458-5.457-5.458H45.302z"/>
		<path style="fill:#EBEBEB;" d="M454.698,337.8H261.599c-3.146,0-5.707-2.561-5.707-5.708V60.66c0-3.147,2.561-5.708,5.707-5.708
			h193.099c3.148,0,5.708,2.561,5.708,5.708v271.432C460.406,335.239,457.845,337.8,454.698,337.8z M261.599,55.203
			c-3.009,0-5.457,2.448-5.457,5.458v271.432c0,3.01,2.448,5.458,5.457,5.458h193.099c3.01,0,5.458-2.448,5.458-5.458V60.66
			c0-3.009-2.448-5.458-5.458-5.458H261.599z"/>
	</g>
	<rect y="382.398" style="fill:#EBEBEB;" width="500" height="0.25"/>
	<g>
		<g>
			<rect x="271.644" y="80.35" style="fill:#E9E9E9;" width="172.52" height="189.92"/>
			<rect x="274.974" y="83.42" style="fill:#F9F9F9;" width="166.19" height="183.49"/>
		</g>
		<g>
			<rect x="318.275" y="187.477" style="fill:#F0F0F0;" width="21.232" height="79.914"/>
			<rect x="300.688" y="181.335" style="fill:#F0F0F0;" width="19.12" height="86.055"/>
			<rect x="284.928" y="222.945" style="fill:#EBEBEB;" width="19.12" height="44.445"/>
			<rect x="336.309" y="211.815" style="fill:#F0F0F0;" width="21.232" height="55.576"/>
			<g>
				<rect x="304.048" y="189.784" style="fill:#FFFFFF;" width="1.957" height="1.973"/>
				<rect x="314.491" y="189.784" style="fill:#FFFFFF;" width="1.957" height="1.973"/>
				<rect x="304.048" y="196.177" style="fill:#FFFFFF;" width="1.957" height="1.973"/>
				<rect x="309.27" y="196.177" style="fill:#FFFFFF;" width="1.957" height="1.973"/>
				<rect x="314.491" y="202.57" style="fill:#FFFFFF;" width="1.957" height="1.973"/>
				<rect x="304.048" y="208.963" style="fill:#FFFFFF;" width="1.957" height="1.973"/>
				<rect x="309.27" y="208.963" style="fill:#FFFFFF;" width="1.957" height="1.973"/>
				<rect x="309.27" y="215.356" style="fill:#FFFFFF;" width="1.957" height="1.973"/>
				<rect x="314.491" y="215.356" style="fill:#FFFFFF;" width="1.957" height="1.973"/>
				<rect x="309.27" y="221.749" style="fill:#FFFFFF;" width="1.957" height="1.973"/>
				<rect x="314.491" y="221.749" style="fill:#FFFFFF;" width="1.957" height="1.973"/>
				<rect x="314.491" y="228.142" style="fill:#FFFFFF;" width="1.957" height="1.973"/>
				<rect x="309.27" y="234.535" style="fill:#FFFFFF;" width="1.957" height="1.973"/>
			</g>
			<g>
				
					<rect x="351.168" y="215.356" transform="matrix(-1 -1.224647e-16 1.224647e-16 -1 704.2926 432.6856)" style="fill:#FFFFFF;" width="1.957" height="1.973"/>
				
					<rect x="340.726" y="215.356" transform="matrix(-1 -1.224647e-16 1.224647e-16 -1 683.4078 432.6856)" style="fill:#FFFFFF;" width="1.957" height="1.973"/>
				
					<rect x="351.168" y="221.749" transform="matrix(-1 -1.224647e-16 1.224647e-16 -1 704.2926 445.4718)" style="fill:#FFFFFF;" width="1.957" height="1.973"/>
				
					<rect x="345.947" y="221.749" transform="matrix(-1 -1.224647e-16 1.224647e-16 -1 693.8502 445.4718)" style="fill:#FFFFFF;" width="1.957" height="1.973"/>
				
					<rect x="340.726" y="228.142" transform="matrix(-1 -1.224647e-16 1.224647e-16 -1 683.4078 458.2578)" style="fill:#FFFFFF;" width="1.957" height="1.973"/>
				
					<rect x="351.168" y="234.535" transform="matrix(-1 -1.224647e-16 1.224647e-16 -1 704.2926 471.044)" style="fill:#FFFFFF;" width="1.957" height="1.973"/>
				
					<rect x="345.947" y="234.535" transform="matrix(-1 -1.224647e-16 1.224647e-16 -1 693.8502 471.044)" style="fill:#FFFFFF;" width="1.957" height="1.973"/>
				
					<rect x="345.947" y="240.928" transform="matrix(-1 -1.224647e-16 1.224647e-16 -1 693.8502 483.8302)" style="fill:#FFFFFF;" width="1.957" height="1.973"/>
				
					<rect x="340.726" y="240.928" transform="matrix(-1 -1.224647e-16 1.224647e-16 -1 683.4078 483.8302)" style="fill:#FFFFFF;" width="1.957" height="1.973"/>
				
					<rect x="345.947" y="247.322" transform="matrix(-1 -1.224647e-16 1.224647e-16 -1 693.8502 496.6162)" style="fill:#FFFFFF;" width="1.957" height="1.973"/>
				
					<rect x="340.726" y="247.322" transform="matrix(-1 -1.224647e-16 1.224647e-16 -1 683.4078 496.6162)" style="fill:#FFFFFF;" width="1.957" height="1.973"/>
				
					<rect x="340.726" y="253.715" transform="matrix(-1 -1.224647e-16 1.224647e-16 -1 683.4078 509.4024)" style="fill:#FFFFFF;" width="1.957" height="1.973"/>
				
					<rect x="345.947" y="260.108" transform="matrix(-1 -1.224647e-16 1.224647e-16 -1 693.8502 522.1885)" style="fill:#FFFFFF;" width="1.957" height="1.973"/>
			</g>
		</g>
		<g>
			
				<rect x="382.488" y="169.877" transform="matrix(-1 -1.224647e-16 1.224647e-16 -1 785.8069 438.6539)" style="fill:#F0F0F0;" width="20.831" height="98.899"/>
			
				<rect x="401.816" y="162.277" transform="matrix(-1 -1.224647e-16 1.224647e-16 -1 822.3906 431.0534)" style="fill:#F5F5F5;" width="18.759" height="106.5"/>
			
				<rect x="417.278" y="213.772" transform="matrix(-1 -1.224647e-16 1.224647e-16 -1 853.3153 482.5489)" style="fill:#EBEBEB;" width="18.759" height="55.005"/>
			
				<rect x="364.793" y="199.997" transform="matrix(-1 -1.224647e-16 1.224647e-16 -1 750.4186 468.7739)" style="fill:#F5F5F5;" width="20.832" height="68.78"/>
			<g>
				
					<rect x="415.358" y="172.732" transform="matrix(-1 -1.224647e-16 1.224647e-16 -1 832.6363 347.9068)" style="fill:#FFFFFF;" width="1.92" height="2.442"/>
				
					<rect x="405.113" y="172.732" transform="matrix(-1 -1.224647e-16 1.224647e-16 -1 812.1451 347.9068)" style="fill:#FFFFFF;" width="1.92" height="2.442"/>
				
					<rect x="415.358" y="180.644" transform="matrix(-1 -1.224647e-16 1.224647e-16 -1 832.6363 363.7307)" style="fill:#FFFFFF;" width="1.92" height="2.442"/>
				
					<rect x="410.235" y="180.644" transform="matrix(-1 -1.224647e-16 1.224647e-16 -1 822.3906 363.7307)" style="fill:#FFFFFF;" width="1.92" height="2.442"/>
				
					<rect x="405.113" y="188.556" transform="matrix(-1 -1.224647e-16 1.224647e-16 -1 812.1451 379.5546)" style="fill:#FFFFFF;" width="1.92" height="2.442"/>
				
					<rect x="415.358" y="196.468" transform="matrix(-1 -1.224647e-16 1.224647e-16 -1 832.6363 395.3784)" style="fill:#FFFFFF;" width="1.92" height="2.442"/>
				
					<rect x="410.235" y="196.468" transform="matrix(-1 -1.224647e-16 1.224647e-16 -1 822.3906 395.3784)" style="fill:#FFFFFF;" width="1.92" height="2.442"/>
				
					<rect x="410.235" y="204.38" transform="matrix(-1 -1.224647e-16 1.224647e-16 -1 822.3906 411.2022)" style="fill:#FFFFFF;" width="1.92" height="2.442"/>
				
					<rect x="405.113" y="204.38" transform="matrix(-1 -1.224647e-16 1.224647e-16 -1 812.1451 411.2022)" style="fill:#FFFFFF;" width="1.92" height="2.442"/>
				
					<rect x="410.235" y="212.292" transform="matrix(-1 -1.224647e-16 1.224647e-16 -1 822.3906 427.0261)" style="fill:#FFFFFF;" width="1.92" height="2.442"/>
				
					<rect x="405.113" y="212.292" transform="matrix(-1 -1.224647e-16 1.224647e-16 -1 812.1451 427.0261)" style="fill:#FFFFFF;" width="1.92" height="2.442"/>
				
					<rect x="405.113" y="220.204" transform="matrix(-1 -1.224647e-16 1.224647e-16 -1 812.1451 442.85)" style="fill:#FFFFFF;" width="1.92" height="2.442"/>
				
					<rect x="410.235" y="228.116" transform="matrix(-1 -1.224647e-16 1.224647e-16 -1 822.3906 458.6738)" style="fill:#FFFFFF;" width="1.92" height="2.442"/>
			</g>
			<g>
				<rect x="369.127" y="204.38" style="fill:#FFFFFF;" width="1.92" height="2.442"/>
				<rect x="379.372" y="204.38" style="fill:#FFFFFF;" width="1.92" height="2.442"/>
				<rect x="369.127" y="212.292" style="fill:#FFFFFF;" width="1.92" height="2.442"/>
				<rect x="374.249" y="212.292" style="fill:#FFFFFF;" width="1.92" height="2.442"/>
				<rect x="379.372" y="220.204" style="fill:#FFFFFF;" width="1.92" height="2.442"/>
				<rect x="369.127" y="228.116" style="fill:#FFFFFF;" width="1.92" height="2.442"/>
				<rect x="374.249" y="228.116" style="fill:#FFFFFF;" width="1.92" height="2.442"/>
				<rect x="374.249" y="236.028" style="fill:#FFFFFF;" width="1.92" height="2.442"/>
				<rect x="379.372" y="236.028" style="fill:#FFFFFF;" width="1.92" height="2.442"/>
				<rect x="374.249" y="243.94" style="fill:#FFFFFF;" width="1.92" height="2.442"/>
				<rect x="379.372" y="243.94" style="fill:#FFFFFF;" width="1.92" height="2.442"/>
				<rect x="379.372" y="251.852" style="fill:#FFFFFF;" width="1.92" height="2.442"/>
				<rect x="374.249" y="259.764" style="fill:#FFFFFF;" width="1.92" height="2.442"/>
			</g>
		</g>
		<path style="fill:#F0F0F0;" d="M327.864,122.987c0,0-52.663,7.478-47.208-8.519c5.455-15.998,16.561,0,16.561,0
			s5.712-10.048,11.944-7.11c6.232,2.938,6.87,9.5,6.87,9.5s1.848-5.369,6.84,0.38C327.864,122.987,327.382,115.968,327.864,122.987
			z"/>
		<path style="fill:#F0F0F0;" d="M372.155,141.238c0,0-42.498,6.035-38.096-6.875c4.402-12.91,13.365,0,13.365,0
			s4.609-8.109,9.639-5.738c5.03,2.371,5.544,7.667,5.544,7.667s1.491-4.333,5.52,0.307
			C372.155,141.238,371.766,135.573,372.155,141.238z"/>
		<path style="fill:#F0F0F0;" d="M426.658,121.27c0,0-52.31,7.428-46.892-8.462c5.418-15.891,16.45,0,16.45,0
			s5.674-9.981,11.864-7.062c6.191,2.919,6.824,9.437,6.824,9.437s1.836-5.333,6.794,0.377
			C426.658,121.27,426.178,114.298,426.658,121.27z"/>
		<rect x="327.864" y="80.78" style="fill:#E9E9E9;" width="2.92" height="189.49"/>
		<rect x="382.784" y="80.78" style="fill:#E9E9E9;" width="2.92" height="189.49"/>
	</g>
	<g>
		<rect x="65.408" y="193.727" style="fill:#E6E6E6;" width="42.717" height="188.892"/>
		<rect x="95.519" y="193.727" style="fill:#F5F5F5;" width="120.552" height="188.892"/>
		<rect x="159.357" y="199.632" style="fill:#EBEBEB;" width="50.977" height="177.077"/>
		<rect x="102.438" y="199.632" style="fill:#EBEBEB;" width="50.977" height="177.077"/>
		
			<rect x="159.357" y="256.697" transform="matrix(-1 -1.224647e-16 1.224647e-16 -1 363.5359 522.6251)" style="fill:#F5F5F5;" width="44.822" height="9.232"/>
		
			<rect x="102.438" y="256.697" transform="matrix(-1 -1.224647e-16 1.224647e-16 -1 249.6968 522.6251)" style="fill:#F5F5F5;" width="44.822" height="9.232"/>
		
			<rect x="159.357" y="311.795" transform="matrix(-1 -1.224647e-16 1.224647e-16 -1 363.5359 632.8226)" style="fill:#F5F5F5;" width="44.822" height="9.232"/>
		
			<rect x="102.438" y="311.795" transform="matrix(-1 -1.224647e-16 1.224647e-16 -1 249.6968 632.8226)" style="fill:#F5F5F5;" width="44.822" height="9.232"/>
		<g>
			
				<rect x="188.165" y="326.178" transform="matrix(-1 -1.224647e-16 1.224647e-16 -1 381.2032 702.8869)" style="fill:#FAFAFA;" width="4.874" height="50.531"/>
			
				<rect x="183.291" y="330.547" transform="matrix(-1 -1.224647e-16 1.224647e-16 -1 371.4555 707.2558)" style="fill:#E0E0E0;" width="4.874" height="46.162"/>
			
				<rect x="193.038" y="330.547" transform="matrix(-1 -1.224647e-16 1.224647e-16 -1 390.9509 707.2558)" style="fill:#E0E0E0;" width="4.874" height="46.162"/>
			
				<rect x="164.796" y="330.547" transform="matrix(-1 -1.224647e-16 1.224647e-16 -1 333.3778 707.2558)" style="fill:#E0E0E0;" width="3.787" height="46.162"/>
			
				<rect x="159.357" y="326.982" transform="matrix(-1 -1.224647e-16 1.224647e-16 -1 324.1526 703.6907)" style="fill:#F0F0F0;" width="5.438" height="49.728"/>
			
				<rect x="175.937" y="330.547" transform="matrix(-1 -1.224647e-16 1.224647e-16 -1 359.2274 707.2558)" style="fill:#F5F5F5;" width="7.354" height="46.162"/>
			
				<rect x="168.582" y="327.652" transform="matrix(-1 -1.224647e-16 1.224647e-16 -1 344.5189 704.3612)" style="fill:#E6E6E6;" width="7.354" height="49.057"/>
		</g>
		<g>
			
				<rect x="131.245" y="326.178" transform="matrix(-1 -1.224647e-16 1.224647e-16 -1 267.3642 702.8869)" style="fill:#E0E0E0;" width="4.874" height="50.531"/>
			
				<rect x="126.371" y="330.547" transform="matrix(-1 -1.224647e-16 1.224647e-16 -1 257.6165 707.2558)" style="fill:#E0E0E0;" width="4.874" height="46.162"/>
			
				<rect x="136.119" y="330.547" transform="matrix(-1 -1.224647e-16 1.224647e-16 -1 277.1118 707.2558)" style="fill:#FAFAFA;" width="4.874" height="46.162"/>
			
				<rect x="107.876" y="330.547" transform="matrix(-1 -1.224647e-16 1.224647e-16 -1 219.5386 707.2558)" style="fill:#E0E0E0;" width="3.787" height="46.162"/>
			
				<rect x="102.438" y="326.982" transform="matrix(-1 -1.224647e-16 1.224647e-16 -1 210.3135 703.6907)" style="fill:#F0F0F0;" width="5.438" height="49.728"/>
			
				<rect x="119.017" y="330.547" transform="matrix(-1 -1.224647e-16 1.224647e-16 -1 245.3883 707.2558)" style="fill:#F5F5F5;" width="7.354" height="46.162"/>
			
				<rect x="111.663" y="327.652" transform="matrix(-1 -1.224647e-16 1.224647e-16 -1 230.6797 704.3612)" style="fill:#E6E6E6;" width="7.354" height="49.057"/>
		</g>
		<g>
			<rect x="159.357" y="269.937" style="fill:#FAFAFA;" width="4.874" height="42.155"/>
			<rect x="164.231" y="273.581" style="fill:#E0E0E0;" width="4.874" height="38.51"/>
			<rect x="183.813" y="273.581" style="fill:#E0E0E0;" width="3.787" height="38.51"/>
			<rect x="193.038" y="273.581" style="fill:#E0E0E0;" width="4.33" height="38.51"/>
			<rect x="187.6" y="270.607" style="fill:#F0F0F0;" width="5.438" height="41.484"/>
			<rect x="169.105" y="273.581" style="fill:#F5F5F5;" width="7.354" height="38.51"/>
			<rect x="176.459" y="271.167" style="fill:#E6E6E6;" width="7.354" height="40.925"/>
		</g>
		<g>
			<rect x="102.176" y="269.937" style="fill:#E0E0E0;" width="4.874" height="42.155"/>
			<rect x="107.05" y="273.581" style="fill:#E6E6E6;" width="4.874" height="38.51"/>
			<rect x="126.632" y="273.581" style="fill:#E0E0E0;" width="3.787" height="38.51"/>
			<rect x="130.419" y="270.607" style="fill:#F0F0F0;" width="5.438" height="41.484"/>
			<rect x="135.837" y="270.607" style="fill:#F5F5F5;" width="5.438" height="41.484"/>
			<rect x="111.924" y="273.581" style="fill:#F5F5F5;" width="7.354" height="38.51"/>
			<rect x="119.278" y="271.167" style="fill:#E6E6E6;" width="7.354" height="40.925"/>
		</g>
		<g>
			<rect x="159.357" y="221.913" style="fill:#FAFAFA;" width="4.874" height="34.783"/>
			<rect x="164.231" y="218.187" style="fill:#E0E0E0;" width="4.874" height="38.51"/>
			<rect x="193.038" y="218.187" style="fill:#E0E0E0;" width="4.874" height="38.51"/>
			<rect x="183.813" y="218.187" style="fill:#E0E0E0;" width="3.787" height="38.51"/>
			<rect x="187.6" y="215.213" style="fill:#F0F0F0;" width="5.438" height="41.484"/>
			<rect x="169.105" y="218.187" style="fill:#F5F5F5;" width="7.354" height="38.51"/>
			<rect x="176.459" y="215.772" style="fill:#E6E6E6;" width="7.354" height="40.925"/>
		</g>
		<g>
			
				<rect x="131.245" y="221.913" transform="matrix(-1 -1.224647e-16 1.224647e-16 -1 267.3642 478.6101)" style="fill:#FAFAFA;" width="4.874" height="34.783"/>
			
				<rect x="126.371" y="218.187" transform="matrix(-1 -1.224647e-16 1.224647e-16 -1 257.6165 474.8834)" style="fill:#E0E0E0;" width="4.874" height="38.51"/>
			
				<rect x="136.119" y="218.187" transform="matrix(-1 -1.224647e-16 1.224647e-16 -1 277.1118 474.8834)" style="fill:#E0E0E0;" width="4.874" height="38.51"/>
			
				<rect x="107.876" y="218.187" transform="matrix(-1 -1.224647e-16 1.224647e-16 -1 219.5386 474.8834)" style="fill:#E0E0E0;" width="3.787" height="38.51"/>
			
				<rect x="102.438" y="225.114" transform="matrix(-1 -1.224647e-16 1.224647e-16 -1 210.3135 481.8111)" style="fill:#E0E0E0;" width="5.438" height="31.582"/>
			
				<rect x="119.017" y="218.187" transform="matrix(-1 -1.224647e-16 1.224647e-16 -1 245.3883 474.8834)" style="fill:#F5F5F5;" width="7.354" height="38.51"/>
			
				<rect x="111.663" y="215.772" transform="matrix(-1 -1.224647e-16 1.224647e-16 -1 230.6797 472.4686)" style="fill:#E6E6E6;" width="7.354" height="40.925"/>
		</g>
	</g>
	<g>
		<path style="fill:#EBEBEB;" d="M160.511,176.256c0,0,5.457,2.591,6.844-1.811c1.388-4.402,7.145,0.173,8.296-5.016
			c1.151-5.189,5.87-1.752,7.487-5.349c1.617-3.598,7.07-3.692,6.732-7.383c-0.338-3.691-6.66,0.253-9.536-0.807
			c-2.876-1.059-4.719,5.094-8.521,5.1c-3.801,0.006-5.066,7.259-7.55,6.398C161.778,166.527,159.814,172.741,160.511,176.256z"/>
		<path style="fill:#E0E0E0;" d="M159.339,178.049c0,0,11.05-12.648,25.397-20.295c0,0-7.544,1.072-26.417,19.864L159.339,178.049z"
			/>
		<path style="fill:#E0E0E0;" d="M140.635,174.457c0,0-8.876-2.514-6.041-8.968c2.836-6.453-8.382-6.991-4.482-14.11
			c3.9-7.119-4.98-7.919-3.218-13.679c1.762-5.76-4.408-11.356-0.305-15.256c4.102-3.9,7.397,6.992,11.767,8.669
			c4.37,1.677,0.296,10.601,4.657,14.433c4.361,3.833-1.485,13.437,2.236,14.948C148.97,162.005,144.974,171.12,140.635,174.457z"/>
		<path style="fill:#FAFAFA;" d="M140.177,177.695c0,0,0.034-25.65-8.754-48.872c0,0,7.588,8.823,10.359,49.403L140.177,177.695z"/>
		<path style="fill:#E0E0E0;" d="M154.076,175.297c0,0,7.454,1.626,7.91-4.256s8.844-1.876,8.785-8.667
			c-0.059-6.791,6.727-3.897,7.695-8.845c0.967-4.948,7.653-6.661,6.188-11.153c-1.465-4.492-8.126,2.264-11.967,1.788
			c-3.841-0.476-4.361,7.717-9.038,8.837c-4.678,1.12-4.171,10.512-7.475,10.167C152.869,162.824,152.218,171.128,154.076,175.297z"
			/>
		<path style="fill:#F5F5F5;" d="M153.144,177.869c0,0,10.005-18.966,25.49-32.677c0,0-8.981,3.542-26.868,32.439L153.144,177.869z"
			/>
		<g>
			<path style="fill:#F0F0F0;" d="M119.4,176.775c0,0-5.204,1.799-6.155-2.884c-0.951-4.683-6.577-0.915-7.253-6.361
				c-0.675-5.446-5.264-2.675-6.485-6.576c-1.221-3.901-6.225-4.829-5.643-8.526c0.582-3.697,6.1,1.273,8.821,0.636
				c2.72-0.637,3.961,5.894,7.454,6.481c3.492,0.586,4.12,8.146,6.466,7.651C118.951,166.699,120.299,173.311,119.4,176.775z"/>
			<path style="fill:#E0E0E0;" d="M120.344,178.775c0,0-9.222-14.534-21.841-24.491c0,0,6.852,2.241,22.809,24.209L120.344,178.775z
				"/>
		</g>
		<path style="fill:#E0E0E0;" d="M126.205,173.898c0,0-3.459,2.561-8.879-7.272c-5.42-9.833-10.361-21.476-16.896-24.984
			c0,0,9.028-1.652,17.574,10.276C126.551,163.845,127.978,172.879,126.205,173.898z"/>
		<g>
			<path style="fill:#F5F5F5;" d="M128.53,177.755c-2.711-6.195-5.192-11.222-7.414-15.299c-0.726-2.659-0.076-4.618-0.076-4.618
				c-0.726,0.935-0.746,2.313-0.621,3.355c-1.837-3.288-3.483-5.908-4.92-7.987c-0.637-2.222,0.103-2.951,0.103-2.951
				c-0.835,0.33-0.863,1.281-0.719,2.074c-3.925-5.493-6.119-6.74-6.119-6.74c0.929,1.09,1.821,2.204,2.683,3.331
				c-2.154-1.128-3.586-0.944-3.586-0.944c1.83,0.224,3.375,1.184,4.322,1.916c1.727,2.321,3.311,4.685,4.75,7.007
				c-1.129-1.033-2.792-2.213-4.845-2.678c0.382,0.105,2.752,0.871,5.796,4.241c1.633,2.732,3.061,5.373,4.276,7.783
				c-2.652-1.954-5.296-1.593-5.296-1.593c3.146,0.538,4.872,1.681,5.765,2.532c3.054,6.179,4.636,10.604,4.636,10.604
				L128.53,177.755z"/>
			<path style="fill:#F5F5F5;" d="M112.088,154.22c-0.035-0.01-0.06-0.016-0.06-0.016
				C112.049,154.209,112.068,154.216,112.088,154.22z"/>
		</g>
		<path style="fill:#F5F5F5;" d="M132.341,173.386c0,0-3.969,1.663-6.891-9.177c-2.922-10.841-4.947-23.326-10.458-28.29
			c0,0,9.162,0.546,14.621,14.166C135.072,163.705,134.306,172.819,132.341,173.386z"/>
		<g>
			<path style="fill:#E0E0E0;" d="M133.68,177.686c-1.157-6.662-2.37-12.136-3.556-16.625c-0.072-2.756,1.026-4.504,1.026-4.504
				c-0.928,0.735-1.276,2.069-1.402,3.11c-1.001-3.631-1.975-6.568-2.876-8.929c-0.089-2.31,0.803-2.842,0.803-2.842
				c-0.889,0.121-1.143,1.039-1.192,1.843c-2.504-6.27-4.337-8.003-4.337-8.003c0.643,1.28,1.243,2.575,1.812,3.874
				c-1.823-1.608-3.258-1.771-3.258-1.771c1.723,0.653,2.996,1.954,3.741,2.89c1.124,2.666,2.099,5.338,2.945,7.936
				c-0.851-1.272-2.184-2.814-4.068-3.755c0.346,0.193,2.465,1.501,4.619,5.5c0.936,3.043,1.692,5.948,2.299,8.578
				c-2.11-2.529-4.764-2.809-4.764-2.809c2.927,1.272,4.331,2.793,4.996,3.832c1.495,6.729,1.977,11.403,1.977,11.403
				L133.68,177.686z"/>
			<path style="fill:#E0E0E0;" d="M123.318,150.912c-0.032-0.018-0.054-0.03-0.054-0.03
				C123.283,150.892,123.299,150.903,123.318,150.912z"/>
		</g>
		<path style="fill:#F5F5F5;" d="M147.951,173.069c0,0,5.219,2.033,8.664-12.17c3.444-14.203,5.667-30.517,12.674-37.159
			c0,0-11.904,1.013-18.558,18.917C144.078,160.561,145.376,172.395,147.951,173.069z"/>
		<g>
			<path style="fill:#E0E0E0;" d="M146.351,178.708c1.286-8.707,2.683-15.87,4.078-21.751c0.003-3.588-1.484-5.827-1.484-5.827
				c1.232,0.926,1.728,2.65,1.927,4.001c1.182-4.758,2.354-8.612,3.447-11.714c0.039-3.009-1.138-3.671-1.138-3.671
				c1.161,0.128,1.522,1.314,1.613,2.359c3.051-8.241,5.38-10.557,5.38-10.557c-0.794,1.686-1.533,3.391-2.23,5.101
				c2.319-2.153,4.181-2.412,4.181-2.412c-2.221,0.907-3.834,2.642-4.772,3.885c-1.374,3.506-2.556,7.016-3.57,10.425
				c1.065-1.683,2.749-3.735,5.169-5.021c-0.443,0.262-3.158,2.035-5.829,7.309c-1.117,3.99-2.006,7.796-2.708,11.238
				c2.662-3.361,6.106-3.812,6.106-3.812c-3.767,1.752-5.544,3.777-6.375,5.152c-1.723,8.805-2.196,14.903-2.196,14.903
				L146.351,178.708z"/>
			<path style="fill:#E0E0E0;" d="M158.951,143.526c0.041-0.024,0.069-0.04,0.069-0.04
				C158.996,143.498,158.975,143.513,158.951,143.526z"/>
		</g>
		<g>
			<path style="fill:#E6E6E6;" d="M177.494,180.965l-2.026,7.788c-0.796,3.058-3.557,5.193-6.717,5.193h-53.955
				c-3.16,0-5.921-2.135-6.717-5.193l-2.026-7.788c-0.591-2.273,1.124-4.491,3.472-4.491h64.495
				C176.37,176.474,178.085,178.693,177.494,180.965z"/>
		</g>
	</g>
</g>
<g id="Background_Simple" style="display:none;">
	<g style="display:inline;">
		<path style="fill:#407BFF;" d="M130.192,177.417c56.624-12.628,67.05,27.995,93.728,22.045
			c42.294-9.432,45.142-51.793,92.019-62.248c42.267-9.426,85.719,22.608,92.488,52.956
			c22.836,102.395-96.35,174.872-156.526,188.293c-69.96,15.603-127.438-33.178-151.714-63.082
			C75.204,284.608,54.84,194.222,130.192,177.417z"/>
		<path style="opacity:0.9;fill:#FFFFFF;" d="M130.192,177.417c56.624-12.628,67.05,27.995,93.728,22.045
			c42.294-9.432,45.142-51.793,92.019-62.248c42.267-9.426,85.719,22.608,92.488,52.956
			c22.836,102.395-96.35,174.872-156.526,188.293c-69.96,15.603-127.438-33.178-151.714-63.082
			C75.204,284.608,54.84,194.222,130.192,177.417z"/>
	</g>
</g>
<g id="Shadow">
	<ellipse id="_x3C_Path_x3E__359_" style="fill:#F5F5F5;" cx="250" cy="415.693" rx="193.889" ry="11.323"/>
</g>
<g id="Character_3_00000005253393326010114200000012752360700719036841_">
	<g>
		<path style="fill:#263238;" d="M354.108,403.197l-22.519-49.923h-52.647l8.082,46.714c0.398,2.294-1.14,4.476-3.434,4.874
			c-0.224,0.039-0.451,0.059-0.679,0.062h-23.116c-1.232,0-2.231,0.999-2.231,2.231l0,0v2.488c0,1.232,0.999,2.231,2.231,2.231l0,0
			h92.688c1.34,0,2.427-1.086,2.427-2.427v-2.581C354.904,405.602,354.63,404.351,354.108,403.197z M329.728,397.027h-25.275
			c-1.647,0.003-3.056-1.183-3.332-2.807l-3.815-22.036c-0.318-1.841,0.917-3.591,2.758-3.91c0.193-0.033,0.388-0.05,0.584-0.049
			h19.116c1.328,0.001,2.533,0.776,3.085,1.984l9.964,22.036c0.767,1.71,0.002,3.718-1.708,4.485
			C330.672,396.925,330.203,397.026,329.728,397.027z"/>
		<path style="opacity:0.5;fill:#FFFFFF;" d="M354.108,403.197l-22.519-49.923h-52.647l8.082,46.714
			c0.398,2.294-1.14,4.476-3.434,4.874c-0.224,0.039-0.451,0.059-0.679,0.062h-23.116c-1.232,0-2.231,0.999-2.231,2.231l0,0v2.488
			c0,1.232,0.999,2.231,2.231,2.231l0,0h92.688c1.34,0,2.427-1.086,2.427-2.427v-2.581
			C354.904,405.602,354.63,404.351,354.108,403.197z M329.728,397.027h-25.275c-1.647,0.003-3.056-1.183-3.332-2.807l-3.815-22.036
			c-0.318-1.841,0.917-3.591,2.758-3.91c0.193-0.033,0.388-0.05,0.584-0.049h19.116c1.328,0.001,2.533,0.776,3.085,1.984
			l9.964,22.036c0.767,1.71,0.002,3.718-1.708,4.485C330.672,396.925,330.203,397.026,329.728,397.027z"/>
		<path style="opacity:0.2;fill:#FFFFFF;enable-background:new    ;" d="M329.728,397.027h-25.275
			c-1.647,0.003-3.056-1.183-3.332-2.807l-3.815-22.036c-0.318-1.841,0.917-3.591,2.758-3.91c0.193-0.033,0.388-0.05,0.584-0.049
			h19.116c1.328,0.001,2.533,0.776,3.085,1.984l9.964,22.036c0.767,1.71,0.002,3.718-1.708,4.485
			C330.672,396.925,330.203,397.026,329.728,397.027z"/>
		<path style="fill:#263238;" d="M303.62,368.174h-2.972c-1.868-0.005-3.387,1.506-3.391,3.375c0,0.196,0.016,0.391,0.049,0.584
			l3.815,22.036c0.276,1.624,1.685,2.81,3.332,2.807h2.982c-1.647,0.003-3.056-1.183-3.332-2.807l-3.815-22.036
			c-0.318-1.841,0.917-3.592,2.758-3.91C303.236,368.191,303.428,368.174,303.62,368.174z"/>
		<path style="fill:#263238;" d="M357.09,403.197l-22.539-49.881h-2.962l22.519,49.881c0.528,1.166,0.801,2.432,0.802,3.712v2.581
			c0,1.34-1.086,2.427-2.427,2.427h2.982c1.34,0,2.427-1.086,2.427-2.427v-2.581C357.891,405.629,357.618,404.363,357.09,403.197z"
			/>
		<polygon style="opacity:0.2;enable-background:new    ;" points="331.569,353.275 278.922,353.275 280.988,365.192 
			336.957,365.192 		"/>
		<path style="fill:#263238;" d="M407.095,358.509H182.49c-4.082,0.077-7.454-3.17-7.532-7.252
			c-0.006-0.325,0.009-0.651,0.046-0.974l14.19-162.302c0.463-4.611,4.303-8.145,8.936-8.226h224.604
			c4.083-0.077,7.455,3.17,7.532,7.252c0.006,0.325-0.009,0.651-0.046,0.974l-14.2,162.312
			C415.557,354.897,411.722,358.428,407.095,358.509z"/>
		<path style="opacity:0.3;fill:#FFFFFF;" d="M407.095,358.509H182.49c-4.082,0.077-7.454-3.17-7.532-7.252
			c-0.006-0.325,0.009-0.651,0.046-0.974l14.19-162.302c0.463-4.611,4.303-8.145,8.936-8.226h224.604
			c4.083-0.077,7.455,3.17,7.532,7.252c0.006,0.325-0.009,0.651-0.046,0.974l-14.2,162.312
			C415.557,354.897,411.722,358.428,407.095,358.509z"/>
		<path style="fill:#407BFF;" d="M176.527,332.75l-1.532,17.542c-0.461,4.057,2.455,7.719,6.512,8.18
			c0.323,0.037,0.649,0.052,0.974,0.046h224.615c4.631-0.082,8.467-3.617,8.925-8.226l1.542-17.542H176.527z"/>
		<path style="opacity:0.7;fill:#FFFFFF;enable-background:new    ;" d="M176.527,332.75l-1.532,17.542
			c-0.461,4.057,2.455,7.719,6.512,8.18c0.323,0.037,0.649,0.052,0.974,0.046h224.615c4.631-0.082,8.467-3.617,8.925-8.226
			l1.542-17.542H176.527z"/>
		<path style="fill:#407BFF;" d="M409.635,327.784H185.318c-2.214,0.042-4.043-1.719-4.085-3.934
			c-0.003-0.173,0.005-0.346,0.024-0.519l11.732-134.137c0.255-2.496,2.335-4.408,4.843-4.452h224.317
			c2.214-0.042,4.044,1.719,4.086,3.934c0.003,0.173-0.005,0.347-0.024,0.519l-11.733,134.137
			C414.223,325.828,412.143,327.74,409.635,327.784z"/>
		<path style="opacity:0.8;fill:#407BFF;enable-background:new    ;" d="M409.635,327.784H185.318
			c-2.214,0.042-4.043-1.719-4.085-3.934c-0.003-0.173,0.005-0.346,0.024-0.519l11.732-134.137c0.255-2.496,2.335-4.408,4.843-4.452
			h224.317c2.214-0.042,4.044,1.719,4.086,3.934c0.003,0.173-0.005,0.347-0.024,0.519l-11.733,134.137
			C414.223,325.828,412.143,327.74,409.635,327.784z"/>
		<path style="opacity:0.8;fill:#FFFFFF;enable-background:new    ;" d="M409.635,327.784H185.318
			c-2.214,0.042-4.043-1.719-4.085-3.934c-0.003-0.173,0.005-0.346,0.024-0.519l11.732-134.137c0.255-2.496,2.335-4.408,4.843-4.452
			h224.317c2.214-0.042,4.044,1.719,4.086,3.934c0.003,0.173-0.005,0.347-0.024,0.519l-11.733,134.137
			C414.223,325.828,412.143,327.74,409.635,327.784z"/>
		<g style="opacity:0.5;">
			<polygon style="fill:#FFFFFF;" points="248.175,327.785 227.694,327.785 258.099,184.741 278.58,184.741 			"/>
			<polygon style="fill:#FFFFFF;" points="261.145,327.785 255.904,327.785 286.309,184.741 291.55,184.741 			"/>
			<polygon style="fill:#FFFFFF;" points="337.438,327.785 334.004,327.785 364.409,184.741 367.843,184.741 			"/>
			<polygon style="fill:#FFFFFF;" points="350.408,327.785 345.167,327.785 375.572,184.741 380.813,184.741 			"/>
		</g>
		<path style="fill:#263238;" d="M427.702,179.785h-4.967c4.083-0.077,7.455,3.17,7.532,7.252c0.006,0.325-0.009,0.651-0.046,0.974
			l-14.2,162.281c-0.458,4.609-4.294,8.145-8.925,8.226h4.966c4.631-0.082,8.467-3.617,8.925-8.226l14.2-162.302
			c0.449-4.058-2.476-7.713-6.535-8.162C428.337,179.794,428.019,179.779,427.702,179.785z"/>
		<path style="opacity:0.6;fill:#FFFFFF;enable-background:new    ;" d="M427.702,179.785h-4.967
			c4.083-0.077,7.455,3.17,7.532,7.252c0.006,0.325-0.009,0.651-0.046,0.974l-14.2,162.281c-0.458,4.609-4.294,8.145-8.925,8.226
			h4.966c4.631-0.082,8.467-3.617,8.925-8.226l14.2-162.302c0.449-4.058-2.476-7.713-6.535-8.162
			C428.337,179.794,428.019,179.779,427.702,179.785z"/>
	</g>
	<g>
		<g>
			<g>
				<path style="fill:#407BFF;" d="M308.641,277.697c-0.813,9.294-9.006,16.828-18.3,16.828c-9.294,0-16.169-7.534-15.356-16.828
					c0.813-9.294,9.006-16.828,18.3-16.828l0.753-8.604c-14.046,0-26.428,11.386-27.657,25.432
					c-1.229,14.046,9.161,25.432,23.207,25.432c14.046,0,26.428-11.386,27.657-25.432H308.641z"/>
				<path style="fill:#407BFF;" d="M320.261,273.967c1.229-14.045-9.161-25.432-23.207-25.432l-0.753,8.604
					c9.294,0,16.169,7.534,15.356,16.828H320.261z"/>
				<path style="opacity:0.3;" d="M320.261,273.967c1.229-14.045-9.161-25.432-23.207-25.432l-0.753,8.604
					c9.294,0,16.169,7.534,15.356,16.828H320.261z"/>
			</g>
			<g>
				<path style="fill:#407BFF;" d="M299.187,277.698c-0.37,4.23-4.099,7.658-8.329,7.658c-4.23,0-7.359-3.429-6.988-7.658
					c0.37-4.23,4.099-7.659,8.329-7.659l0.343-3.916c-6.392,0-12.028,5.182-12.587,11.574c-0.559,6.392,4.169,11.574,10.562,11.574
					c6.392,0,12.028-5.182,12.587-11.574H299.187z"/>
				<path style="opacity:0.3;" d="M299.187,277.698c-0.37,4.23-4.099,7.658-8.329,7.658c-4.23,0-7.359-3.429-6.988-7.658
					c0.37-4.23,4.099-7.659,8.329-7.659l0.343-3.916c-6.392,0-12.028,5.182-12.587,11.574c-0.559,6.392,4.169,11.574,10.562,11.574
					c6.392,0,12.028-5.182,12.587-11.574H299.187z"/>
				<path style="fill:#407BFF;" d="M304.475,276.001c0.559-6.392-4.169-11.574-10.561-11.574l-0.343,3.916
					c4.23,0,7.359,3.429,6.989,7.659H304.475z"/>
			</g>
		</g>
		<g>
			<path style="fill:#263238;" d="M354.034,290.941h-20.235c-0.762,0-1.326-0.618-1.259-1.38l0,0c0.067-0.762,0.738-1.38,1.5-1.38
				h20.235c0.762,0,1.326,0.618,1.259,1.38l0,0C355.467,290.324,354.796,290.941,354.034,290.941z"/>
			<path style="fill:#263238;" d="M348.473,296.367h-15.149c-0.762,0-1.326-0.618-1.259-1.38l0,0c0.067-0.762,0.738-1.38,1.5-1.38
				h15.149c0.762,0,1.326,0.618,1.259,1.38l0,0C349.906,295.749,349.235,296.367,348.473,296.367z"/>
		</g>
		<g>
			<path style="fill:#263238;" d="M230.707,293.225h20.235c0.762,0,1.434-0.618,1.502-1.38l0,0c0.068-0.762-0.495-1.38-1.257-1.38
				h-20.235c-0.762,0-1.435,0.618-1.502,1.38l0,0C229.382,292.607,229.945,293.225,230.707,293.225z"/>
			<path style="fill:#263238;" d="M235.311,298.65h15.149c0.762,0,1.435-0.618,1.502-1.38l0,0c0.068-0.762-0.495-1.38-1.257-1.38
				h-15.149c-0.762,0-1.434,0.618-1.502,1.38l0,0C233.986,298.033,234.549,298.65,235.311,298.65z"/>
		</g>
		<g>
			<polygon style="fill:#263238;" points="328.751,290.353 321.859,290.353 306.231,273.227 301.199,273.227 301.326,271.78 
				306.957,271.78 322.585,288.906 328.878,288.906 			"/>
		</g>
		<g>
			<polygon style="fill:#263238;" points="254.91,293.36 261.802,293.36 277.43,276.234 282.462,276.234 282.336,274.787 
				276.704,274.787 261.076,291.913 254.783,291.913 			"/>
		</g>
	</g>
	<g>
		<g>
			<polygon style="opacity:0.1;" points="246.528,205.527 209.944,205.527 210.554,198.553 247.138,198.553 			"/>
			<polygon style="opacity:0.1;" points="245.308,219.476 208.724,219.476 209.334,212.502 245.918,212.502 			"/>
			<polygon style="opacity:0.1;" points="244.087,233.426 207.503,233.426 208.114,226.451 244.697,226.451 			"/>
		</g>
		<g>
			<polygon style="opacity:0.2;fill:#FFFFFF;" points="245.918,212.502 209.334,212.502 209.944,205.527 246.528,205.527 			"/>
			<polygon style="opacity:0.2;fill:#FFFFFF;" points="244.697,226.451 208.114,226.451 208.724,219.476 245.308,219.476 			"/>
		</g>
		<g>
			<path style="fill:#407BFF;" d="M230.663,232.635c-4.898,0-5.718-8.245-6.586-16.973c-0.8-8.049-1.628-16.372-5.914-16.372
				c-3.516,0-7.529,11.818-8.779,16.372l-0.713-0.135c0.011-0.042,1.17-4.24,2.877-8.382c2.349-5.701,4.596-8.591,6.678-8.591
				c4.898,0,5.718,8.245,6.586,16.973c0.8,8.049,1.628,16.372,5.914,16.372c3.428,0,7.327-11.231,8.679-16.015
				c0.056-0.198,0.259-0.326,0.453-0.29l0,0c0.198,0.038,0.314,0.23,0.256,0.431c-0.32,1.109-1.358,4.583-2.774,8.019
				C234.992,229.745,232.745,232.635,230.663,232.635z"/>
		</g>
		<g>
			<path style="fill:#407BFF;" d="M213.777,228.829c-3.718,0-4.992-11.739-5.125-13.077l0.736-0.135
				c0.345,3.47,1.818,12.475,4.453,12.475c2.685,0,4.158-5.368,5.582-10.559c1.575-5.74,3.062-11.161,6.359-11.161
				c2.769,0,3.216,4.49,3.688,9.244c0.422,4.249,0.859,8.643,3.016,8.643c2.157,0,3.363-4.394,4.529-8.642
				c1.305-4.754,2.537-9.244,5.306-9.244c1.216,0,2.174,1.546,2.928,4.726c0.404,1.702,0.633,3.421,0.719,4.153
				c0.024,0.201-0.126,0.396-0.331,0.433l0,0c-0.202,0.037-0.38-0.092-0.402-0.29c-0.373-3.348-1.463-8.285-2.979-8.285
				c-2.157,0-3.363,4.394-4.529,8.643c-1.305,4.754-2.536,9.244-5.306,9.244c-2.769,0-3.216-4.49-3.688-9.244
				c-0.422-4.249-0.859-8.642-3.016-8.642c-2.685,0-4.158,5.368-5.582,10.559C218.562,223.408,217.074,228.829,213.777,228.829z"/>
		</g>
		<g style="opacity:0.5;">
			<path d="M213.777,228.829c-3.718,0-4.992-11.739-5.125-13.077l0.736-0.135c0.345,3.47,1.818,12.475,4.453,12.475
				c2.685,0,4.158-5.368,5.582-10.559c1.575-5.74,3.062-11.161,6.359-11.161c2.769,0,3.216,4.49,3.688,9.244
				c0.422,4.249,0.859,8.643,3.016,8.643c2.157,0,3.363-4.394,4.529-8.642c1.305-4.754,2.537-9.244,5.306-9.244
				c1.216,0,2.174,1.546,2.928,4.726c0.404,1.702,0.633,3.421,0.719,4.153c0.024,0.201-0.126,0.396-0.331,0.433l0,0
				c-0.202,0.037-0.38-0.092-0.402-0.29c-0.373-3.348-1.463-8.285-2.979-8.285c-2.157,0-3.363,4.394-4.529,8.643
				c-1.305,4.754-2.536,9.244-5.306,9.244c-2.769,0-3.216-4.49-3.688-9.244c-0.422-4.249-0.859-8.642-3.016-8.642
				c-2.685,0-4.158,5.368-5.582,10.559C218.562,223.408,217.074,228.829,213.777,228.829z"/>
		</g>
		<g>
			<path style="fill:#263238;" d="M244.326,234.133h-37.289l3.077-35.176c0.02-0.223,0.217-0.404,0.44-0.404l0,0
				c0.223,0,0.388,0.181,0.369,0.404l-3.007,34.368h36.48c0.223,0,0.388,0.181,0.369,0.404l0,0
				C244.746,233.952,244.549,234.133,244.326,234.133z"/>
		</g>
	</g>
	<g>
		<path style="fill:#407BFF;" d="M328.347,200.074h-0.961h-10.647h-0.961h-10.646h-0.961h-10.647h-0.961h-10.647h-0.961h-11.608
			l-1.016,11.608l-0.084,0.961l-0.931,10.647l-0.084,0.961l-1.016,11.608h11.608h0.961h10.647h0.962h10.647H302h10.646h0.961h10.647
			h0.961h11.609l1.016-11.608l0.084-0.961l0.931-10.647l0.084-0.961l1.016-11.608H328.347z M316.654,201.035h10.647l-0.931,10.646
			h-10.647L316.654,201.035z M325.354,223.29h-10.647l0.932-10.647h10.647L325.354,223.29z M280.814,212.643h10.647l-0.932,10.647
			h-10.647L280.814,212.643z M292.423,212.643h10.647l-0.932,10.647h-10.647L292.423,212.643z M304.031,212.643h10.646
			l-0.931,10.647H303.1L304.031,212.643z M305.047,201.035h10.646l-0.931,10.646h-10.646L305.047,201.035z M293.438,201.035h10.647
			l-0.931,10.646h-10.647L293.438,201.035z M281.83,201.035h10.647l-0.932,10.646h-10.647L281.83,201.035z M270.221,201.035h10.647
			l-0.931,10.646H269.29L270.221,201.035z M269.206,212.643h10.647l-0.932,10.647h-10.647L269.206,212.643z M277.906,234.898
			h-10.647l0.931-10.647h10.647L277.906,234.898z M289.514,234.898h-10.647l0.932-10.647h10.647L289.514,234.898z M301.122,234.898
			h-10.647l0.932-10.647h10.647L301.122,234.898z M312.73,234.898h-10.646l0.932-10.647h10.646L312.73,234.898z M324.339,234.898
			h-10.647l0.931-10.647h10.647L324.339,234.898z M335.947,234.898H325.3l0.932-10.647h10.647L335.947,234.898z M336.962,223.29
			h-10.647l0.931-10.647h10.647L336.962,223.29z M327.331,211.681l0.931-10.646h10.647l-0.932,10.646H327.331z"/>
		<g>
			<polygon style="fill:#407BFF;" points="280.908,235.379 273.359,235.379 274.556,221.705 282.104,221.705 			"/>
			<polygon style="fill:#263238;" points="292.517,235.379 284.968,235.379 286.491,217.966 294.04,217.966 			"/>
			<polygon style="fill:#407BFF;" points="304.694,235.379 297.146,235.379 298.669,217.966 306.218,217.966 			"/>
			<polygon style="fill:#263238;" points="315.733,235.379 308.184,235.379 310.547,208.376 318.095,208.376 			"/>
			<polygon style="fill:#407BFF;" points="327.341,235.379 319.792,235.379 322.331,206.358 329.88,206.358 			"/>
			<polygon style="opacity:0.2;" points="280.908,235.379 273.359,235.379 274.556,221.705 282.104,221.705 			"/>
			<polygon style="opacity:0.2;" points="304.694,235.379 297.146,235.379 298.669,217.966 306.218,217.966 			"/>
			<polygon style="opacity:0.2;" points="327.341,235.379 319.792,235.379 322.331,206.358 329.88,206.358 			"/>
		</g>
	</g>
	<g id="Character_3">
		<g>
			<path style="fill:#263238;" d="M385.257,327.786c3.628-28.228,7.22-58.522,7.22-58.522l-29.005-0.184
				c0,0-2.681,31.599-4.79,58.706H385.257z"/>
			<path style="opacity:0.6;" d="M386.275,327.786c1.283-10.497,2.558-21.284,3.656-30.705c0.256-3.934,0.502-7.747,0.734-11.37
				c-2.201-5.108-6.535-7.927-9.562,3.87c-2.73,10.621-3.37,24.121-0.373,38.204H386.275z"/>
			<path style="fill:#263238;" d="M409.457,327.786c-1.331-27.741-2.764-59.118-2.764-59.118h-28.011c0,0,2.43,32.383,5.042,59.118
				H409.457z"/>
			<path style="fill:#CE7A63;" d="M360.741,202.639c-1.984,4.583-4.227,9.361-6.606,13.786c-1.18,2.232-2.448,4.387-3.765,6.393
				c-1.298,1.985-2.771,3.862-4.08,5.044c-0.319,0.291-0.621,0.527-0.853,0.681c-0.233,0.16-0.386,0.225-0.381,0.244
				c0.024,0.012,0.147,0.065,0.04,0.078c-0.082,0.012-0.294-0.005-0.591-0.114c-0.595-0.21-1.419-0.719-2.227-1.374
				c-0.815-0.658-1.668-1.433-2.484-2.295c-3.278-3.459-6.384-7.78-9.24-12.005l-5.135,2.387c1.814,5.358,4.059,10.358,7.447,15.245
				c0.864,1.211,1.8,2.425,2.931,3.593c1.14,1.161,2.431,2.325,4.216,3.332c0.889,0.5,1.942,0.947,3.17,1.214
				c1.202,0.278,2.686,0.326,4.014,0.059c2.632-0.548,4.339-1.713,5.777-2.783c2.823-2.216,4.682-4.581,6.466-6.937
				c1.744-2.366,3.241-4.785,4.658-7.214c1.387-2.445,2.697-4.898,3.879-7.403c1.194-2.524,2.32-4.962,3.369-7.661L360.741,202.639z
				"/>
			<path style="fill:#407BFF;" d="M347.312,222.099l12.826,9.573c0,0,0.493-0.54,1.307-1.479c0.592-0.693,1.357-1.605,2.243-2.677
				c4.983-6.071,12.269-17.154,12.329-22.582c0.088-8.091-8.313-9.283-17.74-1.006c-4.067,3.57-6.19,9.497-8.26,13.171
				c-0.685,1.211-1.26,2.27-1.704,3.094C347.674,221.385,347.312,222.099,347.312,222.099z"/>
			<path style="opacity:0.3;" d="M376.102,205.867c-2.899-1.916-5.015,3.043-10.742,7.232c-2.555,1.869-8.15,14.05-7.69,16.731
				l2.471,1.843C360.141,231.673,376.166,213.931,376.102,205.867z"/>
			<path style="fill:#CE7A63;" d="M326.808,217.378l-7.334-5.803l7.555-4.865c0,0,6.009,6.544,4.374,8.792L326.808,217.378z"/>
			<polygon style="fill:#407BFF;" points="347.312,220.854 361.331,231.335 359.584,233.161 346.244,223.315 			"/>
			<polygon style="opacity:0.2;" points="347.312,220.854 361.331,231.335 359.584,233.161 346.244,223.315 			"/>
			<path style="fill:#407BFF;" d="M363.329,269.082h43.408c0.307-3.876-0.591-16.487,0.077-32.548
				c0.449-10.784,1.609-23.122,4.313-35.405c0.197-0.876,0.394-1.741,0.602-2.617c0,0-2.2-0.449-5.353-0.909
				c-2.616-0.383-5.901-0.777-9.12-0.931c-5.539-0.262-13.564-0.438-18.447,0c-2.836,0.263-5.605,0.734-7.817,1.16
				c-2.824,0.57-4.489,1.056-4.489,1.056S355.808,223.441,363.329,269.082z"/>
			<polygon style="fill:#CE7A63;" points="319.019,203.219 325.15,201.201 327.03,206.709 319.474,211.574 			"/>
			<g>
				<path style="fill:#CE7A63;" d="M416.628,208.611c1.221,2.511,2.206,4.898,3.206,7.393c0.995,2.473,1.879,4.997,2.7,7.572
					c0.802,2.582,1.524,5.217,2.087,7.976c0.531,2.775,0.976,5.622,0.874,8.927c-0.096,1.666-0.28,3.468-1.115,5.565
					c-0.426,1.038-1.053,2.168-2,3.191c-0.934,1.027-2.209,1.869-3.482,2.353c-2.609,0.943-4.796,0.661-6.53,0.301
					c-1.762-0.388-3.221-1.003-4.577-1.668c-2.696-1.334-4.972-2.936-7.113-4.641c-1.071-0.849-2.091-1.742-3.073-2.669
					c-0.995-0.931-1.93-1.837-2.886-2.894l3.633-4.345c4.214,2.414,8.762,4.87,12.884,6.176c1.016,0.307,2.004,0.514,2.772,0.567
					c0.777,0.074,1.262-0.146,1.052-0.173c-0.093-0.012-0.279,0.091-0.373,0.145c-0.096,0.06-0.085,0.056-0.051-0.103
					c0.082-0.308,0.176-1.099,0.142-1.99c-0.042-1.834-0.455-4.086-1.026-6.315c-0.558-2.25-1.274-4.547-2.071-6.84
					c-1.573-4.566-3.469-9.272-5.4-13.656L416.628,208.611z"/>
				<path style="fill:#CE7A63;" d="M400.163,237.109l-6.855-6.362l-3.654,8.21c0,0,7.385,4.939,9.357,2.98L400.163,237.109z"/>
				<polygon style="fill:#CE7A63;" points="384.981,231.573 383.923,237.94 389.654,238.957 393.308,230.747 				"/>
			</g>
			<path style="opacity:0.3;" d="M406.813,236.538c0.449-10.784,1.61-23.122,4.314-35.405c-2.901-0.252-7.861,0.033-8.682,4.719
				C401.559,210.887,402.675,222.733,406.813,236.538z"/>
			<path style="fill:#407BFF;" d="M401.373,212.45c1.591,5.326,4.282,11.73,6.273,16.209c0.522,1.187,1.007,2.245,1.402,3.098
				c0.692,1.501,1.128,2.409,1.128,2.409l16.247-8.281c0,0-0.179-0.676-0.5-1.813c-0.247-0.859-0.569-1.986-0.971-3.285
				c-2.393-7.659-7.35-21.347-12.641-22.306C404.401,197.051,398.475,202.797,401.373,212.45z"/>
			<path style="fill:#FFFFFF;" d="M386.627,202.772c10.718-0.296,12.327-5.529,12.393-5.758l0.065-0.23
				c-0.613-0.044-1.215-0.077-1.828-0.109c-5.54-0.263-13.564-0.438-18.447,0c-0.35,0.033-0.69,0.066-1.04,0.109
				c-0.766,0.788-1.511,1.905-1.204,3.109c0.471,1.828,2.978,2.441,5.178,2.693L386.627,202.772z"/>
			<polygon style="fill:#407BFF;" points="426.044,222.972 408.285,232.05 410.296,234.511 426.803,225.936 			"/>
			<polygon style="opacity:0.2;" points="426.044,222.972 408.285,232.05 410.296,234.511 426.803,225.936 			"/>
			<path style="fill:#407BFF;" d="M389.281,208.308l-5.241-4.764l-6.452,4.447c0,0-6.678-6.328-1.719-10.967
				c0.961-0.133,1.941-0.257,2.94-0.35c4.883-0.438,12.908-0.262,18.447,0c1.263,0.06,2.527,0.164,3.766,0.283
				C400.655,198.749,398.756,204.638,389.281,208.308z"/>
			<path style="opacity:0.2;" d="M389.281,208.308l-5.241-4.764l-6.452,4.447c0,0-6.678-6.328-1.719-10.967
				c0.961-0.133,1.941-0.257,2.94-0.35c4.883-0.438,12.908-0.262,18.447,0c1.263,0.06,2.527,0.164,3.766,0.283
				C400.655,198.749,398.756,204.638,389.281,208.308z"/>
			<path style="fill:#CE7A63;" d="M386.278,201.686c10.327-0.184,11.69-4.969,11.69-4.969c-4.018-3.963-2.474-14.79-1.106-20.735
				l-4.938,4.095l-6.722,5.583c0.197,0.909,0.35,1.829,0.427,2.715c0.361,3.645-0.58,6.963-5.945,8.232c0,0-6.363,4.215,3.081,4.977
				L386.278,201.686z"/>
			<path style="opacity:0.2;" d="M385.203,185.66c0.197,0.909,0.35,1.829,0.427,2.716c2.507-0.504,5.857-3.175,6.207-5.737
				c0.131-0.963,0.153-1.894,0.088-2.562L385.203,185.66z"/>
			<path style="fill:#CE7A63;" d="M398.898,167.432c-1.716,7.893-2.319,12.585-6.981,16.186c-7.012,5.417-16.305,0.605-16.986-7.558
				c-0.613-7.347,2.297-19.02,10.6-21.255C393.711,152.604,400.614,159.54,398.898,167.432z"/>
			<path style="fill:#263238;" d="M386.445,168.215c-0.1,0.647-0.525,1.131-0.95,1.081c-0.425-0.051-0.688-0.617-0.589-1.264
				c0.1-0.647,0.525-1.131,0.95-1.081C386.282,167.002,386.545,167.568,386.445,168.215z"/>
			<path style="fill:#263238;" d="M379.098,167.341c-0.1,0.647-0.525,1.131-0.95,1.081c-0.425-0.051-0.688-0.616-0.589-1.264
				c0.1-0.647,0.526-1.131,0.95-1.081C378.934,166.128,379.198,166.694,379.098,167.341z"/>
			<path style="fill:#BA4D3C;" d="M381.384,167.941c0,0-2.054,3.559-3.959,5.167c0.985,1.206,3.016,0.95,3.016,0.95L381.384,167.941
				z"/>
			<path style="fill:#263238;" d="M389.083,166.123c0.063,0,0.127-0.016,0.186-0.048c0.186-0.103,0.253-0.337,0.15-0.523
				c-1.02-1.837-2.801-1.944-2.875-1.947c-0.199-0.029-0.392,0.152-0.403,0.365c-0.01,0.212,0.153,0.392,0.365,0.403
				c0.074,0.005,1.44,0.109,2.241,1.552C388.816,166.052,388.947,166.123,389.083,166.123z"/>
			<path style="fill:#263238;" d="M376.327,164.449c0.123,0,0.244-0.059,0.318-0.168c0.985-1.445,2.415-1.471,2.429-1.471
				c0.213-0.001,0.384-0.174,0.382-0.386c-0.001-0.212-0.173-0.382-0.384-0.382h-0.002c-0.075,0-1.851,0.031-3.06,1.806
				c-0.12,0.175-0.074,0.415,0.101,0.534C376.177,164.428,376.253,164.449,376.327,164.449z"/>
			<g>
				<path style="fill:#263238;" d="M378.245,176.202c0,0,2.403-0.622,9.196-0.807c-0.741,2.063-2.18,3.77-5.66,3.832
					C378.301,179.29,378.245,176.202,378.245,176.202z"/>
				<path style="fill:#A02724;" d="M383.351,177.579c-1.679,0.03-2.882,0.445-3.763,1.09c0.504,0.345,1.218,0.573,2.19,0.555
					c1.679-0.03,2.875-0.436,3.755-1.09C385.028,177.789,384.323,177.561,383.351,177.579z"/>
				<path style="fill:#FFFFFF;" d="M378.551,176.136c0.205,0.43,0.408,0.861,1.092,0.984c1.418,0.058,5.029-0.443,5.997-0.672
					c0.62-0.119,1.146-0.346,1.507-1.044C381.917,175.559,379.371,175.973,378.551,176.136z"/>
			</g>
			<path style="fill:#263238;" d="M394.39,161.535c-1.462-1.508-1.884-3.322-7.923-2.788c-6.039,0.534-12.411,5.193-12.283-0.038
				c0.03-1.2,1.052,0.202,3.048-2.401c0,0-5.465,2.469-3.755-1.011c1.376-2.802,2.92,1.504,9.909-3.893s16.19-0.531,18.844,6.724
				c0,0,4.777,1.437,4.07,6.734c-0.619,4.635-7.132,8.06-7.802,13.703c-0.096,0.806,0.907,2.107,0.105,2.565
				c-0.463,0.264-1.592-1.416-1.592-1.416s-0.192,0.326-0.335,0.979c-0.163,0.748,1.474,2.686,0.069,3.533
				c-0.802,0.484-1.153-0.948-1.635-3.371c-0.176-0.886-0.263-1.97-0.171-3.277c0.344-4.88-1.998-2.64-1.91-5.737
				c0.061-2.15,1.786-5.749,2.835-7.749c0.344-0.655,0.126-1.491-0.527-1.839C395.033,162.09,394.706,161.861,394.39,161.535z"/>
			<path style="fill:#CE7A63;" d="M400.716,175.669c-1.411,1.696-3.354,2.696-5.009,2.979c-2.489,0.425-3.049-1.881-1.784-4.108
				c1.138-2.005,3.805-4.642,6.028-4.053C402.141,171.065,402.33,173.73,400.716,175.669z"/>
		</g>
	</g>
</g>
<g id="Character_1">
	<g>
		<g>
			<g>
				<path style="fill:#263238;" d="M105.337,328.795l28.636,3.335l0.282-2.423l-29.989-3.492l-0.125,1.07
					C104.055,328.031,104.59,328.708,105.337,328.795z"/>
				<path style="opacity:0.2;fill:#FFFFFF;" d="M105.337,328.795l28.636,3.335l0.282-2.423l-29.989-3.492l-0.125,1.07
					C104.055,328.031,104.59,328.708,105.337,328.795z"/>
			</g>
			<path style="fill:#263238;" d="M128.458,331.487l23.387,2.723l0.282-2.423l-24.739-2.881l-0.125,1.07
				C127.175,330.724,127.711,331.4,128.458,331.487z"/>
			<path style="opacity:0.5;fill:#FFFFFF;" d="M128.458,331.487l23.387,2.723l0.282-2.423l-24.739-2.881l-0.125,1.07
				C127.175,330.724,127.711,331.4,128.458,331.487z"/>
			
				<rect x="146.503" y="332.07" transform="matrix(-0.9933 -0.1157 0.1157 -0.9933 255.9952 679.8604)" style="fill:#263238;" width="2.441" height="0.866"/>
			
				<rect x="142.727" y="331.63" transform="matrix(-0.9933 -0.1157 0.1157 -0.9933 248.5164 678.5475)" style="fill:#263238;" width="2.44" height="0.866"/>
			<g>
				<polygon style="fill:#263238;" points="150.487,331.597 152.098,331.784 156.316,310.079 154.704,309.892 				"/>
				<polygon style="opacity:0.3;fill:#FFFFFF;" points="150.487,331.597 152.098,331.784 156.316,310.079 154.704,309.892 				"/>
				<polygon style="fill:#407BFF;" points="151.082,331.666 122.76,328.368 126.978,306.663 155.299,309.961 				"/>
				<polygon style="opacity:0.5;fill:#FFFFFF;" points="151.082,331.666 122.76,328.368 126.978,306.663 155.299,309.961 				"/>
			</g>
		</g>
		<g>
			<g>
				<g>
					<path style="fill:#FFB573;" d="M93.268,284.141c-0.778,1.546-1.637,3.232-2.409,4.869c-0.772,1.657-1.55,3.305-2.254,4.963
						c-0.718,1.651-1.385,3.306-1.951,4.937c-0.573,1.614-1.054,3.248-1.276,4.639c-0.121,0.679-0.157,1.311-0.142,1.62
						c0.003,0.073,0.005,0.127,0.001,0.145c-0.001,0.004-0.008,0.021-0.014,0.004l-0.015-0.012l-0.048-0.081
						c-0.142-0.201,0.712,0.796,1.325,1.22c0.627,0.431,1.338,0.872,2.084,1.298c3.01,1.692,6.489,3.21,9.839,4.752l-1.125,4.681
						c-2.032-0.155-3.958-0.43-5.923-0.824c-1.957-0.391-3.912-0.876-5.894-1.565c-0.995-0.342-1.998-0.729-3.026-1.238
						c-1.032-0.523-2.093-1.081-3.269-2.102c-0.577-0.523-1.214-1.168-1.796-2.214c-0.07-0.132-0.146-0.277-0.204-0.401
						l-0.147-0.343c-0.101-0.236-0.17-0.448-0.244-0.671c-0.14-0.438-0.236-0.85-0.311-1.246c-0.278-1.573-0.232-2.861-0.142-4.069
						c0.228-2.39,0.74-4.449,1.305-6.461c0.589-1.995,1.267-3.902,1.996-5.769c0.746-1.859,1.522-3.685,2.382-5.465
						c0.863-1.798,1.702-3.518,2.725-5.324L93.268,284.141z"/>
					<path style="fill:#FFB573;" d="M96.216,312.689l7.208-1.853l0.593,6.479c0,0-4.857,2.004-7.85-1.13L96.216,312.689z"/>
					<polygon style="fill:#FFB573;" points="106.328,311.788 107.859,317.016 104.017,317.316 103.424,310.836 					"/>
				</g>
				<path style="fill:#407BFF;" d="M77.957,291.77l10.288,5.091c0,0,2.64,0.838,7.5-6.93c5.63-9.04,2.543-14.118-4.244-14.361
					C84.559,275.31,82.088,283.904,77.957,291.77z"/>
				<path style="opacity:0.5;fill:#FFFFFF;" d="M77.957,291.77l10.288,5.091c0,0,2.64,0.838,7.5-6.93
					c5.63-9.04,2.543-14.118-4.244-14.361C84.559,275.31,82.088,283.904,77.957,291.77z"/>
				<polygon style="opacity:0.2;" points="81.785,293.667 87.663,296.581 90.65,293.054 87.332,284.196 86.408,283.184 
					84.102,282.85 				"/>
				<polygon style="fill:#407BFF;" points="77.919,291.019 89.298,296.838 87.785,298.64 77.312,293.298 				"/>
				<path style="fill:#2E353A;" d="M108.705,252.557c0.332-0.081,0.745,0.219,0.923,0.729c0.178,0.51,0.057,1.029-0.284,1.11
					c-0.34,0.081-0.753-0.227-0.931-0.729C108.211,253.157,108.373,252.638,108.705,252.557z"/>
				<path style="fill:#ED893E;" d="M110.519,258.041c0.767-0.082,1.459-0.5,1.887-1.142c-1.299-0.789-2.486-1.748-3.532-2.851
					L110.519,258.041z"/>
				<path style="fill:#2E353A;" d="M106.453,251.78c0.12-0.781,0.613-1.455,1.32-1.806c0.133-0.07,0.199-0.224,0.157-0.369
					c-0.049-0.168-0.224-0.264-0.392-0.215c-0.911,0.428-1.548,1.281-1.701,2.276c-0.001,0.003-0.001,0.007-0.002,0.01
					c-0.028,0.168,0.085,0.326,0.253,0.354c0.053,0.012,0.109,0.012,0.162,0C106.358,251.989,106.435,251.893,106.453,251.78z"/>
				<path style="fill:#FFB573;" d="M93.919,276.396c-0.344,1.539-0.578,2.268,0.798,2.932c2.903,1.497,6.099,2.027,9.24,1.531
					c3.275-0.559,3.86-1.725,3.722-2.665c-0.131-0.761-0.819-1.223-1.507-1.571c-1.398-0.513-2.367-2.011-2.415-3.734
					c-0.083-0.77-0.158-2.309,0.048-2.535l-5.855-3.872l-4.417-4.925C94.6,265.534,94.799,272.467,93.919,276.396z"/>
				<path style="fill:#407BFF;" d="M112.325,279.822c0,0-2.163-5.97-5.67-7.347c-3.507-1.377-14.037-0.608-14.037-0.608
					c-0.499,2.154-1.157,4.269-1.968,6.326L112.325,279.822z"/>
				<path style="fill:#FFB573;" d="M90.842,254.961c0.151-4.919,4.261-8.783,9.179-8.632c6.772,0.243,10.732,8.942,11.34,14.872
					c0.672,6.585-5.808,12.101-12.02,9.104c-4.131-1.993-5.281-5.589-7.768-11.526C91.052,257.575,90.802,256.272,90.842,254.961z"
					/>
				<path style="opacity:0.2;" d="M91.926,274.466c-0.373,1.26-0.794,2.505-1.276,3.728l20.031,1.505
					c-0.425-0.994-1.045-2.246-1.853-3.365C103.986,274.376,95.525,274.368,91.926,274.466z"/>
				<polygon style="fill:#FFB573;" points="158.013,387.853 164.124,385.21 168.819,399.921 162.707,402.572 				"/>
				<polygon style="opacity:0.2;enable-background:new    ;" points="158.013,387.853 164.124,385.21 166.468,392.561 
					160.29,394.985 				"/>
				<path style="fill:#407BFF;" d="M169.501,397.336c1.829,1.532,5.558,2.642,8.415,2.806c2.203,0.113,2.39,2.641-0.369,3.105
					c-2.759,0.464-7.566,0.245-9.586,0.33c-3.278,0.126-4.392,0.662-6.986,0.623c-0.646-0.034-1.147-0.577-1.128-1.224l0.551-5.888
					c0.022-0.261,0.248-0.458,0.51-0.444l7.467,0.241C168.79,396.908,169.186,397.066,169.501,397.336z"/>
				<path style="fill:#407BFF;" d="M102.205,327.129c0,0-5.131,6.083-0.994,15.711c4.672,10.913,29.449,6.117,42.982,9.598
					c1.928,19.27,13.177,39.046,13.177,39.046l9.403-3.688c0,0-4.076-15.347-7.133-42.534
					c-1.502-13.379-35.454-14.847-35.454-14.847L102.205,327.129z"/>
				<polygon style="fill:#407BFF;" points="155.497,389.743 167.476,385.556 168.204,389.939 157.291,393.902 				"/>
				<polygon style="fill:#FFB573;" points="129.084,394.162 135.678,393.846 134.6,409.414 128.007,409.73 				"/>
				<path style="fill:#407BFF;" d="M136.399,407.778c1.831,1.523,4.909,3.645,7.744,4.05c1.814,0.259,3.183,3.013-0.219,3.013
					c-3.402,0-7.055-0.324-9.072-0.389c-3.281-0.105-4.374,0.186-6.974,0.186l-0.002,0c-0.648-0.027-1.151-0.575-1.124-1.223
					l0.543-5.889c0.026-0.259,0.251-0.452,0.51-0.437l7.46,0.235C135.683,407.342,136.083,407.502,136.399,407.778z"/>
				<polygon style="opacity:0.2;enable-background:new    ;" points="128.485,402.748 135.054,402.756 135.678,393.854 
					129.084,394.17 				"/>
				<path style="fill:#407BFF;" d="M85.717,328.187c0,0-5.403,11.024-0.146,18.039c4.755,6.358,29.063,6.788,41.415,6.788
					c-1.223,15.066,0.13,46.016,0.13,46.016l9.89-0.138c0,0,6.982-29.759,8.416-50.585c0.802-11.567-40.378-19.237-40.378-19.237
					L85.717,328.187z"/>
				<polygon style="fill:#407BFF;" points="125.763,396.98 139.355,396.583 138.764,400.642 126.282,400.82 				"/>
				<path style="fill:#407BFF;" d="M85.52,329.762l34.639,0.693l1.176-45.585c-0.433-5.163-4.75-9.132-9.93-9.132H91.15
					c-3.918,0-7.083,3.195-7.048,7.112L85.52,329.762z"/>
				<path style="opacity:0.6;fill:#FFFFFF;" d="M85.52,329.762l34.639,0.693l1.176-45.585c-0.433-5.163-4.75-9.132-9.93-9.132H91.15
					c-3.918,0-7.083,3.195-7.048,7.112L85.52,329.762z"/>
				<g>
					<path style="fill:#FFB573;" d="M120.821,283.806l0.652,2.568c0.229,0.88,0.471,1.76,0.726,2.636
						c0.522,1.748,1.038,3.495,1.628,5.206c0.572,1.714,1.197,3.402,1.877,5.034c0.669,1.638,1.411,3.22,2.224,4.695
						c0.399,0.745,0.824,1.453,1.268,2.123c0,0,0.261,0.347,0.911,0.301c0.66-0.041,1.441-0.142,2.243-0.317
						c3.244-0.702,6.821-2.085,10.232-3.393l2.566,4.073c-1.579,1.362-3.165,2.531-4.891,3.638c-1.72,1.099-3.522,2.118-5.56,2.952
						c-1.022,0.414-2.1,0.807-3.336,1.066c-1.238,0.246-2.628,0.464-4.474,0.125c-0.917-0.184-1.979-0.57-2.966-1.3
						c-0.486-0.344-0.96-0.826-1.312-1.25l-0.528-0.654c-0.692-0.875-1.33-1.766-1.916-2.667c-2.337-3.618-4.029-7.367-5.474-11.159
						c-0.697-1.903-1.353-3.81-1.9-5.746c-0.278-0.967-0.543-1.937-0.794-2.913c-0.261-0.993-0.466-1.924-0.689-3.027
						L120.821,283.806z"/>
					<path style="fill:#FFB573;" d="M143.966,307.132l6.705-3.229l-3.723-5.336c0,0-5.005,1.598-5.273,5.924L143.966,307.132z"/>
					<polygon style="fill:#FFB573;" points="152.279,301.304 150.08,296.32 146.949,298.567 150.672,303.903 					"/>
					<path style="fill:#407BFF;" d="M114.511,299.279l10.33-3.67c0,0,1.471-1.409-1.202-10.151
						c-3.111-10.183-8.97-11.198-13.614-6.25C105.269,284.276,111.283,290.994,114.511,299.279z"/>
					<path style="opacity:0.5;fill:#FFFFFF;" d="M114.511,299.279l10.33-3.67c0,0,1.471-1.409-1.202-10.151
						c-3.111-10.183-8.97-11.198-13.614-6.25C105.269,284.276,111.283,290.994,114.511,299.279z"/>
					<polygon style="fill:#407BFF;" points="113.41,298.383 125.467,294.145 125.732,296.483 114.644,300.393 					"/>
				</g>
				<path style="fill:#263238;" d="M94.822,267.053c0.999-0.153,2.805-0.27,4.768,0.369c0.587,0.191,1.226-0.053,1.513-0.601
					c0.886-1.692,2.662-5.113,3.337-6.648c0,0,3.129-1.529,1.565-5.764c-1.565-4.236-1.565-5.569-1.565-5.569s4.864-4.249,0.25-6.75
					c-4.614-2.501-2.5,2.083-7.583,3.083c-5.083,1-10.833,6-8.75,12.083c1.538,4.492,4.341,7.783,5.179,9.197
					C93.802,266.902,94.308,267.132,94.822,267.053z"/>
				<path style="fill:#FFB573;" d="M102.281,255.635c1.701-0.251,3.532,1.466,4.131,2.989c0.664,1.733-0.202,3.718-1.993,3.24
					c-1.383-0.394-2.573-1.282-3.345-2.495C100.119,257.855,100.58,255.887,102.281,255.635z"/>
			</g>
			<g>
				<g>
					<path style="fill:#263238;" d="M99.811,393.694V356.03h-5.994v37.779l-15.274,4.03c-2.632,0.694-4.466,3.075-4.466,5.797v1.23
						c0,1.242,1.007,2.25,2.25,2.25h0c1.242,0,2.249-1.007,2.249-2.25l0,0c0-1.441,0.971-2.702,2.365-3.07l12.876-3.397v6.467
						c0,1.242,1.007,2.25,2.25,2.25h1.495c1.242,0,2.25-1.007,2.25-2.25V398.3l12.824,3.551c1.389,0.385,2.345,1.657,2.327,3.098v0
						c-0.015,1.242,0.98,2.262,2.222,2.277l0,0c1.242,0.015,2.262-0.98,2.277-2.222l0.015-1.23c0.033-2.722-1.771-5.125-4.395-5.851
						L99.811,393.694z"/>
					<g>
						<path style="fill:#407BFF;" d="M72.613,411.249c0-2.013,1.632-3.645,3.645-3.645c2.013,0,3.645,1.632,3.645,3.645
							c0,2.013-1.632,3.645-3.645,3.645C74.245,414.894,72.613,413.262,72.613,411.249z"/>
						<path style="fill:#407BFF;" d="M113.65,411.249c0-2.013,1.632-3.645,3.645-3.645c2.013,0,3.645,1.632,3.645,3.645
							c0,2.013-1.632,3.645-3.645,3.645C115.282,414.894,113.65,413.262,113.65,411.249z"/>
					</g>
					<path style="fill:#407BFF;" d="M93.132,411.249c0-2.013,1.632-3.645,3.645-3.645s3.645,1.632,3.645,3.645
						c0,2.013-1.632,3.645-3.645,3.645S93.132,413.262,93.132,411.249z"/>
					<rect x="93.817" y="356.03" style="opacity:0.6;enable-background:new    ;" width="5.994" height="8.508"/>
					<polygon style="opacity:0.6;enable-background:new    ;" points="89.346,399.579 93.132,398.58 93.132,393.99 89.346,394.988 
											"/>
					<polygon style="opacity:0.6;enable-background:new    ;" points="104.207,394.912 100.421,393.863 100.421,398.469 
						104.207,399.517 					"/>
				</g>
				<path style="fill:#407BFF;" d="M101.698,353.501h36.395c2.308,0,4.18,1.871,4.18,4.18l0,0h-40.574V353.501z"/>
				<path style="opacity:0.5;" d="M101.698,353.501h36.395c2.308,0,4.18,1.871,4.18,4.18l0,0h-40.574V353.501z"/>
				<path style="fill:#407BFF;" d="M75.87,300.044L75.87,300.044c-12.794,0-21.899,9.535-21.23,22.232l1.463,27.763
					c0.226,4.284,3.765,7.642,8.055,7.642h51.403l-10.62-35.405C101.132,309.579,88.664,300.044,75.87,300.044z"/>
				<path style="opacity:0.1;" d="M75.87,300.044L75.87,300.044c-12.794,0-21.899,9.535-21.23,22.232l1.463,27.763
					c0.226,4.284,3.765,7.642,8.055,7.642h51.403l-10.62-35.405C101.132,309.579,88.664,300.044,75.87,300.044z"/>
				<path style="opacity:0.3;" d="M73.284,300.181c-11.413,1.194-19.267,10.272-18.645,22.095l1.463,27.763
					c0.226,4.284,3.765,7.642,8.055,7.642h46.223l-10.62-35.405C96.21,310.44,85.133,301.36,73.284,300.181z"/>
				<g>
					<path style="fill:#263238;" d="M121.344,356.485L121.344,356.485c-0.781-0.781-0.781-2.047,0-2.829l10.888-10.888
						c0.481-0.482,0.332-1.021,0.245-1.23c-0.087-0.21-0.362-0.697-1.043-0.697h-23.341c-1.105,0-2-0.895-2-2v0c0-1.104,0.895-2,2-2
						l23.123,0c1.94,0,3.811,0.979,4.73,2.688c1.09,2.027,0.711,4.472-0.885,6.068l-10.889,10.889
						C123.391,357.266,122.125,357.266,121.344,356.485z"/>
				</g>
				<path style="opacity:0.2;fill:#FFFFFF;" d="M135.945,339.528c-0.918-1.708-2.79-2.688-4.73-2.688h-23.123c-1.104,0-2,0.895-2,2
					v0c0,1.105,0.896,2,2,2h23.341c0.211,0,0.372,0.054,0.511,0.125h4.51C136.356,340.475,136.194,339.99,135.945,339.528z"/>
			</g>
		</g>
	</g>
</g>
<g id="Character_2">
	<g>
		<g>
			<g>
				<g>
					<path style="fill:#263238;" d="M183.654,327.559h28.829v-2.439h-30.191v1.077C182.293,326.949,182.902,327.559,183.654,327.559
						z"/>
					<path style="opacity:0.2;fill:#FFFFFF;" d="M183.654,327.559h28.829v-2.439h-30.191v1.077
						C182.293,326.949,182.902,327.559,183.654,327.559z"/>
				</g>
				<path style="fill:#263238;" d="M206.931,327.559h23.545v-2.439h-24.907v1.077C205.569,326.949,206.179,327.559,206.931,327.559z
					"/>
				<path style="opacity:0.5;fill:#FFFFFF;" d="M206.931,327.559h23.545v-2.439h-24.907v1.077
					C205.569,326.949,206.179,327.559,206.931,327.559z"/>
				
					<rect x="224.965" y="325.906" transform="matrix(-1 -1.224647e-16 1.224647e-16 -1 452.3706 652.6784)" style="fill:#263238;" width="2.441" height="0.866"/>
				
					<rect x="221.163" y="325.906" transform="matrix(-1 -1.224647e-16 1.224647e-16 -1 444.7663 652.6784)" style="fill:#263238;" width="2.441" height="0.866"/>
				<g>
					<polygon style="fill:#263238;" points="228.826,325.12 230.448,325.12 232.126,303.073 230.504,303.073 					"/>
					<polygon style="opacity:0.3;fill:#FFFFFF;" points="228.826,325.12 230.448,325.12 232.126,303.073 230.504,303.073 					"/>
					<polygon style="fill:#407BFF;" points="229.424,325.12 200.911,325.12 202.59,303.073 231.103,303.073 					"/>
					<polygon style="opacity:0.4;fill:#FFFFFF;" points="229.424,325.12 200.911,325.12 202.59,303.073 231.103,303.073 					"/>
				</g>
			</g>
			<path style="fill:#CE7A63;" d="M181.141,279.431c-0.882,3.133-1.1,6.493,3.402,7.711c0,0,4.2,5.922-0.84,9.887
				c-3.192-4.201-7.219-7.696-11.828-10.265c2.923-2.621,2.352-10.097,1.68-14.188L181.141,279.431z"/>
			<path style="fill:#2E353A;" d="M186.727,263.168c0.344-0.084,0.764,0.235,0.932,0.756c0.168,0.521,0.025,1.067-0.319,1.151
				c-0.344,0.084-0.764-0.227-0.932-0.756C186.223,263.798,186.382,263.252,186.727,263.168z"/>
			<path style="fill:#2E353A;" d="M187.726,262.471l-1.142,0.773C187.399,263.672,187.726,262.471,187.726,262.471z"/>
			<path style="fill:#BA4D3C;" d="M187.953,268.83c0.701-0.043,1.346-0.394,1.764-0.958c-1.108-0.777-2.104-1.704-2.957-2.755
				L187.953,268.83z"/>
			<path style="fill:#2E353A;" d="M185.484,259.724c-0.687,0.464-1.102,1.237-1.109,2.067l0,0c0,0.003,0,0.006,0,0.009
				c0.004,0.176-0.135,0.323-0.311,0.327c-0.006,0-0.012,0.001-0.018,0.001c-0.172,0.004-0.314-0.132-0.318-0.303
				c0-1.047,0.511-2.029,1.369-2.629c0.144-0.105,0.346-0.075,0.454,0.067c0.057,0.099,0.057,0.22,0,0.319
				C185.543,259.634,185.519,259.684,185.484,259.724z"/>
			<path style="fill:#CE7A63;" d="M167.135,263.5c0.438-5.085,4.914-8.851,9.999-8.414c7.157,0.538,11.131,9.845,11.609,16.095
				c0.538,6.947-6.695,11.383-13.214,7.972c-4.368-2.268-5.208-4.998-7.728-11.332C167.236,266.455,167.008,264.974,167.135,263.5z"
				/>
			<path style="opacity:0.21;fill:#263238;" d="M163.643,271.72c-9.383-11.853,2.134-15.255,2.134-15.255
				c3.612-5.007,9.568-6.023,15.028-3.931c5.46,2.092,3.839,5.746,1.848,6.107c3.721,4.923,1.588,7.367,0.361,7.72
				C184.938,278.742,173.026,283.573,163.643,271.72z"/>
			<g>
				<path style="fill:#CE7A63;" d="M171.887,324.054c-1.843-0.24-3.664-0.617-5.45-1.129c-0.266-0.079-0.52-0.191-0.773-0.303
					l-0.086-1.308c-0.209-3.92-0.286-7.927-0.381-11.932l-0.2-12.028l-6.921-0.02c-0.021,4.082,0.081,8.137,0.262,12.206
					c0.181,4.068,0.421,8.136,0.882,12.264l0.238,1.553l0.12,0.781c0.022,0.243,0.059,0.484,0.11,0.722
					c0.077,0.23,0.168,0.454,0.273,0.672c0.19,0.36,0.423,0.696,0.696,0.998c0.384,0.405,0.826,0.75,1.313,1.023
					c0.346,0.201,0.708,0.373,1.081,0.514c0.606,0.235,1.228,0.423,1.863,0.565c2.145,0.435,4.327,0.67,6.515,0.703
					c4.134,0.092,8.27-0.109,12.375-0.602l-0.076-3.388C179.762,324.974,175.75,324.636,171.887,324.054z"/>
				<path style="fill:#263238;" d="M170.917,295.139c0,4.192-2.52,12.029-2.52,12.029l-10.391-6.393
					c-0.462-5.368,0.647-12.265,5.796-13.945C167.297,285.698,170.875,290.679,170.917,295.139z"/>
				<path style="opacity:0.6;" d="M163.449,292.125l-2.386,2.361l-0.459,7.888l7.792,4.794c0,0,2.52-7.838,2.52-12.029
					c-0.01-1.063-0.226-2.154-0.589-3.187l-3.589-1.088L163.449,292.125z"/>
				<path style="fill:#CE7A63;" d="M193.273,327.232c0.29-0.678-0.025-1.463-0.704-1.753l-2.944-1.249
					c-0.634-0.263-1.337-0.31-2.001-0.136l-6.423,1.731l-0.79,2.169c1.001,2.49,5.246,2.019,5.246,2.019l3.058,0.934
					c0.787,0.243,1.644-0.019,2.159-0.662l2.222-2.753C193.167,327.439,193.227,327.339,193.273,327.232z"/>
			</g>
			<path style="fill:#263238;" d="M188.592,286.731c-1.336-0.227-2.73-0.437-4.091-0.605c-4.186-0.423-8.397-0.549-12.601-0.378
				c-2.066,0.042-4.099,0.193-5.88,0.378c-0.048,0.005-0.096,0.011-0.144,0.017c-3.219,0.427-5.483,3.383-5.056,6.602
				c2.52,17.977,3.621,25.63,2.89,35.903l27.822,0.84c3.243-16.759,4.562-26.747,4.99-32.627
				C196.89,291.944,193.454,287.554,188.592,286.731z"/>
			<polygon style="fill:#CE7A63;" points="220.883,389.879 227.452,389.258 231.879,405.437 225.31,406.059 			"/>
			<path style="fill:#263238;" d="M173.143,328.632c-10.576,13.962-9.736,25.932,1.185,25.932c9.728,0,21.866,0.571,35.038-0.269
				c2.898,21.194,13.936,45.883,13.936,45.883l7.283-0.681c0,0-6.645-30.981-7.157-52.645
				c-0.319-13.096-37.281-11.979-37.281-11.979S179.628,328.666,173.143,328.632z"/>
			<path style="opacity:0.3;fill:#FFFFFF;" d="M173.143,328.632c-10.576,13.962-9.736,25.932,1.185,25.932
				c9.728,0,21.866,0.571,35.038-0.269c2.898,21.194,13.936,45.883,13.936,45.883l7.283-0.681c0,0-6.645-30.981-7.157-52.645
				c-0.319-13.096-37.281-11.979-37.281-11.979S179.628,328.666,173.143,328.632z"/>
			<path style="opacity:0.2;" d="M224.256,359.516c-0.43-4.369-0.734-8.675-0.828-12.664c-0.319-13.096-37.281-11.979-37.281-11.979
				s-0.989-0.937-2.569-2.083c-1.426,0.181-2.249,0.303-2.249,0.303s-5.576-0.094-11.14-0.134
				c-7.327,12.019-5.633,21.604,4.138,21.604c5.783,0,12.432,0.197,19.629,0.184c9.787-2.668,19.901-5.969,24.494-7.458
				C219.911,351.507,221.95,355.629,224.256,359.516z"/>
			<path style="fill:#263238;" d="M163.802,326.776l28.175,0.84c0.277,0.008,0.462,0.168,0.462,0.336l-0.319,2.52
				c-0.025,0.151-0.235,0.26-0.487,0.26l-28.629-0.84c-0.328-0.008-0.546-0.21-0.445-0.403l0.79-2.47
				C163.439,326.857,163.616,326.762,163.802,326.776z"/>
			<path style="fill:#CE7A63;" d="M210.301,318.358c-3.037,0.393-6.124,0.776-9.109,1.027c-1.435,0.132-2.877,0.183-4.318,0.153
				c-0.393-0.002-0.783-0.049-1.169-0.116c-0.253-1.117-0.445-2.246-0.537-3.388c-0.107-1.416-0.142-2.836-0.105-4.256
				c0.054-1.457,0.162-2.913,0.311-4.362c0.07-0.726,0.161-1.481,0.266-2.176c0.104-0.696,0.222-1.476,0.326-2.073l-6.743-1.431
				c-0.201,0.911-0.346,1.69-0.462,2.516c-0.117,0.826-0.21,1.615-0.304,2.476c-0.163,1.66-0.237,3.327-0.222,4.995
				c-0.021,3.479,0.54,6.936,1.661,10.229l0.104,0.325l0.092,0.213l0.121,0.278c0.086,0.175,0.185,0.344,0.298,0.504
				c0.371,0.528,0.854,0.969,1.413,1.291c0.659,0.367,1.38,0.609,2.127,0.713c0.986,0.134,1.984,0.157,2.975,0.068
				c1.677-0.147,3.341-0.416,4.98-0.805c3.128-0.73,6.198-1.693,9.184-2.88L210.301,318.358z"/>
			<path style="fill:#263238;" d="M184.924,294.28c-2.209,3.081,2.198,11.483,2.198,11.483l8.699-0.551
				c0,0,2.268-10.802-1.729-15.479C191.933,287.228,187.237,291.074,184.924,294.28z"/>
			<path style="fill:#CE7A63;" d="M217.437,312.876c0.788,0.089,1.355,0.8,1.266,1.589l-0.346,3.776
				c-0.052,0.583-0.454,1.077-1.015,1.246l-3.443,1.031c0,0-6.346,3.998-8.396,2.275l2.366-3.282l4.329-4.939
				c0.488-0.564,1.15-0.95,1.882-1.097l2.899-0.578C217.13,312.866,217.285,312.859,217.437,312.876z"/>
			<path style="fill:#263238;" d="M232.432,405.034c1.559,1.584,4.221,3.84,6.816,4.48c1.661,0.409,2.677,3.094-0.483,2.778
				c-3.16-0.315-6.522-0.955-8.39-1.202c-3.037-0.402-4.08-0.233-6.495-0.474l-0.002,0c-0.599-0.086-1.016-0.641-0.93-1.24
				l1.05-5.419c0.048-0.238,0.275-0.396,0.514-0.359l6.907,0.91C231.808,404.563,232.164,404.749,232.432,405.034z"/>
			<path style="fill:#263238;" d="M182.576,258.653c0,0,3.429,3.875,1.152,8.063c0,0-2.089,2.625-1.152,8.125
				s5.15,9.929-4.309,9.876c-8.901-0.05-20.066,1.749-18.816-6.939c0,0-4.063-3.813,0.51-7.875c0,0-3.448-4.786,0.807-8.567
				c0,0-2.2-7.808,5.423-7.416c0,0,1.697-7.768,9.822-3.411c0,0,3.438-5.481,8.647,0.019c0,0,8.478,0.688,2.494,5.625
				C187.155,256.153,187.451,260.153,182.576,258.653z"/>
			<g>
				<path style="fill:#407BFF;" d="M189.035,266.71c-0.194,0-0.377-0.071-0.545-0.213c-0.76-0.639-1.065-2.702-1.162-3.564
					l-4.03,1.884l-0.212-0.453l5.553-2.596c0.286-0.134,0.608-0.127,0.887,0.021c0.275,0.146,0.462,0.405,0.513,0.713
					c0.218,1.325,0.356,3.063-0.226,3.814c-0.181,0.233-0.418,0.365-0.703,0.392C189.084,266.709,189.059,266.71,189.035,266.71z
					 M187.807,262.708c0.092,0.918,0.405,2.903,1.004,3.407c0.113,0.094,0.199,0.099,0.251,0.094c0.146-0.013,0.258-0.077,0.353-0.2
					c0.363-0.468,0.41-1.718,0.128-3.427c-0.025-0.152-0.117-0.279-0.253-0.352c-0.137-0.072-0.299-0.077-0.441-0.01
					L187.807,262.708z"/>
			</g>
			<path style="fill:#CE7A63;" d="M179.976,266.733c-0.155-1.313,0.784-2.503,2.097-2.658c1.814-0.185,3.217,1.974,3.612,3.52
				c0.445,1.714-0.512,3.293-2.293,2.73c-1.344-0.439-2.459-1.394-3.1-2.655C180.122,267.384,180.015,267.064,179.976,266.733z"/>
			<polygon style="fill:#CE7A63;" points="241.187,375.338 246.756,370.063 254.207,381.378 249.755,385.242 			"/>
			<path style="fill:#263238;" d="M166.339,328.859c-1.356-0.011-2.545,0.904-2.881,2.218c-3.755,14.667,0.487,23.521,10.87,23.521
				c9.728,0,36.281-8.686,44.623-11.391c6.989,20.186,27.15,38.255,27.15,38.255l5.292-4.855c0,0-11.744-22.631-19.859-42.716
				c-4.662-11.551-49.705-4.881-49.705-4.881S172.874,328.859,166.339,328.859z"/>
			<path style="opacity:0.3;fill:#FFFFFF;" d="M166.339,328.859c-1.356-0.011-2.545,0.904-2.881,2.218
				c-3.755,14.667,0.487,23.521,10.87,23.521c9.728,0,36.281-8.686,44.623-11.391c6.989,20.186,27.15,38.255,27.15,38.255
				l5.292-4.855c0,0-11.744-22.631-19.859-42.716c-4.662-11.551-49.705-4.881-49.705-4.881S172.874,328.859,166.339,328.859z"/>
			<path style="fill:#263238;" d="M254.292,378.872c2.22-0.172,5.432-1.866,7.446-3.622c1.544-1.363,3.318,0.201,1.781,2.312
				c-1.537,2.111-4.886,5.103-6.179,6.479c-2.105,2.224-2.497,3.309-4.253,4.976c-0.453,0.399-1.142,0.364-1.551-0.08l-3.477-4.287
				c-0.156-0.189-0.134-0.467,0.05-0.629l5.138-4.714C253.537,379.051,253.905,378.898,254.292,378.872z"/>
		</g>
		<g>
			<g>
				<path style="fill:#263238;" d="M174.194,393.694V356.03H168.2v37.779l-15.274,4.03c-2.632,0.694-4.466,3.075-4.466,5.797v1.23
					c0,1.242,1.007,2.25,2.25,2.25h0c1.242,0,2.249-1.007,2.249-2.25l0,0c0-1.441,0.971-2.702,2.365-3.07l12.876-3.397v6.467
					c0,1.242,1.007,2.25,2.25,2.25h1.495c1.242,0,2.249-1.007,2.249-2.25V398.3l12.824,3.551c1.389,0.385,2.345,1.657,2.327,3.098v0
					c-0.015,1.242,0.98,2.262,2.222,2.277l0,0c1.242,0.015,2.262-0.98,2.277-2.222l0.015-1.23c0.033-2.722-1.771-5.125-4.395-5.851
					L174.194,393.694z"/>
				<g>
					<path style="fill:#407BFF;" d="M146.996,411.249c0-2.013,1.632-3.645,3.645-3.645s3.645,1.632,3.645,3.645
						c0,2.013-1.632,3.645-3.645,3.645S146.996,413.262,146.996,411.249z"/>
					<path style="fill:#407BFF;" d="M188.033,411.249c0-2.013,1.632-3.645,3.645-3.645s3.645,1.632,3.645,3.645
						c0,2.013-1.632,3.645-3.645,3.645S188.033,413.262,188.033,411.249z"/>
				</g>
				<path style="fill:#407BFF;" d="M167.514,411.249c0-2.013,1.632-3.645,3.645-3.645s3.645,1.632,3.645,3.645
					c0,2.013-1.632,3.645-3.645,3.645S167.514,413.262,167.514,411.249z"/>
				<rect x="168.2" y="356.03" style="opacity:0.6;enable-background:new    ;" width="5.994" height="8.508"/>
				<polygon style="opacity:0.6;enable-background:new    ;" points="163.729,399.579 167.514,398.58 167.514,393.99 
					163.729,394.988 				"/>
				<polygon style="opacity:0.6;enable-background:new    ;" points="178.59,394.912 174.804,393.863 174.804,398.469 
					178.59,399.517 				"/>
			</g>
			<path style="fill:#407BFF;" d="M176.081,353.501h36.395c2.308,0,4.18,1.871,4.18,4.18l0,0h-40.574V353.501z"/>
			<path style="opacity:0.5;" d="M176.081,353.501h36.395c2.308,0,4.18,1.871,4.18,4.18l0,0h-40.574V353.501z"/>
			<path style="fill:#407BFF;" d="M150.253,300.044L150.253,300.044c-12.794,0-21.899,9.535-21.23,22.232l1.463,27.763
				c0.226,4.284,3.765,7.642,8.055,7.642h51.403l-10.62-35.405C175.515,309.579,163.047,300.044,150.253,300.044z"/>
			<path style="opacity:0.1;" d="M150.253,300.044L150.253,300.044c-12.794,0-21.899,9.535-21.23,22.232l1.463,27.763
				c0.226,4.284,3.765,7.642,8.055,7.642h51.403l-10.62-35.405C175.515,309.579,163.047,300.044,150.253,300.044z"/>
			<path style="opacity:0.3;" d="M147.667,300.181c-11.413,1.194-19.267,10.272-18.645,22.095l1.463,27.763
				c0.226,4.284,3.765,7.642,8.055,7.642h46.223l-10.62-35.405C170.593,310.44,159.516,301.36,147.667,300.181z"/>
			<g>
				<path style="fill:#263238;" d="M195.727,356.485L195.727,356.485c-0.781-0.781-0.781-2.047,0-2.829l10.889-10.888
					c0.481-0.482,0.331-1.021,0.245-1.23c-0.087-0.21-0.362-0.697-1.043-0.697h-23.341c-1.105,0-2-0.895-2-2v0c0-1.104,0.895-2,2-2
					l23.123,0c1.94,0,3.812,0.979,4.73,2.688c1.09,2.027,0.711,4.472-0.885,6.068l-10.889,10.889
					C197.774,357.266,196.508,357.266,195.727,356.485z"/>
			</g>
			<path style="opacity:0.2;fill:#FFFFFF;" d="M210.328,339.528c-0.919-1.708-2.79-2.688-4.73-2.688h-23.123c-1.105,0-2,0.895-2,2v0
				c0,1.105,0.895,2,2,2h23.341c0.211,0,0.372,0.054,0.512,0.125h4.51C210.739,340.475,210.577,339.99,210.328,339.528z"/>
		</g>
	</g>
</g>
</svg>
